<svg fill="none" height="72" viewBox="0 0 100 72" width="100" xmlns="http://www.w3.org/2000/svg" xmlns:xlink="http://www.w3.org/1999/xlink"><clipPath id="a"><path d="m0 0h100v72h-100z"/></clipPath><g clip-path="url(#a)" fill="#12100f"><path d="m49.4083 44.4097c.8197.6746.5969 2.059-.3056 2.5604-.4281.2529-.9072.3544-1.3921.3926-1.0359.0795-2.0919-.2555-2.883-.9188-.1376-.1248-.2751-.2448-.3987-.4006-.2406-.2888-.3842-.7898-.0909-1.0933l.0376.0239c-.3425.6878.5622 1.2063 1.0662 1.4846.9156.471 2.0029.6011 2.9997.3478.71-.1723 1.2025-.6639 1.2294-1.4158.0139-.3372-.0827-.6853-.2964-.9521l.0343-.0283z"/><path d="m44.923 49.4703c.7136.5324.5422 1.7306-.2222 2.154-1.0994.6222-2.6298.3766-3.557-.4469-.1128-.1062-.224-.2083-.3248-.3417-.1966-.2468-.3101-.6774-.0518-.9231l.0376.0239c-.2497.493.3208.8814.688 1.1057.5433.3202 1.1747.4934 1.8046.4867.8418-.0005 1.7934-.2584 1.8321-1.2538.0121-.275-.0661-.5581-.2398-.7767l.0344-.0283z"/><path d="m54.4116 39.5017c.6493.5092.6323 1.5702.0741 2.1469-.3625.3905-.8988.5529-1.4051.6304-.8829.1284-1.8191-.064-2.5676-.5376-.5236-.3274-1.4115-1.0742-.881-1.7316l.0376.0239c-.2897.5692.3671 1.0197.7922 1.2791.6265.3696 1.3535.5692 2.0801.5624.9744-.0023 2.0679-.2987 2.1143-1.4499.0137-.3177-.0777-.6449-.2785-.8959l.0343-.0283z"/><path d="m48.4227 42.992c.0177.0026.0344.0064.0516.0096-.5474-.6212-.7595-1.5062-.6669-2.3263-.1526.1264-.3066.2462-.4568.323-2.0628 1.0505-3.6009.4499-4.6157-1.6552-.1118-.2318-.6587-2.216-.6261-2.3317l5.1467-2.8519c3.0825 2.0233 8.9225 2.561 11.2096-.8974 1.3077-1.9786.1632-3.9673-1.905-4.7244-3.457-1.2669-8.8537 2.7552-9.3247 2.6011-.3665-.1199-.7289-1.032-.8169-1.4005-.5487-2.3169 1.851-3.791 3.5201-4.7235-1.7178-1.2947-1.8999-2.7776-4.0758-1.2983-3.3115 2.2518-3.561 6.127-.6029 8.8041l-3.5519 2.1803c-2.6691-9.9073-13.6532-.0314-5.0484 3.0243.8767.3113 3.1937.0573 3.3249.1592.2385.1862.3633 3.9478 2.2881 5.4834.2537.2027.55.3714.8733.507 1.297-1.4124 3.541-1.1163 5.2774-.8823zm8.2163-11.4858c.4258 2.2665-6.1051 2.3708-7.3183 1.4157.9651-.7883 6.8949-3.6698 7.3183-1.4157zm-18.6582 1.6719c.8857.5093 1.4472 1.512 1.6284 2.4889-4.3815 1.5147-4.8614-4.3475-1.6284-2.4889z"/><path d="m78.0028 30.8589c.8954.0363 1.2697 1.1678.5637 1.7259v.0004l-.262.2071c-.0717.057-.1149.1423-.1186.2329l.0002.0001-.0128.3333c-.0346.9004-1.1695 1.2648-1.726.5619l-.208-.262.0001-.0002c-.0576-.0725-.144-.1157-.2351-.1195l-.3332-.0137c-.8955-.0363-1.2698-1.1684-.5633-1.7264l.2617-.2072c.0717-.057.1148-.1423.1184-.233l.0002-.0002.0128-.3329c.0347-.9004 1.1695-1.2649 1.726-.5619h-.0003l.2078.2616c.0576.0726.144.1164.2351.1202zm.1197 1.1645c.1692-.1337.0987-.4029-.106-.4439l-.0428-.0051-.3335-.0137-.0003.0001c-.2995-.0124-.5793-.155-.7661-.3902l-.0002-.0001-.2081-.2624-.0002-.0001c-.1464-.1851-.44-.0865-.449.1449l-.0129.3335v.0003c-.0118.2995-.1539.5795-.3893.7662l-.0003.0003-.262.2072-.0001.0002c-.1806.1426-.0886.4394.1484.4491l.3337.0134.0002.0002c.2994.0124.5794.1548.7663.3899l.0002.0005.208.2621v.0003c.1465.185.4401.0864.449-.145l.0002-.0002.0128-.3332v-.0004c.0118-.2995.154-.5797.3894-.7663l.0003-.0001.2619-.2073z"/><path d="m79.8437 23.5607c.8273-.1571 1.4655.7738.9778 1.4952l-.5642.8343c-.0512.076-.0669.1704-.0426.259l-.0001-.0001.2676.9732c.2314.8416-.6726 1.5164-1.4053 1.1005l-.0704-.0437-.836-.5661v.0003c-.0768-.0518-.1717-.0675-.2601-.0434v-.0003l-.973.2654c-.8656.236-1.5619-.7319-1.0584-1.4766l.5641-.8343.0174-.0293c.037-.0701.0464-.1519.0252-.2294l-.2675-.9734c-.2388-.8687.7322-1.5598 1.4757-1.0568l.836.5658.0296.0178c.0707.0374.1532.0466.2305.0256l.9731-.2651zm.3847 1.0941c.1299-.1923-.0499-.4465-.277-.3846l-.9734.2652c-.2908.0792-.6004.0267-.8487-.1409l-.0003-.0003-.8365-.5659c-.1953-.132-.4453.0497-.3838.2737l.0002.0002.2673.9733v.0003c.0748.2725.034.5616-.1094.8014l-.03.0473-.0003.0003-.5644.8347-.0208.0367c-.0865.1861.0847.406.2976.3481l.0001-.0002.9734-.2652c.2908-.0791.6004-.0267.8487.1409l.0004.0003.8361.5659.0373.0213c.1882.0881.4044-.085.3467-.2952l-.2674-.9733-.0001-.0001c-.0798-.2906-.0281-.6002.1394-.8487l.0004-.0005z"/><path d="m58.6602 20.2872c.3958.3104.9677.2418 1.2774-.1531s.2399-.9667-.1559-1.2771-.9678-.2419-1.2775.1531c-.3097.3949-.2398.9667.156 1.2771z"/><path d="m53.0384 11.1009c.7787.2916 1.4993.7972 2.2094 1.224l3.2221 1.9283 12.0696 7.1882c.1403.083.2814.188.4047.295.3071.2671.5436.6207.7172.9851.408.8552 1.1656 3.738 1.2284 4.6782.0333.4921-.084 1.0155-.3371 1.4411-.4445.7474-1.8982 2.1361-2.5618 2.8351-1.4647 1.5438-2.9358 3.099-4.3474 4.691 2.8509-.3117 8.0203-.4491 10.504 1.1858.732.4814 1.3054 1.2347 1.4785 2.1013.1465.7316.0251 1.4241-.3983 2.0418l-.0022.0005c-.3816.5559-.9653.9379-1.6164 1.102-1.0443.2637-2.218.1943-3.2901.1836-.9825-.0125-1.9656-.0188-2.9483-.0202-1.8431.0025-4.0642.1794-5.8804.5052.355.559.648 1.1469.7813 1.7997.205 1.004.0102 1.9774-.5624 2.8236-.8158 1.2064-1.9857 1.6684-3.3715 1.9264.0562.2714.0756.5618.0606.8381-.0478.8778-.4926 1.6477-1.1411 2.2247-1.0998.979-2.5206 1.1745-3.9384 1.0883-.0121.2151-.0466.4379-.1042.6454-.2136.7711-.7305 1.4224-1.4333 1.8043-1.8696 1.0277-4.9948.4202-6.9802-.1456-.612.717-1.3034 1.3739-1.9562 2.0532-.7054.7346-1.3827 1.5559-2.1977 2.1718-.4563.345-.9738.6341-1.5345.769-1.5056.3615-2.8224-.4373-4.0612-1.185l-1.7991-1.0959-10.0201-6.1597c-.7626-.4698-1.5289-.9347-2.2971-1.3949-.7957-.4779-1.6395-.9291-2.3235-1.5637-.9312-.865-.9087-2.3222-.9537-3.4955-.0281-.7115-.0888-1.5369.1581-2.2152.2838-.7807 1.5133-1.9075 2.1111-2.5514l1.881-2.0279c-.0471-.722-.0689-1.4489.0001-2.1696.3739-3.8843 2.6099-7.4306 5.3484-10.1083 1.0086-.986 2.1071-1.8767 3.1534-2.8211 1.0114-.9129 1.9662-1.8864 2.8594-2.9154.8987-1.0359 1.6987-2.198 2.3914-3.3814.6748-1.1525 1.2812-2.3597 2.0935-3.423.71-.9294 1.6826-1.9847 2.9151-2.1356.6606-.0805 1.353.1372 1.8726.5484.8409.6651 1.212 1.6158 1.335 2.6524.6415-.7715 1.3277-1.5082 1.9891-2.2632.6244-.7137 1.2342-1.5117 1.9727-2.1115.3444-.2802.7581-.5274 1.191-.6418.6956-.1862 1.4314-.153 2.1085.0944zm-32.5982 35.4457c-.1187-.0819-.278.0104-.2667.1539.0275.3631.0886.7773.1267 1.0851.1444.8254.0708 1.4626 1.2785 2.2955 1.2076.8328 2.507 1.5677 3.7604 2.3289l5.2391 3.2085 4.9827 3.0741c1.113.6894 2.0442 1.3333 3.2423 1.8639.5718.2527 1.3507.3298 1.9716.2161.4885-.0895.9284-.3054 1.3296-.5935.9528-.6827 1.7162-1.6443 2.5179-2.4933l-.0021.0004c.4449-.4717.9305-.9236 1.3427-1.4228l.0035-.0518c-.91-.344-1.7744-.7222-2.6345-1.1777-.2844.3506-.5943.6807-.9009 1.0119-.7933.8573-1.6376 1.6925-2.8606 1.817-.5555.0566-1.0626-.1545-1.5651-.3904-.903-.4237-1.6817-.9814-2.5315-1.5028l-4.7408-2.9895-6.5758-4.0945c-1.0862-.6647-2.6454-1.6064-3.717-2.339zm32.33-34.6436c-.5295-.2159-1.0665-.2594-1.6218-.1183-.4996.1266-.8825.445-1.235.8049-.7986.8138-1.5368 1.6956-2.3086 2.5352l-5.1498 5.5876-13.9291 15.0959-5.0862 5.4919-1.475 1.557c-.4562.4789-1.0071.9757-1.3416 1.5481-.1674.2857-.2481.6153-.2002.942l.0287.139c.0948.3622.3676.6099.6561.8277.8897.6715 1.8899 1.2154 2.8418 1.7944l4.3261 2.6542 6.4799 3.9599c1.1393.694 2.2743 1.4376 3.4427 2.0778.5622.308 1.1536.4343 1.7778.2446 1.0568-.3215 2.0263-1.5449 2.7117-2.3747-1.4171-.9185-3.2675-2.1104-3.6548-3.87-.1625-.7376-.0376-1.48.3778-2.1126.4813-.7332 1.2856-1.1593 2.1319-1.3247.4104-.0796.8314-.099 1.2483-.108-.4594-.7084-.795-1.4133-.6062-2.276.1676-.765.7177-1.3911 1.3695-1.7979.5042-.314 1.0627-.4891 1.6415-.6089-.0008-.0025-.0019-.0046-.0022-.0067.0269-.0032.0544-.0087.0811-.0176.0062-.0023.0088-.0032.0125-.0046.0024-.0008.0037-.0006.0074-.001.0289-.0035.0582-.0084.0873-.0108.0598-.0046.1193-.0044.179-.0053.0718-.0017.1403-.0077.2079-.0173.0268.0051.0546.0072.0809.0046.0007.0015.001.0044.0012.0064.6907-.0339 1.3617-.0028 2.051.0427-.4028-.6883-.6858-1.4349-.4782-2.2368.209-.8094.867-1.5309 1.5804-1.9372 1.3666-.7774 3.0137-.7256 4.5285-.5512l.001.0003c.0073.0011.0138.0027.0212.0039.0144.003.0288.0039.0434.0042.0162.0049.0907.0153.1057.0177.0818.0127.1631.0344.2436.0536.1227.0298.2472.0585.3729.0739 1.0461.1943 2.0634.5396 3.0584.9128l9.3664-10.0994 2.4659-2.6216c.4651-.4915.9747-.9748 1.3802-1.5159.2482-.3308.4151-.6155.3972-1.0466-.0206-.4999-.2991-.9742-.6697-1.3004-.0795-.0708-.1593-.1238-.2518-.1757l-12.0018-7.1549-3.1944-1.89c-.6808-.4076-1.3652-.8964-2.1005-1.1962zm-.0266 39.7135c-2.3436-1.8004-5.3146-3.0296-8.2243-3.4968-.8148-.1308-1.6673-.2236-2.4891-.1157-.7174.0944-1.5102.336-1.9608.9418-.3363.4518-.4424 1.0645-.3517 1.6146.1578.9566.9449 1.7376 1.6521 2.3381.8209.581 1.6411 1.1366 2.5297 1.6098 2.4108 1.2841 5.7292 2.3 8.4737 1.831l-.0006-.0013c.7144-.1218 1.3968-.4178 1.8258-1.0245.292-.413.3929-.8629.3061-1.3596-.1692-.9683-1.0019-1.7805-1.7609-2.3374zm4.0896-4.7912c-2.8738-2.0776-7.8454-4.1178-11.4389-3.5303-.796.13-1.7063.4392-2.194 1.1245-.2755.3789-.3841.855-.3 1.3167.1045.5891.4593 1.0152.7527 1.5167.5411.0884 1.0788.1872 1.6129.3075.0356.0214.077.0383.1243.0483.3734.0776.7351.1986 1.1108.2743.4129.0833.8085.2061 1.2049.3475.4129.148.8316.2798 1.2484.4157 2.3226.9482 5.1594 2.5481 6.1921 4.7523 1.18.2029 2.405.0492 3.4-.6478.5641-.3952.9781-.9604 1.0913-1.6502l.0019.0005c.1435-.8756-.2945-1.708-.7983-2.3931-.5302-.7208-1.249-1.4071-2.0081-1.8826zm3.8767-5.2481c-2.7897-1.8806-6.7216-3.6466-10.1531-2.9915-.8017.1527-1.6102.4917-2.0816 1.1898-.3091.4575-.4472.987-.3408 1.5365.1027.5316.4223.9612.7255 1.3974 1.0829.2324 2.1399.4577 3.1838.8356 3.0974 1.1824 6.1934 2.7576 7.982 5.6761 1.0326-.0119 1.9523-.2297 2.6933-.9916.5358-.552.8738-1.2743.8991-2.0434l.0008-.154c-.0322-1.4971-1.0111-2.7682-2.0526-3.7543-.2673-.2536-.5443-.5018-.8564-.7006zm-16.9958-27.7922c-.4828-.2308-.9498-.3099-1.4668-.1242-1.9511.7-3.3912 4.0304-4.444 5.7008-1.122 1.7788-2.4533 3.4174-3.9636 4.8805-1.0058.9752-2.097 1.8548-3.1363 2.7925-1.9959 1.8001-3.7851 3.8843-4.9166 6.3426-.7396 1.6058-1.3 3.3269-1.2994 5.1127l.0019.0006-.0149.559c2.1457-2.4192 4.3988-4.7377 6.5978-7.1066l13.9914-15.1727c.0613-.8783-.1494-1.8029-.7414-2.4795-.1764-.202-.3808-.365-.6081-.5057zm32.2739 24.5619c-2.9348-1.8298-7.9053-1.5473-11.2157-1.1018-.2678.2814-.5119.5213-.7099.7706l-2.7679 2.9432c.315.2143 1.0783.8555 1.6133 1.7071.2101.0592.9234-.0086 1.4296-.071.0012.003.0023.0061.0035.0091 1.6502-.1836 3.2725-.3546 4.9364-.3608.9733-.0033 1.9487.0228 2.9218.039.9728.0163 2.0088.0495 2.9691-.1322.5317-.1005 1.0757-.3164 1.4163-.7567.3057-.3947.4322-.9312.3605-1.4234-.0949-.6526-.4822-1.1871-.957-1.6231zm-14.5574-2.6894c-1.1265 1.2045-2.2259 2.4362-3.3733 3.6206.6736.2522 1.2887.5677 1.8969.951l.591.3974c2.4247-2.4426 4.7164-5.0244 7.0749-7.531l2.4623-2.6125c.5157-.5416 1.103-1.0788 1.5463-1.68.3036-.4122.4709-.7248.4661-1.2545-.0058-.6793-.3542-2.0092-.6559-2.635z"/></g></svg>