<svg fill="none" height="72" viewBox="0 0 100 72" width="100" xmlns="http://www.w3.org/2000/svg"><g fill="#12100f"><path d="m24.6294 11.0739c.0722-.0035.1456-.008.2178-.0046.1264.0059.2404.0604.2999.1776.1031.2031.1017.4791.1293.7031.0716.5798.2265 1.1549.5678 1.6369.9249 1.3061 2.4829.972 2.9225 1.4695.0721.0817.1215.21.1021.3202-.0769.4376-1.0376.4487-1.3828.5403-.3189.0845-.629.2109-.9041.3946-.9714.6488-1.1158 1.6701-1.3291 2.7262-.0441.2188-.0924.3234-.281.4457-.077.0192-.1734.0395-.2534.0227-.4571-.096-.4126-1.266-.5162-1.6397-.0886-.3192-.269-.667-.4718-.9284-.5183-.6681-1.2505-.9164-2.043-1.0996-.1801-.0417-.3761-.0488-.5506-.1083-.1004-.0333-.1881-.0971-.2507-.1825-.0645-.0873-.0902-.1972-.0711-.304.0289-.1603.1573-.2848.3043-.3439.1661-.0669.3776-.0667.5546-.0944.5033-.079 1.0266-.2644 1.4428-.5624.9132-.6539 1.0672-1.595 1.2409-2.6344.0411-.2456.0627-.385.2718-.5346zm-1.6357 4.2063c.4927.2935.952.6438 1.3177 1.0892.12.1461.4767.8227.5679.8616.368-.8384.9622-1.497 1.7844-1.915-1.1006-.6414-1.2159-.8734-1.8746-1.9418-.4332.8724-.9615 1.4174-1.7954 1.906z"/><path d="m69.9854 15.0182c.1177-.0182.27.0016.3652.0791.0968.0789.1231.196.125.3145.0063.4047-.4938 1.7542-.6416 2.2148-1.3951 4.3486-3.3994 8.7158-6.6865 11.9678-2.3999 2.3696-5.5469 3.8343-8.9053 4.1445-1.0266.0988-2.062.0634-3.0918.0576-.1208.2847-.2366.6416-.2676.9473-.0729.7215.0317 1.4953.0694 2.2197.07 1.1919.1117 2.3853.125 3.5791 2.4062-1.881 5.3911-3.8846 8.416-4.5488.9372-.2057 2.0285-.2649 2.8691.2793.1786.1153.3465.2467.501.3926.4993.4723.9616 1.0209 1.4219 1.5322.4274.475.9257.9604 1.2666 1.5.1435.2272.238.4918.293.7539.3892 1.8588-1.3486 4.1954-2.3125 5.6817.1823.1142.4683.1608.6777.2226.466.1374.9373.3044 1.3447.5752.2733.1817.6279.4939.7891.7822.2972.5321.5256 1.8732.6924 2.544.1569.6307.3526 1.2606.4716 1.8994.0488.262.0514.4906.0196.7119-.3258 1.3263-1.3761 2.9006-4.2627 4.3955-3.9071 2.0233-10.911 4.0051-17.0899 2.9649-.328-.0867-.6516-.1858-.9638-.3086-.6225-.245-1.1414-.5544-1.6065-1.0362-.4504.0507-.8961.139-1.3447.2032-.7446.1037-1.4927.1855-2.2422.2441-4.1095.2984-11.9153.1763-15.3887-2.0381-.6096-.3888-1.2239-.9362-1.3828-1.6728-.0951-.4412-.0606-.9133-.0586-1.3623l.0069-1.754c.0002-.6153-.0716-1.3085.0127-1.915.0374-.2695.1398-.5173.288-.7441.8235-1.2598 2.9066-1.8792 4.3106-2.1895.5141-.1135 1.0359-.1867 1.5508-.2969-1.0941-1.2161-2.3345-2.7551-2.5752-4.4228-.1775-1.2297.3615-2.0001 1.0654-2.9414.4971-.6534.9382-1.3719 1.4766-1.9903.5732-.6583 1.2822-.9346 2.1455-.9902.9917-.0637 2.0575.1499 3.0146.4043 3.3519.8907 6.5261 2.6375 9.3125 4.6826 1.0413.7643 2.0092 1.6363 2.9805 2.4864.523-.6983 1.3512-1.5139 1.9678-2.1495.091-1.9697.1253-3.9424.1045-5.914-.0089-.7897-.0565-1.5785-.0635-2.3692-.1479-.1988-.2789-.4132-.4024-.6279-1.089.1481-2.1717.2575-3.2724.1904-5.1991-.3172-8.9922-2.8083-12.3779-6.6142-1.9074-2.1481-3.5634-4.5075-4.9356-7.0313-.1626-.2964-.5187-.7054-.4824-1.0566.0081-.0777.0401-.1371.1015-.1865.2854-.2294.8979-.168 1.2579-.1778 1.7265-.0471 3.3025.0488 5.0097.3057 3.3738.5077 6.979 1.4112 9.7842 3.4434 1.1932.8787 2.2427 1.9377 3.1123 3.1377 1.5936 2.1631 2.4352 4.8824 2.8359 7.5166.1381.9079.1165 1.8654.1446 2.7822.0793 2.5554.0319 5.1133-.1416 7.664-.0953 1.5346-.2069 3.0724-.4365 4.5938.3718-.1394.7431-.2897 1.125-.3994.1666-1.4649.1992-2.9686.2138-4.4424.0187-1.6833-.007-3.3669-.0771-5.0488l-.1299-2.6211c-.0258-.5184-.0765-1.0404-.0547-1.5596.1668-3.9803 1.4019-7.9526 3.873-11.1113 1.0306-1.3172 2.3005-2.4427 3.6631-3.4053 3.6833-2.6018 7.942-3.9446 12.3897-4.4883zm-20.0537 41.3877c-.7162.0733-1.4331.0384-2.1514.0518.1724.5842.2555 1.2035.375 1.8008.1018.5087.2372 1.0167.3213 1.5283l.4834.0205c.6669.0059 1.3306-.0093 1.9971-.0147-.1849-.747-.3201-1.5148-.46-2.2715-.0664-.359-.1071-.7534-.2197-1.0996-.1108-.0201-.234-.0367-.3457-.0156zm3.3291-.415c-.8637.1399-1.7272.2477-2.5928.3691.1129.4979.5312 3.2334.7012 3.4111.0571.0042.1125.0072.1699.0069.848-.1584 1.7516-.125 2.5859-.3574-.1612-.7529-.3181-1.5071-.4707-2.2618-.0801-.3848-.1398-.7878-.2558-1.163-.0681-.0341-.0676-.021-.1377-.0049zm-7.9756.1474c.19 1.0716.3991 2.14.6269 3.2041.3978.1032.7971.2078 1.2022.2784.3292.0573.6636.0834.9912.1474l-.4971-2.3496c-.0684-.325-.1004-.676-.2099-.9892-.7035-.0776-1.424-.1222-2.1133-.2911zm11.3144-.9209c-.7965.2928-1.9523.5186-2.8066.6817.2006 1.1496.4435 2.2998.6826 3.4424l.0459.0254.0703-.0245c.937-.1577 1.902-.3329 2.8106-.6142-.1371-.5419-.6162-3.2617-.7559-3.4922zm-13.2822.2286c.1043.2509.1365.5523.1895.8183.3117 1.5658.296 2.2027 1.8877 2.8828l.0537.0225.0234-.0244c-.0825-.5324-.4498-2.7178-.6308-3.0791-.3203-.1468-.6606-.2392-.9854-.375-.1893-.0792-.3632-.1964-.5498-.2725.0039.0088.008.0185.0117.0274zm-9.0049-.3877c-.0656 1.159.0837 2.4212-.0273 3.5595l2.4521-.0068c-.0346-.436-.0163-.8828-.0146-1.3203.0061-.7435.0081-1.487.0039-2.2305-.8049.001-1.6093.0133-2.4141-.0019zm-3.1201 3.3505c.5053.0223 1.0064.0811 1.5108.1153.4022.0273.8266.0202 1.2226.0918l-.0019-3.5635c-.9014-.0071-1.8344-.1008-2.7276-.2217zm28.627-4.2343c-.9214.3418-1.8514.6601-2.7891.9541.1709.7379.3078 1.4865.4551 2.2295.08.4037.1465.8246.2676 1.2177.0162.0097.0442.0306.0625.0342.347-.1008 2.65-.7701 2.7402-.9834.0302-.0736.0049-.1794-.0088-.2558-.0531-.2968-.6552-3.1307-.6875-3.1924zm-20.0518.5761c-.8812.1339-1.7694.2176-2.6601.25l-.0088 2.337c-.0004.3963-.0173.8002.0048 1.1953.0165.0129.0423.0381.0616.0459.9003-.0737 1.8021-.1427 2.6953-.2813-.0053-.3738.0215-3.4633-.0322-3.5439zm-11.543-.417c-.0152.1503-.0036.2956-.0097.4454-.0418 1.0191.0369 2.0476-.0293 3.0634.8669.1805 1.7133.3645 2.5898.502.0998-.1258.0426-3.1399.0391-3.5576-.8703-.0882-1.7332-.2806-2.5899-.4532zm12.0489.4229c-.0323 1.1621-.0262 2.3446.0019 3.5068.3299-.1181.6935-.173 1.0362-.2461.3983-.0849.7939-.1816 1.1914-.2695.1699-.0546.3341-.0981.5097-.1308-.1434-.6365-.2168-1.3086-.3906-1.9346-.2749-.1498-.5888-.2336-.8838-.336-.4912-.1704-1.0015-.3519-1.4648-.5898zm-14.6739-1.3145c.0054 1.1599.0392 2.3304-.0029 3.4893.6411.3631 1.4765.629 2.1914.8008.0201-.0081.0465-.0113.0586-.0293l-.0088-2.3233c-.0016-.3767.0154-.767-.0146-1.1425-.7262-.3044-1.5032-.4637-2.2237-.795zm37.168-.6757c-.8203.4781-1.6977.8441-2.5576 1.2412.2097 1.1602.515 2.3058.7285 3.4658l.0527.0293c.8998-.3969 1.7796-.8302 2.6133-1.3535-.2063-.7894-.3746-1.5887-.5527-2.3848-.06-.2682-.0982-.6839-.2178-.9258-.0159-.0321-.0378-.053-.0664-.0722zm-38.8682-.3282c-.0014.6168-.0961 2.4775.0411 2.9385.0793.2663.2437.4867.4365.6817.2553.2583.5547.4671.8525.6728.0068-1.1351.0133-2.2731-.0019-3.4082-.4967-.2416-.8747-.5882-1.3282-.8848zm40.9844-1.0703c-.5401.4087-1.1032.8464-1.708 1.1553.0338.4334.1695.8828.2686 1.3057l.4922 2.0761.038.0323.0245-.0323c.6362-.391 1.1668-.8882 1.7285-1.373-.2846-1.0274-.5703-2.0953-.7784-3.1406zm.4326-3.6943c-1.2272-1.0296-4.3291-1.1624-5.8925-1.044-1.4352.0752-2.8642.2437-4.2774.5049-3.3305.6272-9.1249 2.346-11.4082 4.9121-.3808.4281-.7418.9699-.706 1.5694.0234.3911.2211.6742.5087.9219 1.2428 1.0692 4.3657 1.2659 5.962 1.125l.0439-.004c1.5381-.0886 3.0678-.2876 4.5772-.5966 3.3562-.691 8.7167-2.422 11.0214-5.044.3466-.3943.695-.9289.6524-1.4756-.0277-.3533-.214-.6447-.4815-.8691zm-23.5839 3.3105c-.2244.3164-.4084.673-.6036 1.0088-.3629.6178-.7194 1.2395-1.0683 1.8653.628.2463 1.2466.5255 1.8857.7422.147.0583.2875.1176.4453.1396-.0266-.2748-.0829-.5458-.1103-.8203-.0995-.9978.2479-1.5189.7939-2.3096-.109-.0698-1.2577-.6161-1.3427-.626zm-12.0948-2.8955c-1.5299.1702-4.4333.7557-5.4209 2.0088-.1961.2491-.3177.5502-.2802.8711.0528.4516.4389.8257.7851 1.0869 1.863 1.4055 6.1066 2.2052 8.4219 2.1836 1.4294.1349 2.9231.075 4.3535-.0107.4256-.0255.8511-.0312 1.2725-.1055-2.0198-.9625-4.375-2.3928-6.1231-3.7832-.5404-.4336-1.0724-.8779-1.5947-1.333-.3627-.3172-.72-.6647-1.1152-.9414zm36.542 1.8506c-.2824.4254-.615.7488-.9463 1.1289.272 1.0019.4647 2.0372.7686 3.0283l.04.0391c.3341-.2625.6828-1.0902.7285-1.5137.0139-.1422.0089-.2858-.0146-.4267-.0473-.2917-.4719-2.1282-.5762-2.2559zm-27.3564-.6113c-.3367.5271-.6566 1.0651-.9893 1.5947-.2825.4497-.5835.8952-.8476 1.3555.5266.3508 2.0573 1.1847 2.6416 1.3672l.0556-.0059c.609-.927 1.147-1.9087 1.7168-2.8603-.3449-.2222-.7228-.4013-1.083-.5987-.5006-.2793-.999-.5636-1.4941-.8525zm-2.7989-1.8203c-.2742.2626-.4868.6757-.6953.9941-.4179.6383-.8425 1.279-1.2343 1.9336.7978.6065 1.6729 1.1425 2.5419 1.6397.1384-.0681 1.6664-2.598 1.8545-2.9385-.836-.5217-1.6587-1.0649-2.4668-1.6289zm-4.4511-9.7627c-.5053.0398-1.0591.1097-1.4043.5312-.2732.3337-.2875.8086-.2383 1.2188.2882 2.3972 4.019 5.4322 5.8369 6.8388 1.721 1.3178 3.5592 2.4754 5.4912 3.4581.5199.2652 1.0443.5218 1.5723.7705.2984.1381.6064.2582.9004.4052.5367-.4601 1.0987-.9108 1.7226-1.249.6812-.5001 1.8836-.9213 2.6768-1.3232.093-.3702.1183-.7537.1719-1.1309-1.1854-1.2635-2.4367-2.53-3.7813-3.623-3.1251-2.5404-8.6711-5.7608-12.7637-5.8955-.0615-.0021-.1229-.0023-.1845-.001zm.6484 9.1045c-.2964.4391-.6109.8736-.8808 1.3291.4346.3813 2.0008 1.8375 2.4228 2.0107l.0332-.0127 1.2617-1.9219c.2119-.3205.4537-.6372.6416-.9716-.4746-.3729-.9557-.7405-1.4209-1.125-.347-.2868-.6775-.5934-1.0263-.878-.3429.5242-.6809 1.0501-1.0313 1.5694zm-1.1572-3.7256c-.4049.5505-.7827 1.1241-1.1651 1.6904-.2453.3636-.5111.7253-.7343 1.1026.2187.2725 1.612 1.9493 1.8652 1.9843.4553-.6322.8759-1.2885 1.3096-1.9355.2026-.3023.3972-.6375.6347-.9121-.5474-.5426-1.4667-1.3498-1.9101-1.9297zm29.3408-6.5586c-3.2635.5159-6.8107 2.8334-9.2822 4.9502-.0036 1.5455-.0503 3.0909-.1397 4.6338-.0248.4278-.031.8627-.0693 1.289.5235-.1677 1.0545-.307 1.584-.4541 1.3867-.3579 2.8442-.6941 4.2763-.8046.3517-.3169.6589-.6807.9952-1.0137.3333-.3301.6934-.6368 1.0175-.9756 1.3116-1.371 3.5367-4.1159 3.6446-6.0322.0208-.3707-.0407-.7809-.292-1.0694-.3072-.352-.877-.5081-1.3311-.5273-.1343-.0043-.2691-.0032-.4033.0039zm-11.8555 7.1953c-.4195.4443-.8503.8922-1.2392 1.3633.1825.1911.3663.3812.5371.583.1728.1808.3418.3745.54.5273.0514-.5094.2731-2.0397.1807-2.4511zm13.3887-2.3613c-.5097.8001-1.071 1.5389-1.6758 2.2695.388.4492.7724.9014 1.1533 1.3565.2377.2854.4702.6099.7422.8613.0759.0702.1422.1032.2403.1328.5003-.1367 1.3774-1.7357 1.6572-2.1934-.4754-.5411-.9466-1.0869-1.4121-1.6367-.2153-.2514-.4485-.5911-.7051-.79zm-1.9707 2.5683c-.5596.7356-1.2567 1.3463-1.8975 2.0059.2871.039 1.2335-.017 1.5372-.0586.6663-.0792 1.32-.0019 1.9834-.0381-.2033-.257-1.4691-1.8546-1.6231-1.9092zm-30.4648-2.8867c-.5655.7876-1.1713 1.5744-1.6846 2.3955.2975.709.6204 1.4081 1.0771 2.0313l.0567.0205.0459-.0498c.3678-.6327.8252-1.2342 1.2412-1.8379.1798-.2609.3889-.5237.5185-.8135-.1484-.1876-1.2548-1.7461-1.2548-1.7461zm33.4853-1.7422c-.2527.5761-.5828 1.1462-.8017 1.7325.7871.6638 1.3117 1.6259 2.0732 2.3173.1922-.1777.6513-1.4388.6728-1.708.0013-.0164.0031-.08-.0048-.1025-.032-.0901-1.6695-1.9736-1.8789-2.1885-.0236-.0242-.0359-.0325-.0606-.0508zm-33.9121.2862c-.3632.3316-1.5576 2.0236-1.5684 2.4814-.006.2759.061.6481.1514.9072l.0391.0118c.3388-.5465.7059-1.0759 1.0674-1.6075.1764-.2595.3445-.5566.5478-.7949-.0369-.1633-.1496-.9096-.2373-.998zm34.1387-1.4375c-.0591.1955-.0994.3913-.1377.5918.3779.326.7052.7256 1.0361 1.0986.3057.3445.6237.6846.9141 1.042l.0537-.0352c.0554-.3138-.1391-.6366-.3135-.8847-.366-.5206-1.0905-1.3703-1.5527-1.8125zm6.0537-22.3194c-.5266.1074-1.0588.1847-1.586.2901-.9605.1988-1.9132.4352-2.8554.708-4.2913 1.2776-8.5497 3.8243-11.0537 7.6162-1.5967 2.4181-2.5084 5.2325-2.8037 8.1006.9058-1.1453 1.8067-2.2877 2.7646-3.3907 1.4568-1.6745 3.0106-3.2622 4.6533-4.7548 1.3359-1.2188 2.715-2.3658 4.2285-3.3604.3629-.2385 1.2575-.8817 1.6338-.9844l.1094.0215c-.0056.1894-.1623.3125-.292.4346-.5202.4899-1.0847.9437-1.6289 1.4072-.6896.5937-1.3759 1.1913-2.0586 1.793-2.5211 2.2167-4.9536 4.5782-7.0889 7.1728-.5623.6833-1.1275 1.3765-1.624 2.1094 1.1569.0096 2.2849-.0052 3.4317-.1875 2.7254-.4333 5.4568-1.8121 7.4238-3.7451 3.0968-3.0435 4.9192-6.931 6.2998-10.9922.1309-.385.6571-1.8708.6445-2.1846-.0008-.0176-.0078-.0345-.0117-.0517-.0623-.0024-.1242-.0058-.1865-.002zm-37.9649 3.6377c-.8377-.0515-1.7087-.1196-2.5478-.0703l-.3408.0108c2.3123 4.2824 5.9393 9.1601 10.2343 11.5761 1.0887.6124 2.2879 1.0704 3.4825 1.4268 1.7756.5299 3.7786.697 5.6015.3408-2.7759-3.4253-5.9239-5.9826-9.749-8.1621-.7384-.416-1.486-.8155-2.2422-1.1982-.3815-.1948-.7927-.3718-1.1592-.5918.0157-.0437.0359-.1445.0782-.1641.3293-.1494 3.3684 1.1868 3.8222 1.4092 3.7681 1.8465 7.3823 4.9437 9.9346 8.2617-.0793-.7444-.2869-1.4716-.5039-2.1856-.8007-2.6337-2.1607-4.9141-4.3193-6.6562-3.3411-2.6961-8.0936-3.739-12.2911-3.9971z"/></g></svg>