<svg fill="none" height="72" viewBox="0 0 100 72" width="100" xmlns="http://www.w3.org/2000/svg"><g fill="#12100f"><path d="m34.195 8.7773c4.2176-.4015 8.7982 1.968 11.9024 4.6719 2.4742 2.1553 4.8798 5.2433 5.0966 8.6406.1349 2.1127-.4419 2.9201-1.6504 4.5469-.4899.6596-.971 1.3329-1.5146 1.9502-.9344 1.0608-2.3492 1.8576-3.7803 1.9453-.1049.0183-.2106.0334-.3164.0469-.5712.0707-1.1666.02-1.7383-.0313-3.2905-.2955-6.3792-1.9091-8.956-3.9141-2.809-2.1855-5.5014-5.3827-5.9502-9.0322-.2906-2.3634.371-3.4748 1.7959-5.2539.4573-.571.8954-1.1557 1.3496-1.7285.9358-1.17999 2.2751-1.67172 3.7285-1.83594.0111-.00199.0221-.0048.0332-.00586zm11.6162 18.9004c-.5018.033-1.0123.0385-1.625.0381-.2062.2693-1.4702 1.7838-1.4717 1.9883.0729.0152.1336.0242.2081.0205.4578.0039.8859-.0119 1.2919-.0586zm-3.8213-.4609c-.5643.6706-1.1885 1.4086-1.6435 2.1562.4394.1301.8728.2029 1.3232.2783.5842-.6797 1.1167-1.439 1.6377-2.1689-.437-.0607-.9027-.1128-1.3174-.2656zm5.6836.1923c-.3142.0689-.6022.1205-.8759.1621l-1.5108 1.8731c.705-.2228 1.3542-.6047 1.9961-1.2402.1611-.1596.5748-.5696.5889-.7959-.0711-.0058-.1264-.0063-.1983.0009zm-10.2265.875c.4017.1916.8063.3658 1.2119.5186.2284.086.5526.2791.7988.2549.0591-.0059.0898-.0472.1338-.083.2762-.3462 1.4216-1.7057 1.4687-2.001-.3634-.2405-.8384-.3503-1.2392-.5234-.2195-.0956-.4363-.1969-.6524-.2999zm-2.3448-1.3369c.5548.3682 1.1272.7097 1.709 1.0166l1.7139-2.1338c-.2204-.1144-.44-.2313-.6563-.3535-.3539-.199-.7087-.4135-1.0625-.6416zm4.583-16.4043c-1.576-.64862-3.4016-1.0321-5.1044-.91697-1.2452.10936-2.4986.46007-3.3409 1.45217-.781.92-1.1124 2.132-1.0088 3.3271.2826 3.2557 2.7098 6.2763 5.1416 8.3028 2.8046 2.3368 7.0849 4.4614 10.8096 4.1513 1.3712-.1917 2.5757-.6396 3.4424-1.7773.7249-.9518.8645-2.1733.7002-3.3301-.0973-.6851-.3233-1.331-.5762-1.9717-1.1266-2.8544-3.2072-5.017-5.6357-6.8222-1.0413-.7694-2.162-1.4252-3.3428-1.9561-.2411-.1072-.4945-.1793-.7363-.2822-.12-.0511-.2271-.1267-.3487-.1768zm-6.4277 15.0342c.4075.3369.8325.663 1.2705.9746l1.6934-2.1084c-.4317-.299-.8587-.6187-1.2764-.957zm-1.6133-1.4893c.1824.1917.3645.3768.5479.5499.174.1641.3533.3261.5361.4873l1.6777-2.0889c-.3775-.3275-.7451-.6704-1.0986-1.0274zm-1.2705-1.5136c.2563.3475.5243.6802.7979.9951l1.6474-2.0733c-.2842-.3097-.5578-.6282-.8173-.956zm-.9863-1.5166c.1784.3157.3701.6248.5713.9258l1.6064-2.0215c-.2086-.2896-.4056-.5856-.5908-.8867zm-.8125-1.7295c.1327.3568.2885.7099.46 1.0586l1.5615-1.9639c-.1771-.3278-.3376-.6621-.4824-1.001zm-.4961-2.0039c.0453.4025.1273.808.2393 1.2129l1.5039-1.8721c-.1257-.366-.2308-.7373-.3135-1.1133zm1.2705-3.8672c-.7407.7544-1.1936 1.7383-1.291 2.7812l1.3701-1.705c-.0061-.4726-.0124-.9735-.0791-1.0762z"/><path d="m64.9974 23.2357c.6663-.0847 1.4438.0251 2.0889.2002.4838.1314.8838.3231 1.2949.6104.5674.3965 1.0205.932 1.5205 1.4062.3951.3748.8266.7189 1.1875 1.1279.2134.2423.4008.5065.5586.7881.6483 1.1457.7429 2.8193.3926 4.0703.5996.0125 1.2073.0292 1.8047.0801 1.2436.1059 2.2806.5498 3.0869 1.5244.631.7628.9936 1.8919.873 2.8809-.1153.9441-.6597 1.9747-1.0078 2.8623l-1.6103 4.1387-2.792 7.1533c-.5936 1.5319-1.1104 3.1169-1.8604 4.581-.5956 1.1626-1.3217 2.3794-2.3593 3.1963-.7648.6019-1.6063.9256-2.5801.9698-.95.043-1.9888-.1822-2.9395-.2725-2.5442-.2469-5.0876-.5075-7.6289-.7832l-15.626-1.6279c-.9762-.107-1.9567-.1784-2.9316-.2959-1.4126-.2112-2.1772-.1269-3.3945-1.0098-.0562-.0408-.1105-.0794-.1621-.126-.6671-.6043-1.4223-2.0646-1.9249-2.8857l-2.997-4.9326-3.6973-6.0127c-.6064-.9911-1.262-1.9775-1.8125-3-.1756-.3263-.3004-.6655-.3086-1.0401-.0173-.7976.2975-1.3404.835-1.8965.5454-.5643 1.2262-1.2022 1.9687-1.4951.3468-.134.7108-.219 1.0811-.2519.674-.0595 1.3762.006 2.0517.0342l3.0899.1152c.5868.0258 1.1709.0857 1.7588.0781.1821-.1132.3654-.2237.5586-.3174.3264-.1583.6937-.2675 1.0556-.3008.558-.0511 1.1328.0009 1.6924.0235l2.3936.0918c.8474.0338 1.7599-.03 2.5927.1172.5892.1042 1.0561.5515 1.6338.6181 1.929.2218 3.8362.0307 5.711.67.3483-.6541.7337-1.2419 1.289-1.7403 1.5096-1.3547 3.0669-1.5516 5.001-1.4551.5686-.9706 1.0506-1.9253 1.7598-2.8125 2.0604-2.5775 4.9999-4.7115 8.3525-5.082zm-24.917 11.1113c-.1482.1206-.3388.4052-.3633.5977-.0087.0686-.0048.077 0 .1387.1014.1052.3038.0908.4463.0937 1.1819.0249 2.3635.0682 3.544.1299.6468.0295 1.2981.0359 1.9424.1025 2.538.2626 4.8152 1.224 6.5986 3.0752 1.828 1.8976 2.9021 4.4167 4.1699 6.6983l4.0547 7.2842c.7299 1.3396 1.3458 2.8787 2.3555 4.0332.7265.8306 1.6382 1.4733 2.7773 1.499.8311.016 1.6364-.2913 2.2451-.8574l.502-.4903c-.898.5449-1.8717.8127-2.9141.5576-1.2357-.3024-2.1027-1.2549-2.7314-2.3125-1.0107-1.7002-1.9271-3.4665-2.8701-5.205l-2.8887-5.2334-1.6143-2.9258c-.729-1.2988-1.4328-2.5325-2.4599-3.626-1.3556-1.4491-3.0925-2.4869-5.0108-2.9941-1.4442-.3673-2.9314-.3386-4.4092-.3946-.4793-.0181-.9684-.0877-1.4453-.0234-.5747.0776-1.3328-.0718-1.9287-.1475zm-16.0888 1.127c-.3934.0933-.6721.2278-.9014.584-.1502.2333-.256.5669-.1904.8437.1862.7854 1.0902 2.0543 1.539 2.7901l2.4785 4.0527c.4258.6973.8825 1.3907 1.2725 2.1074.0069-.0037.0136-.008.0205-.0117l1.9834 3.2275c.2367.3883.4713.778.71 1.1651l1.2422 2.0517c.3315.5497.6461 1.1289 1.0703 1.6143.3691.4225.7514.6711 1.2783.873.8483.3251 2.3356.3875 3.2783.4766.8612.0825 1.722.1706 2.582.2647l14.7354 1.5253c1.6501.1658 3.2994.3422 4.9473.5284.7866.0844 1.6246.1131 2.3994.2636.148.0027.3515.0339.4873-.0214-.1324-.2718-.47-.5143-.6719-.7491-.31-.3609-.5775-.734-.8164-1.1455-.4756-.8192-.9025-1.67-1.3574-2.501-.4207-.776-.8448-1.5503-1.2696-2.3242l.0059.001-.3301-.5937c-.4995-.9073-1.0027-1.8127-1.5078-2.7168l-2.3164-4.1729c-.4255-.8223-.8401-1.6801-1.3779-2.4307-1.6815-2.5586-3.3952-4.1695-6.4922-4.8086-1.1204-.2311-2.2702-.2262-3.4082-.2753-1.2807-.0553-2.5791-.1261-3.8604-.1241.003.0156.0056.0313.0088.0469.1021.5024.4618.9644.7451 1.3799.394.5756.7849 1.1544 1.1709 1.7353.9318 1.3982 1.6697 2.7394.6348 4.3428-.386.5976-1.039.9597-1.7256 1.1016-1.0557.2182-2.0697-.1814-2.9414-.7608-.3942-.2621-.7316-.5813-1.0322-.9463-.7485-.9089-1.3577-1.9907-2.0088-2.9746l-1.1182-1.6962c-.2663-.3999-.5591-.795-.7881-1.2178-.1997-.3692-.3269-.7264-.4228-1.1338-.6301-.142-1.2675-.094-1.9082-.1279l-4.5957-.2002c-.5133-.0203-1.0377-.0079-1.5488-.043zm47.8574-3.3682c-.1352.5071-.3082.9897-.4785 1.4854 1.0604.104 2.1601.2291 2.8886 1.1064.5088.6131.6693 1.5233.5938 2.2998-.1239 1.2723-.7278 2.5204-1.1904 3.7032l-1.3028 3.3437-2.1455 5.5752c-.4732 1.2139-.9172 2.4804-1.5322 3.6309-.4519.8453-1.1455 1.6694-1.8867 2.2705-.3206.2599-1.0878.7672-1.4912.7949.0118.0746-.0056.0693.0527.1055.3371.2087 1.242.1161 1.6103.0087 1.4866-.5098 2.6305-1.7096 3.3145-3.0996.5379-1.0928.9408-2.2905 1.3857-3.4248l2.5899-6.6513 1.7187-4.3633c.3541-.8871.8121-1.8297 1.0254-2.7578.1218-.5302.0441-1.1292-.1347-1.6367-.2861-.8118-.8703-1.511-1.6563-1.876-.769-.357-1.6655-.3782-2.498-.4278-.2878-.0171-.5816-.0205-.8633-.0869zm-17.9209 1.9707c-.9839.1312-2.1083.5867-2.75 1.3741 1.1616.7778 2.1777 1.6603 3.041 2.7666 1.0116 1.2966 1.696 2.786 2.502 4.2089 1.7498 3.1057 3.4736 6.227 5.1699 9.3623.6412 1.1713 1.5782 3.1884 2.5859 4.0225 1.6622-.4334 2.5746-1.2695 3.4414-2.748.3782-.6451.652-1.355.9268-2.0489.5079-1.2823.9621-2.6175 1.5234-3.8759l2.6592-6.8858c.3551-.9409.8334-1.907 1.0371-2.8906.1161-.5609.1428-1.1354-.0937-1.6709-.2378-.538-.6484-.8972-1.1915-1.1055-.5752-.2206-1.1589-.214-1.7656-.2041-1.3641 2.8488-4.6804 5.9743-7.667 7.0186-1.4305.5-3.2551.8106-4.6806.125-.2767-.1337-.5398-.2952-.7842-.4815-.5233-.3935-1.0023-.8714-1.4922-1.3066-.4823-.4284-1.0362-.8255-1.4395-1.332-.3077-.3866-.5334-.8388-.6933-1.3047-.1298-.3743-.2162-.7622-.2569-1.1563-.0285-.2915.0347-1.7202-.0722-1.8672zm-19.2647-.5215c-.537.0673-.9725.257-1.3183.6885-.3633.4533-.5126 1.0685-.4278 1.6416.0459.3097.2022.6347.3516.9073.5052.9213 1.1657 1.7952 1.7412 2.6767.5592.8568 1.0811 1.7939 1.7051 2.6016.2857.3697.5885.7056.9736.9726.7336.5087 1.6164.9578 2.5362.7823.1287-.0246.2553-.0656.3798-.1055.5235-.2509.883-.5684 1.0811-1.1318.2295-.6532.1603-1.2313-.1426-1.8428-.4476-.9038-1.1067-1.7586-1.6767-2.5918-.7771-1.1358-1.5108-2.1947-1.0372-3.6309.0931-.2821.2301-.5246.3809-.7783-.6013-.0724-1.2172-.0775-1.8223-.1025-.9092-.0377-1.8141-.0762-2.7246-.087zm23.1231 6.4424c.4684.4017.9243.664 1.4824.918.0096.0044.0177.0125.0264.0186l.0547.0117c.3511.0776.6673.2022 1.0351.2304.1062.0082.2151.0099.3262.0088l-1.2207-1.1757c-.1639.0171-.3257.03-.4854.0312-.4069.0031-.8123-.0355-1.2187-.043zm4.4658-.8369c-.6952.3321-1.4271.6027-2.1426.752l1.2666 1.2187c.7209-.1027 1.4903-.344 2.2031-.6435zm2.0439-1.208c-.4672.3338-1.0023.6698-1.5732.9717l1.3457 1.3457c.4109-.1943.7925-.4016 1.1211-.6055.1681-.1037.3324-.2127.4951-.3232zm3.6495-13.1836c-.8472-.6276-2.0552-.8883-3.0957-.7334-3.2759.5107-6.129 2.6604-8.0567 5.2998-1.3267 1.8165-2.3645 4.4448-1.999 6.7276.1638 1.0229.602 1.9162 1.458 2.5302.9076.6509 1.9854.7749 3.0713.6856 3.0563-.4541 5.9236-2.6417 7.7402-5.0772 1.4119-1.8927 2.6804-4.4469 2.3252-6.8603-.1541-1.046-.5833-1.9351-1.4433-2.5723zm-1.8692 11.668c-.4363.4259-.8937.8392-1.375 1.2139l1.3985 1.3984c.4961-.3646.9644-.7611 1.4033-1.1856zm1.6113-1.8018c-.3995.5203-.8247 1.0065-1.2568 1.4492l1.4258 1.4249c.4718-.4911.9055-1.0159 1.2978-1.5704zm1.1153-1.664c-.2502.4346-.5243.8568-.8154 1.2617l1.4501 1.2881c.2761-.4225.5298-.8599.7579-1.3116zm-15.3653-1.0684c-1.6141.2863-2.8343.7574-3.8183 2.1465-.0885.1249-.1434.2359-.1807.3838.0552.1744.3443.2962.5049.3799.1648.0858.3952.2447.5732.2802.8306-.9847 1.8723-1.5572 3.17-1.6689.1349-.0109.2708-.0168.4062-.0186.2026-.4793.3097-1.004.461-1.5019-.3617-.0122-.7581-.0495-1.1163-.001zm-27.5449 2.084c-.5434.1064-1.0224.3028-1.4101.71 1.5716.0843 3.145.1421 4.7187.1738.5302.014 1.0666.0823 1.5957.0732.4402.0003.8823.0092 1.3213-.0273.0291-.2377.0499-.4832.0967-.7178-.8394-.1019-1.7171-.0678-2.5635-.0986-1.2507-.0455-2.5072-.1452-3.7588-.1133zm43.8145-2.9492c-.1805.5036-.4028 1.0004-.6572 1.4843l1.371 1.2178c.2451-.5354.4569-1.0879.6319-1.6553zm.4922-2.3086c-.0059.1341-.0141.2692-.0303.4053-.0555.4667-.1585.9337-.2969 1.3974l1.3281 1.0342c.0464-.1747.0913-.3502.1309-.5274.1047-.4583.1464-.9217.1221-1.3779zm-.0401-1.8614c.0019.4194.0311.8286.043 1.2393l1.1602.8623c-.1038-.4875-.2906-.9593-.5713-1.3984-.1581-.2472-.3879-.5372-.6319-.7032z"/></g></svg>