<svg width="126" height="92" viewBox="0 0 126 92" fill="none" xmlns="http://www.w3.org/2000/svg">
<rect width="126" height="92" fill="#F5F5F5"/>
<rect width="6814" height="3901" transform="translate(-1252 -1957)" fill="#D7D7D7"/>
<rect x="-216" width="342" height="92" rx="8" fill="#F5F1ED"/>
<path d="M90.9476 39.8712C91.4511 39.6048 91.9015 39.3665 92.384 39.1122C92.3609 39.082 92.3348 39.0257 92.2907 38.9936C91.1482 38.1441 91.0389 36.8906 91.9958 35.8029C92.9637 34.7042 95.064 34.0869 96.5575 35.058C96.4623 34.8268 96.3961 34.672 96.3329 34.5152C96.047 33.8135 96.1654 33.1621 96.6197 32.5801C97.5215 31.425 99.5636 30.833 100.955 31.3024C102.086 31.6844 102.364 32.5328 101.648 33.4798C101.399 33.8085 101.095 34.095 100.799 34.4197C101.156 34.4197 101.497 34.4026 101.835 34.4227C103.451 34.5172 104.159 35.7707 103.415 37.2042C103.047 37.9139 102.483 38.4196 101.779 38.7744C101.516 38.9071 101.243 39.0237 100.961 39.1544C102.818 40.3265 102.659 42.8015 100.664 44.0279C100.311 44.245 99.9237 44.4079 99.4824 44.631C100.604 45.0271 101.2 45.8253 101.37 46.9853C101.714 46.7622 102.003 46.53 102.329 46.3761C102.899 46.1067 103.476 45.8363 104.078 45.6554C104.986 45.381 105.907 45.1196 106.841 44.9638C108.649 44.6612 110.382 45.1417 112.106 45.6142C112.299 45.6664 112.482 45.773 112.676 45.7961C114.386 45.9952 115.816 46.8878 117.293 47.6588C117.664 47.8519 117.976 48.1092 117.77 48.6138C117.588 49.0561 117.273 49.1989 116.708 49.1145C116.165 49.033 115.618 48.9607 115.07 48.9144C114.613 48.8752 114.13 48.7777 113.764 49.2009C113.735 49.2341 113.674 49.2421 113.626 49.2552C112.491 49.5588 111.351 49.8463 110.222 50.168C109.246 50.4454 108.271 50.7299 107.313 51.0636C105.375 51.7402 103.449 52.4539 101.518 53.1515C101.381 53.2008 101.244 53.248 101.012 53.3285C101.329 53.438 101.544 53.5305 101.768 53.5858C102.641 53.8029 103.413 54.2141 104.143 54.7318C104.795 55.1932 105.202 56.3161 104.858 57.0328C104.352 58.0873 103.848 59.1529 103.218 60.134C102.225 61.6781 102.196 63.0714 103.302 64.6104C104.317 66.0238 105.023 67.6422 105.294 69.3874C105.626 71.5255 105.608 73.6808 104.859 75.7285C104.391 77.0062 103.461 77.9994 102.43 78.9242C100.842 80.3466 99.0049 80.8995 96.9367 80.987C94.6498 81.0835 92.4381 80.7356 90.2886 79.9908C88.427 79.3454 86.9245 78.2115 85.7409 76.6111C85.0248 75.642 84.5433 74.5724 84.3307 73.4325C84.1461 72.4433 84.2544 71.3999 84.2334 70.3806C84.2304 70.2489 84.2334 70.1162 84.2334 69.9433C84.0187 69.895 83.8101 69.8468 83.6015 69.8025C76.2282 68.2534 68.852 66.7144 61.4838 65.1412C60.6372 64.9602 59.8699 65.29 59.0595 65.301C58.9552 65.302 58.8238 65.4759 58.7565 65.5986C58.0434 66.8923 57.0163 67.8704 55.7715 68.6415C55.5649 68.7701 55.3573 68.9481 55.2349 69.1531C54.4165 70.5323 53.0834 71.3195 51.8116 72.1759C50.7053 72.9208 49.4886 73.3621 48.1455 73.338C47.4986 73.3259 46.8336 73.2877 46.2137 73.1239C45.6681 72.9791 45.1585 72.9359 44.5999 72.9952C41.8155 73.2928 39.5988 72.1508 37.7352 70.1825C37.2888 69.711 36.8615 69.2627 36.2587 68.9471C33.6328 67.5699 32.0651 65.3543 31.3379 62.4994C31.2556 62.1767 31.0701 61.848 30.8454 61.6017C29.6096 60.2456 28.7992 58.6784 28.4271 56.884C28.1833 55.7069 28.1884 54.5287 28.4251 53.3486C28.4612 53.1676 28.4652 52.9394 28.385 52.7836C27.5043 51.0787 27.0569 49.2914 27.2886 47.3633C27.2987 47.2809 27.2997 47.1964 27.2987 47.113C27.2987 47.0818 27.2786 47.0507 27.2535 46.9763C26.5564 47.2457 25.8533 47.496 25.1713 47.7976C25.0409 47.8549 24.9356 48.1052 24.9245 48.2731C24.8403 49.5628 24.5123 50.7802 23.8723 51.904C23.2274 53.0349 22.3568 53.9346 21.1511 54.4684C20.448 54.779 19.7369 55.0716 19.0327 55.3792C16.5442 56.4649 14.2584 55.9502 12.2433 54.3146C9.13691 51.7924 7.86708 48.4319 8.22415 44.4853C8.41473 42.3762 9.29539 40.5497 11.0406 39.257C11.7388 38.7403 12.5352 38.3673 13.4088 38.2356C14.2654 38.1059 14.6776 37.7913 14.7769 36.774C14.9715 34.7926 15.8592 33.0737 17.458 31.7839C18.3316 31.0792 19.3537 30.7405 20.4169 30.5133C21.4069 30.3012 22.416 30.1775 23.411 29.9815C23.5634 29.9513 23.7359 29.7694 23.8051 29.6146C24.2144 28.7058 24.749 27.8926 25.4541 27.1839C26.4722 26.1595 27.728 25.6227 29.1111 25.3463C29.9928 25.1704 30.8785 24.9944 31.7702 24.9C32.7311 24.7974 33.6559 25.0367 34.5556 25.3845C34.704 25.4418 34.9718 25.4116 35.0822 25.3101C36.9177 23.6112 39.2226 23.2513 41.5657 23.0483C42.1846 22.995 42.5898 22.8513 42.9348 22.2863C45.2187 18.5448 48.3281 15.6597 52.2028 13.6331C54.8628 12.2418 57.7024 11.4024 60.7004 11.121C66.6734 10.56 72.171 11.9573 77.2232 15.1561C82.457 18.4694 86.2013 23.0624 88.6206 28.736C90.0449 32.0744 90.7922 35.5858 90.9025 39.2238C90.9085 39.4329 90.9316 39.641 90.9486 39.8722L90.9476 39.8712ZM87.3618 63.9228C87.0158 64.4214 86.6858 64.8778 86.3778 65.3473C86.104 65.7644 85.751 66.1665 85.6135 66.629C85.098 68.365 84.7901 70.1282 84.8502 71.9668C84.9014 73.531 85.3217 74.9052 86.2184 76.1748C87.3187 77.7319 88.7701 78.7995 90.5574 79.4087C92.6478 80.1214 94.7922 80.4532 97.0099 80.3386C98.8264 80.2451 100.507 79.85 101.863 78.5341C102.186 78.2205 102.559 77.9551 102.869 77.6294C103.59 76.8725 104.107 75.9989 104.411 74.9826C104.876 73.4285 104.93 71.8492 104.734 70.2659C104.629 69.4135 104.471 68.5339 104.139 67.7518C103.607 66.4963 102.924 65.303 102.276 64.0987C101.861 63.3277 101.53 62.5517 101.838 61.668C102.004 61.1966 102.205 60.7332 102.434 60.2888C103.017 59.1609 103.64 58.0521 104.217 56.9212C104.437 56.489 104.265 55.6295 103.96 55.3782C102.927 54.5287 101.674 54.199 100.37 53.8231C100.708 55.2033 99.5997 55.7561 98.8675 56.6006C100.477 56.5634 101.995 56.5774 103.348 55.7059C103.468 55.6285 103.694 55.7129 103.871 55.722C103.798 55.8959 103.775 56.1361 103.646 56.2316C103.118 56.6187 102.544 56.9192 101.867 56.9685C100.72 57.0519 99.5767 57.1967 98.4292 57.2188C97.7812 57.2319 97.3399 57.443 97.037 57.9928C96.9317 58.1828 96.8314 58.3758 96.721 58.5628C96.1664 59.5027 95.4201 60.2406 94.3459 60.516C93.8895 60.6326 93.5705 60.8266 93.2957 61.1915C92.7751 61.8832 92.054 62.0902 91.2124 62.0078C91.059 61.9927 90.8303 62.0933 90.738 62.2169C90.2184 62.9105 89.735 63.6313 89.2274 64.335C88.7981 64.9291 88.2645 64.9462 87.769 64.3953C87.6477 64.2606 87.5323 64.1208 87.3608 63.9218L87.3618 63.9228ZM82.8773 20.8015C82.6777 21.7425 82.4761 22.6462 82.3056 23.5559C82.2835 23.6715 82.3898 23.8575 82.4921 23.9409C82.8151 24.2033 83.1872 24.4064 83.5012 24.6778C84.8573 25.8519 85.6406 27.3457 85.9425 29.1099C85.9756 29.303 86.081 29.5332 86.2284 29.6488C88.6116 31.5145 89.5655 34.3734 88.7811 37.3078C88.7299 37.4968 88.757 37.738 88.8272 37.925C89.8483 40.6231 89.4601 43.0377 87.43 45.1447C87.2776 45.3025 87.1482 45.5307 87.1091 45.7438C86.6356 48.3434 84.8563 49.8312 82.6245 50.8113C81.6175 51.2536 80.5894 51.6276 79.6967 52.276C78.9294 52.8339 78.2062 53.4541 77.4489 54.0261C76.9715 54.387 76.3807 54.6313 75.9875 55.0625C74.4218 56.7835 72.6414 58.0692 70.2422 58.2864C70.0978 58.2994 69.9002 58.4392 69.84 58.5709C68.866 60.702 67.0305 61.8902 65.0435 62.8452C64.2351 63.2342 63.3725 63.5026 62.6463 64.0575C62.4216 64.2294 62.1739 64.3702 61.8509 64.5813C69.4107 66.1696 76.8411 67.7297 84.2966 69.2959C84.5243 68.357 84.7339 67.4653 84.9586 66.5767C85.0107 66.3696 85.0749 66.1505 85.1923 65.9765C85.7239 65.1854 86.2836 64.4144 86.8112 63.6212C86.8864 63.5076 86.8944 63.2785 86.8312 63.1558C86.3618 62.2561 85.8723 61.3665 85.3718 60.4838C85.2795 60.322 85.1341 60.1491 84.9706 60.0767C84.0849 59.6857 83.5884 59.0262 83.4249 58.0722C83.3768 57.7928 83.2434 57.4922 83.0578 57.2801C82.2765 56.3864 82.114 55.1138 82.6616 54.0543C82.9515 53.4923 83.1782 52.8972 83.4631 52.3323C83.6346 51.9925 83.7971 51.5984 84.0779 51.3712C84.9515 50.6676 85.9576 50.2222 87.1 50.1891C87.8944 50.1659 88.6898 50.185 89.6226 50.185C89.5304 49.7528 89.5093 49.3547 89.3618 49.0109C88.8985 47.9303 88.8904 46.8597 89.5494 45.8976C90.1843 44.9708 90.0529 43.9776 90.0559 42.9734C90.0579 42.3803 90.09 41.7852 90.1322 41.1931C90.1532 40.8965 90.2616 40.605 90.2686 40.3095C90.3157 38.2256 90.0941 36.1608 89.6537 34.1302C88.6768 29.6256 86.7299 25.5695 83.8833 21.9495C83.5563 21.5344 83.1882 21.1514 82.8803 20.8015H82.8773ZM57.2881 62.5979C57.242 62.1576 57.2259 61.7374 57.1507 61.3273C56.7625 59.2122 55.8367 57.3635 54.2981 55.8577C52.3231 53.9246 50.0082 52.8419 47.1847 53.3194C44.9329 53.7004 43.3822 55.0495 42.5106 57.1303C41.7914 58.8483 41.7783 60.6326 42.2137 62.4451C43.0813 66.058 46.3381 69.507 50.275 69.8146C51.9631 69.9463 53.4927 69.5351 54.8066 68.4575C56.6582 66.9386 57.2901 64.8899 57.2881 62.5979ZM75.7498 15.0224C63.3444 7.87703 49.1416 12.7193 43.5226 22.6522C44.7603 22.3969 45.972 22.0571 47.2398 22.3014C47.3411 22.3205 47.4916 22.232 47.5788 22.1496C48.5909 21.1986 49.7815 20.5965 51.1326 20.306C52.3231 20.0506 53.5097 19.7671 54.7444 19.9994C54.8849 20.0255 55.0614 19.9501 55.1998 19.8797C57.232 18.8453 59.3363 18.3045 61.6192 18.8936C61.7566 18.9288 61.9512 18.8875 62.0725 18.8091C62.9602 18.2432 63.9382 17.9195 64.9613 17.7385C66.2201 17.5154 67.4829 17.2992 68.7507 17.1404C69.4869 17.0479 70.2392 17.0409 70.9824 17.064C71.2893 17.0731 71.4899 17.0248 71.7347 16.8298C72.2011 16.4579 72.6926 16.0809 73.2352 15.8507C74.0376 15.5109 74.8952 15.2968 75.7498 15.0224ZM8.76077 46.0545C8.72466 47.0919 9.08475 48.7837 9.87313 50.364C11.0025 52.6278 12.6194 54.39 15.144 55.1037C16.6616 55.533 18.0959 55.2656 19.3828 54.3719C20.9866 53.2571 21.6908 51.6004 21.9505 49.7367C22.2484 47.6036 21.8603 45.5569 20.8823 43.6579C19.6998 41.3609 18.0077 39.6178 15.3868 38.9775C13.6405 38.5513 11.4208 39.3535 10.3345 40.793C9.31845 42.139 8.86108 43.6569 8.76178 46.0555L8.76077 46.0545ZM88.429 64.2113C88.5755 64.0837 88.6657 64.0304 88.7209 63.952C89.2415 63.2181 89.759 62.4813 90.2706 61.7414C90.4602 61.467 90.6618 61.2207 91.0399 61.3172C91.9436 61.5494 92.5785 61.1905 93.0981 60.4658C93.2476 60.2567 93.5264 60.0657 93.7762 60.0164C94.9758 59.7792 95.7381 59.0403 96.3098 58.0099C96.5365 57.6008 96.8394 57.2087 97.1864 56.8991C97.5937 56.5352 98.1203 56.305 98.5355 55.9482C98.9598 55.5832 99.3359 55.154 99.688 54.7167C99.9137 54.4363 99.8605 54.0975 99.5706 53.8703C98.7993 53.2651 97.9477 52.8339 96.9698 52.6499C96.048 52.477 95.1032 52.3423 94.2295 52.0216C92.7912 51.4929 91.3328 51.4275 89.8403 51.5341C89.5574 51.5542 89.2726 51.6065 88.9927 51.5884C88.8804 51.5813 88.7079 51.4366 88.6918 51.334C88.6768 51.2355 88.8082 51.0858 88.9115 51.0043C88.9907 50.942 89.1261 50.952 89.2365 50.9299C88.0158 50.7399 86.7981 50.6887 85.6386 51.1652C85.0438 51.4094 84.446 51.705 84.1481 52.3534C83.8071 53.0952 83.4269 53.821 83.119 54.577C82.8141 55.3269 82.8923 56.0959 83.4239 56.7031C83.8101 57.1444 83.9525 57.6309 84.1231 58.1587C84.2625 58.5889 84.5463 59.1499 84.9094 59.2946C85.752 59.6304 85.9837 60.3089 86.2836 61.0196C86.7831 62.2028 87.6286 63.1558 88.427 64.2113H88.429ZM38.3269 39.9164C38.4303 39.9797 38.4934 40.035 38.5677 40.0622C40.4834 40.7598 42.3551 40.6553 44.0973 39.5917C45.8958 38.493 46.9209 36.7911 47.284 34.7544C47.8617 31.5185 47.0502 28.6325 44.7112 26.2832C42.7573 24.3199 40.4102 23.5821 37.7031 24.4355C36.8836 24.6939 36.1283 25.1261 35.5506 25.8157C40.7131 29.0587 41.3511 36.204 38.3269 39.9164ZM31.1373 42.3923C32.8685 42.4145 34.2908 41.8284 35.4222 40.6482C37.029 38.9725 37.6198 36.8986 37.5125 34.6157C37.3941 32.0935 36.4814 29.8991 34.691 28.1007C32.6388 26.0409 29.5284 25.1804 26.8373 26.8863C25.6668 27.6282 24.8433 28.6837 24.3478 30.0458C27.1211 30.6168 28.9968 32.3257 30.2586 34.7122C31.5204 37.0997 31.8554 39.652 31.1373 42.3923ZM47.7233 25.8177C47.7122 25.8831 47.7002 25.9484 47.6892 26.0148C49.0493 27.7911 49.8637 29.7694 49.9099 32.0242C49.9701 34.9977 49.0001 37.4958 46.5217 39.2791C46.1756 39.5284 45.7894 39.7204 45.296 40.0129C46.0482 40.4592 46.7062 40.9036 47.4103 41.2584C49.5307 42.327 51.6591 42.2184 53.6642 41.0141C56.0293 39.5937 57.0243 37.3229 57.1216 34.6539C57.1968 32.5931 56.597 30.6922 55.3743 29.0145C54.0092 27.1427 52.2048 25.9655 49.8848 25.7122C49.1767 25.6348 48.4445 25.7765 47.7233 25.8188V25.8177ZM24.9787 47.11C26.6838 46.348 27.6698 45.0291 28.2435 43.3795C28.8945 41.5067 28.8835 39.5997 28.3338 37.7028C27.5324 34.9334 25.9857 32.752 23.2665 31.6C21.774 30.9677 20.2424 30.9868 18.7569 31.7226C17.1731 32.5067 16.2504 33.8477 15.7057 35.4641C15.471 36.1628 15.3918 36.9137 15.2293 37.7069C15.6626 37.6385 15.9555 37.5601 16.2504 37.55C18.5192 37.4716 20.3618 38.4115 21.9054 40.0018C23.3638 41.5037 24.2756 43.3051 24.7008 45.3518C24.8152 45.9037 24.8794 46.4656 24.9797 47.11H24.9787ZM51.4946 42.6557C52.3332 43.9334 53.4776 44.9155 54.8959 45.5961C56.4857 46.3591 58.1517 46.547 59.8198 46.0374C63.0204 45.0603 64.7356 42.2456 64.8088 39.0851C64.8579 36.963 64.195 35.061 62.9071 33.3963C61.897 32.0905 60.6031 31.1426 58.9501 30.6148C58.9943 30.836 59.0364 31.0089 59.0635 31.1848C59.1828 31.9759 59.3644 32.765 59.4045 33.5602C59.566 36.8192 57.7626 40.2592 54.4546 41.4685C53.4756 41.8264 52.5187 42.2436 51.4957 42.6557H51.4946ZM54.8116 46.2756C54.8748 46.4847 54.9009 46.5913 54.94 46.6938C55.4004 47.9122 56.0564 49.0079 56.9842 49.9267C58.8248 51.7492 61.0033 52.6369 63.6112 52.2549C66.3234 51.8578 68.6203 49.5427 69.0957 46.8386C69.4458 44.8492 69.1539 42.9724 68.2321 41.1991C67.9011 40.5618 67.4387 39.9918 67.0365 39.3907C66.9914 39.4067 66.9462 39.4228 66.9011 39.4399C66.4437 42.2426 64.9723 44.2671 62.4597 45.6051C60.0113 46.9089 57.5409 47.4286 54.8116 46.2756ZM69.9664 49.0592C68.5992 50.751 66.9011 51.8477 64.9613 52.5494C62.4487 53.4591 60.0886 52.9766 57.916 51.515C57.2109 51.0405 56.601 50.4223 55.928 49.8533C55.8839 51.1008 56.1346 52.281 56.6773 53.3888C58.1387 56.3683 60.4477 58.1698 63.8288 58.3165C65.8901 58.406 67.6363 57.5777 68.9021 55.9542C70.505 53.8984 70.6895 51.5612 69.9654 49.0592H69.9664ZM68.4227 25.3222C68.3986 25.3664 68.3746 25.4106 68.3505 25.4559C68.3705 25.5182 68.3896 25.5805 68.4107 25.6428C69.4959 28.738 69.1208 31.5748 66.856 34.0317C66.4367 34.487 66.195 34.8509 66.5511 35.431C66.6423 35.5797 66.6584 35.7828 66.6794 35.9648C66.7316 36.4131 66.9793 36.6895 67.3314 36.969C68.0205 37.5169 68.6835 38.11 69.2803 38.7553C69.5391 39.0358 69.6995 39.0921 70.0195 38.9393C72.2282 37.8798 73.4629 36.1145 73.836 33.712C74.3115 30.65 72.6976 27.3859 69.9724 25.9555C69.4809 25.6971 68.9403 25.5313 68.4227 25.3232V25.3222ZM39.999 49.1325C39.9077 48.7395 39.8535 48.463 39.7773 48.1926C39.0722 45.6735 37.6148 43.7786 35.1995 42.6879C34.6819 42.4537 34.1834 42.4346 33.6087 42.6245C32.9076 42.8558 32.1503 42.9412 31.4091 43.0166C31.0931 43.0488 30.8895 43.0819 30.7521 43.3996C30.2295 44.6049 29.4431 45.5961 28.3739 46.3772C28.1543 46.537 27.9807 46.8888 27.9587 47.1663C27.8995 47.9122 27.8754 48.6711 27.9476 49.414C28.0369 50.3368 28.2957 51.2285 28.7902 52.087C29.061 51.6326 29.2746 51.2184 29.5394 50.8405C30.7942 49.0572 32.7762 48.5264 34.69 47.8991C35.0761 47.7724 35.5124 47.7724 35.9267 47.7644C37.3971 47.7342 38.685 48.2932 39.999 49.1336V49.1325ZM75.809 32.3851C75.5522 36.1749 73.4107 38.4528 69.9403 39.645C70.85 41.2363 71.3455 42.8638 71.3144 44.6119C73.8481 45.1136 76.8601 43.3805 77.9073 41.0091C79.4018 37.6244 77.9133 33.905 75.809 32.3861V32.3851ZM30.9687 60.8286C31.066 60.7522 31.0881 60.7442 31.0891 60.7331C31.0951 60.6668 31.0981 60.6005 31.0991 60.5341C31.1393 58.1296 31.8775 56.0487 33.9818 54.6896C34.7441 54.197 35.6017 53.8401 36.4463 53.4943C37.025 53.2571 37.6479 53.0862 38.2668 52.9977C38.8435 52.9153 39.4413 52.9796 40.0913 52.9796C40.012 52.8329 39.9719 52.7444 39.9197 52.665C38.8445 51.0315 37.4262 49.8614 35.5135 49.3256C32.9347 48.6028 30.2175 49.99 29.3328 52.5253C28.5174 54.8615 28.8343 57.1072 29.9537 59.2625C30.2385 59.8103 30.6267 60.3039 30.9708 60.8286H30.9687ZM58.5208 21.8701C58.586 21.9516 58.6392 22.031 58.7044 22.0993C60.5871 24.0726 61.3494 26.4199 61.0144 29.121C60.9722 29.4578 61.0755 29.5985 61.3724 29.7111C62.4156 30.1062 63.3414 30.7003 64.1087 31.5105C64.6624 32.0955 65.1639 32.7299 65.6875 33.3411C67.4468 31.0762 67.6233 27.1477 65.2953 24.2234C63.5299 22.0058 60.6613 21.1192 58.5208 21.8701ZM41.4283 58.3618C39.9468 59.8495 39.4253 61.5625 39.4453 63.4664C39.4654 65.3573 40.0441 67.0883 41.1073 68.6475C42.651 70.9103 44.7032 72.4061 47.4876 72.6826C49.5257 72.8846 51.2128 72.1277 52.5609 70.5987C52.6331 70.5173 52.6702 70.4037 52.7354 70.284C46.5768 71.7396 40.2548 65.3543 41.4273 58.3628L41.4283 58.3618ZM36.0751 68.1951C36.1093 68.1529 36.1434 68.1097 36.1775 68.0675C36.1494 68.0072 36.1213 67.9468 36.0922 67.8865C34.9728 65.5362 34.5766 63.1196 35.4814 60.6045C36.0551 59.0101 37.1353 57.841 38.6299 57.068C39.4353 56.6508 40.2678 56.2869 41.0983 55.8939C40.2267 55.0012 38.0451 54.2814 36.7241 54.4212C33.9397 54.7157 32.2747 56.5664 31.8634 59.1157C31.374 62.1526 32.4071 64.7471 34.5074 66.9285C34.9698 67.409 35.5496 67.7759 36.0751 68.1961V68.1951ZM79.5051 41.0543C77.4579 43.9052 74.7999 45.4222 71.2041 45.3659C71.2282 45.7388 71.1529 46.149 71.2944 46.4626C71.7919 47.5684 72.2051 48.6872 72.3566 49.8985C72.3726 50.0242 72.5612 50.2092 72.6876 50.2253C73.2312 50.2966 73.7889 50.3901 74.3285 50.3399C77.0307 50.0875 78.9113 48.6963 79.812 46.1158C80.4028 44.4219 80.2494 42.7311 79.5051 41.0564V41.0543ZM44.0602 72.4765C44.0723 72.4192 44.0843 72.3619 44.0973 72.3046C43.7784 72.1005 43.4454 71.9166 43.1445 71.6894C40.9819 70.0548 39.5466 67.9358 39.015 65.2608C38.4854 62.5949 38.8906 60.137 40.8185 58.0813C41.0853 57.7968 41.3882 57.5455 41.7412 57.2168C41.4644 57.1957 41.2548 57.1555 41.0481 57.1665C38.2367 57.3163 36.0501 59.4173 35.708 62.232C35.4312 64.5109 35.9598 66.5807 37.2005 68.4826C38.3831 70.2951 39.9729 71.5969 42.0742 72.185C42.7142 72.3639 43.3972 72.385 44.0602 72.4785V72.4765ZM77.9073 31.7779C79.2152 33.0968 79.9585 34.6368 80.2484 36.396C82.5242 35.7426 84.2906 33.3853 84.3818 30.7606C84.4932 27.5548 82.1651 25.0216 80.3336 24.52C80.6476 25.87 80.5924 27.1849 80.1741 28.4857C79.7539 29.7955 78.9494 30.84 77.9073 31.7769V31.7779ZM72.0888 20.0235C72.1188 20.1381 72.1188 20.1753 72.1369 20.1994C73.4218 21.9837 73.8852 23.953 73.494 26.1254C73.4689 26.2671 73.5191 26.4732 73.6144 26.5767C74.507 27.5588 75.1269 28.6877 75.5031 29.9594C75.5392 30.083 75.6686 30.2006 75.7849 30.276C76.1059 30.4841 76.4599 30.645 76.7669 30.8701C77.0337 31.0662 77.2022 31.0159 77.3928 30.7807C77.9996 30.0318 78.4399 29.1934 78.6485 28.2565C79.3386 25.1583 78.1551 22.3717 75.4298 20.7643C74.4248 20.1713 73.3064 19.9109 72.0898 20.0235H72.0888ZM52.1757 46.0685C52.2008 46.0163 52.2249 45.965 52.2499 45.9127C51.9821 45.4744 51.7233 45.0311 51.4435 44.5999C50.3512 42.9171 48.6451 42.2436 46.8015 41.8535C45.968 41.6776 45.1545 41.949 44.3611 42.2436C43.8095 42.4486 43.5557 42.7673 43.5035 43.3765C43.4042 44.5305 42.9398 45.575 42.2678 46.5109C42.0803 46.7722 42.0241 46.9904 42.1093 47.2899C42.4092 48.3464 42.5396 49.4281 42.3521 50.5148C42.2327 51.2074 42.5998 51.6376 43.0442 52.1986C43.2448 49.8835 44.2157 48.0821 46.1806 47.0416C48.0272 46.0645 49.9761 45.2302 52.1757 46.0675V46.0685ZM85.9275 31.5969C85.6356 32.2674 85.4039 32.953 85.0549 33.5702C84.124 35.2199 82.6526 36.2151 80.9073 36.8524C80.7077 36.9258 80.3727 37.0444 80.3657 37.158C80.3316 37.7089 80.2122 38.3603 80.45 38.7986C80.9364 39.6993 81.444 40.5708 81.6877 41.5761C81.7138 41.6846 81.9044 41.8435 82.0016 41.8324C83.7931 41.6263 85.2815 40.8513 86.3538 39.3736C87.5584 37.7129 87.768 35.8672 87.2244 33.9301C86.9767 33.0475 86.5353 32.2453 85.9285 31.5949L85.9275 31.5969ZM48.2188 22.4763C48.7724 22.7718 49.3241 23.0131 49.8146 23.3438C50.3081 23.6776 50.7384 24.1038 51.2038 24.4808C51.275 24.5381 51.3823 24.5682 51.4766 24.5773C53.6682 24.7894 55.5007 25.7192 56.9561 27.3668C57.3734 27.8393 57.6843 28.4073 58.1086 28.8737C58.2591 29.0396 58.5961 29.0607 58.8538 29.0828C58.899 29.0868 59.0234 28.7672 59.0234 28.5973C59.0324 26.825 58.565 25.1925 57.4988 23.764C56.0805 21.8641 54.2289 20.7915 51.8046 20.9171C50.4274 20.9885 49.2228 21.4992 48.2198 22.4753L48.2188 22.4763ZM43.8586 54.1025C43.9348 54.0693 44.0181 54.0512 44.0783 54.004C45.1315 53.1867 46.3481 52.6831 47.5558 52.1584C47.7604 52.0689 47.956 51.9121 48.1024 51.7402C48.8206 50.9008 49.6802 50.2635 50.6992 49.8413C51.5037 49.5085 52.3071 49.1748 53.0975 48.8471C51.4405 47.1713 48.628 46.35 46.2127 47.7704C44.0091 49.0672 43.2869 51.9322 43.8576 54.1015L43.8586 54.1025ZM112.665 47.114C112.751 47.1502 112.835 47.1914 112.923 47.2206C113.144 47.2939 113.427 47.3342 113.333 47.6649C113.227 48.0368 112.944 47.8639 112.71 47.8207C112.137 47.7161 111.566 47.5553 110.988 47.5231C109.973 47.4668 108.951 47.4508 107.936 47.494C107.234 47.5241 106.537 47.682 105.838 47.7825C105.845 47.8307 105.851 47.879 105.858 47.9283C105.923 47.9232 105.989 47.9182 106.054 47.9122C107.749 47.7473 109.444 47.498 111.14 47.879C111.299 47.9142 111.536 48.1032 111.541 48.2288C111.555 48.5766 111.267 48.5384 111.031 48.4892C109.786 48.2298 108.535 48.2932 107.288 48.4299C105.061 48.6731 102.809 48.8501 101.01 50.4494C100.756 50.6756 100.521 50.5329 100.468 50.177C100.449 50.0524 100.401 49.9327 100.364 49.8C99.5767 50.17 99.2778 50.8184 98.9528 51.6065C99.2988 51.3612 99.5425 51.1873 99.7863 51.0154C99.9939 50.8686 100.242 50.6656 100.405 50.9953C100.459 51.1049 100.283 51.3984 100.138 51.5271C99.7331 51.8889 99.2908 52.2086 98.8555 52.5514C99.3199 53.0108 99.7361 53.2159 100.285 52.865C100.488 52.7344 100.759 52.7112 100.996 52.6298C102.779 52.0166 104.618 51.5271 106.33 50.756C108.555 49.7538 110.946 49.408 113.241 48.6973C113.541 48.6048 113.784 48.5264 113.639 48.1162C113.601 48.0077 113.701 47.8006 113.803 47.7151C113.855 47.6709 114.137 47.7654 114.164 47.8468C114.31 48.2992 114.669 48.2469 115.015 48.2771C115.579 48.3273 116.141 48.4037 116.704 48.462C116.84 48.4761 116.978 48.4641 117.115 48.4641C117.125 48.4108 117.136 48.3575 117.146 48.3052C115.722 47.6769 114.289 47.0849 112.665 47.114ZM71.7989 24.9814C71.9905 23.0694 70.7367 20.3813 68.4006 19.0936C66.6544 18.1316 63.9953 18.2 62.6433 19.2856C62.6994 19.3258 62.7506 19.366 62.8048 19.3992C64.5249 20.4437 65.6343 22.1496 67.1448 23.4202C67.206 23.4725 67.2522 23.5499 67.2873 23.6243C67.4829 24.0344 67.7848 24.1953 68.2502 24.142C68.5581 24.1068 68.8901 24.137 69.19 24.2174C70.0677 24.4516 70.9343 24.725 71.7969 24.9814H71.7989ZM58.5429 56.9102C58.5228 56.9966 58.5008 57.0348 58.5118 57.0569C59.24 58.602 59.6803 60.2144 59.6753 61.9374C59.6753 62.0551 59.8268 62.237 59.9471 62.2822C62.8399 63.3659 66.0646 62.5798 67.7065 59.6032C68.0415 58.9961 68.202 58.2924 68.4428 57.634C68.3906 57.5927 68.3384 57.5515 68.2863 57.5113C66.7958 58.5608 65.1709 59.0876 63.3464 58.9388C61.5259 58.79 59.9552 58.0642 58.5419 56.9092L58.5429 56.9102ZM72.2924 17.2218C73.0637 17.829 73.838 18.4432 74.6194 19.0484C74.7207 19.1268 74.8531 19.1811 74.9795 19.2092C76.9233 19.6435 78.4359 20.7151 79.4339 22.423C79.8211 23.0865 80.3396 23.1408 80.9455 23.192C81.6717 20.4588 80.9003 18.1718 77.9916 16.4307C76.3235 15.4325 73.508 15.8748 72.2924 17.2218ZM87.5925 39.5676C85.9857 41.1328 84.1752 42.2858 81.8492 42.5019C82.0237 44.0389 81.7078 45.4513 81.0578 46.8064C85.5393 47.4638 88.736 43.4368 87.5925 39.5676ZM21.0569 53.7959C21.1722 53.7446 21.2966 53.7074 21.3999 53.6381C23.0589 52.5444 23.9305 50.936 24.1893 49.026C24.6417 45.6916 23.6717 42.7713 21.3517 40.3356C20.2905 39.2208 18.9826 38.4789 17.447 38.2427C16.8722 38.1542 16.2724 38.2286 15.6836 38.2286C22.0057 39.9878 24.6647 49.1145 21.0559 53.7959H21.0569ZM72.5682 50.8666C72.184 52.2247 71.8199 53.5074 71.4458 54.8313C73.4128 55.2857 75.2824 54.9429 76.9083 53.5355C78.2142 52.4046 78.785 50.937 78.8963 49.0752C76.9113 50.6083 74.8411 51.329 72.5692 50.8666H72.5682ZM27.5063 46.1007C28.9125 45.3538 29.8323 44.1787 30.3569 42.705C31.0079 40.8754 31.039 39.0056 30.5154 37.1339C29.7481 34.3905 28.2315 32.2483 25.5634 31.0672C24.6728 30.6731 23.7279 30.5454 22.6356 30.6761C28.7491 32.4946 31.5004 41.2172 27.5063 46.0997V46.1007ZM96.6077 50.2866C96.6077 50.2805 96.6077 50.2735 96.6077 50.2675C97.0069 50.2403 97.4071 50.2232 97.8053 50.184C99.351 50.0322 100.393 49.1697 100.652 47.8046C100.809 46.9723 100.708 46.1741 99.9919 45.6242C99.2767 45.0754 98.4573 45.0713 97.6749 45.4644C97.3138 45.6463 96.9818 45.9399 96.719 46.2525C95.8153 47.3241 95.5776 48.6842 95.2045 49.98C95.1854 50.0473 95.392 50.2604 95.5074 50.2735C95.8705 50.3127 96.2396 50.2876 96.6067 50.2876L96.6077 50.2866ZM48.4585 52.5283C52.0202 52.8228 54.5629 54.5569 56.3302 57.451C58.1096 60.3652 58.4617 63.4453 57.0554 66.7375C58.9531 65.0095 59.899 61.2086 57.9341 57.3736C56.0765 53.7456 52.1536 51.5421 48.4585 52.5283ZM36.1624 40.8905C38.5336 39.3866 39.5035 37.1218 39.5185 34.4348C39.5336 31.7256 38.5707 29.3593 36.6017 27.4633C35.4773 26.3797 34.1202 25.7273 32.5626 25.5292C32.368 25.5041 32.1644 25.5483 31.9648 25.5604C35.035 26.8341 36.9077 29.1069 37.7642 32.2222C38.6248 35.3485 38.1945 38.2728 36.1624 40.8895V40.8905ZM94.4873 50.2705C94.4341 49.8161 94.4051 49.5065 94.3609 49.1989C94.2436 48.3746 94.1714 47.5382 93.9818 46.731C93.8263 46.0685 93.4592 45.4895 92.7671 45.2332C91.7761 44.8663 90.5244 45.385 89.9827 46.3691C89.421 47.3904 89.6196 48.7596 90.5163 49.3537C90.9998 49.6744 91.5926 49.8815 92.1643 50.0031C92.8995 50.1609 93.6638 50.182 94.4873 50.2695V50.2705ZM95.8193 44.1767C95.8524 44.239 95.8855 44.3013 95.9186 44.3636C97.037 44.235 98.1774 44.2028 99.2677 43.9515C100.562 43.6529 101.439 42.8176 101.641 41.4213C101.762 40.5799 101.339 39.9405 100.51 39.7405C99.6278 39.5264 98.8254 39.7264 98.1122 40.2833C96.8294 41.2835 96.4111 42.7804 95.8193 44.1777V44.1767ZM41.8786 23.7168C44.9008 24.8799 46.8005 27.0753 47.6822 30.1283C48.5678 33.1933 48.1265 36.0733 46.1425 38.687C48.31 37.5249 50.1065 33.7683 48.9078 29.692C47.8928 26.2359 44.9459 23.7077 41.8786 23.7168ZM95.1633 42.2948C95.1242 42.0134 95.0961 41.5087 94.9778 41.0252C94.7702 40.1737 94.2636 39.7566 93.4261 39.7143C92.4191 39.6621 91.5926 40.0411 91.0038 40.8644C90.1883 42.0053 90.5053 43.4257 91.7852 43.8248C92.7521 44.1264 93.8143 44.1324 94.8374 44.234C94.9326 44.243 95.1353 43.9987 95.1483 43.859C95.1884 43.4137 95.1633 42.9633 95.1633 42.2948ZM96.9748 38.9715C98.5355 38.8146 100.019 38.9775 101.345 38.2608C101.857 37.9843 102.327 37.5701 102.706 37.1248C103.035 36.7388 103.263 36.2151 102.981 35.6813C102.703 35.1545 102.175 35.048 101.645 35.059C101.233 35.0671 100.802 35.1043 100.414 35.2329C98.6318 35.822 97.8595 37.354 96.9738 38.9725L96.9748 38.9715ZM56.1547 39.7003C58.567 37.8104 59.7927 33.6607 57.7535 29.5452C56.585 27.1859 53.0885 24.8125 51.4194 25.3161C57.2089 27.2462 59.6593 34.6851 56.1547 39.7003ZM94.9417 38.9835C94.9477 38.9544 94.9537 38.9242 94.9597 38.8951C95.1593 38.9071 95.3589 38.9212 95.5585 38.9313C96.367 38.9695 96.4432 38.886 96.375 38.0899C96.363 37.9441 96.4181 37.7943 96.4261 37.6455C96.4502 37.1992 96.5585 36.7298 96.4562 36.3126C96.372 35.9658 96.1042 35.5606 95.8003 35.3898C94.6137 34.7223 92.4963 35.624 92.078 36.9177C91.8253 37.6988 92.0309 38.2547 92.8112 38.5191C93.4953 38.7503 94.2295 38.8358 94.9407 38.9855L94.9417 38.9835ZM58.574 29.8076C61.5831 30.7284 63.6102 32.5539 64.7366 35.3445C65.86 38.1291 65.6864 40.8493 64.1508 43.5534C66.216 41.752 66.8951 38.2135 65.8229 35.2691C64.4567 31.5175 61.0424 29.7081 58.574 29.8076ZM41.672 50.7611C41.7081 50.5741 41.7292 50.4977 41.7372 50.4203C41.9719 48.1846 41.341 46.1801 40.012 44.4119C39.0712 43.1604 37.8575 42.2235 36.2988 41.8465C36.032 41.7821 35.7261 41.8766 35.4382 41.8988C35.4372 41.953 35.4362 42.0083 35.4352 42.0626C35.5445 42.128 35.6489 42.2013 35.7622 42.2576C38.5707 43.6549 40.0792 46.0153 40.5938 49.025C40.7272 49.803 41.2096 50.174 41.672 50.7611ZM80.3416 50.6585C82.791 50.7922 85.1602 48.6752 85.418 46.722C84.6817 46.9501 83.9245 47.2839 83.1351 47.4005C82.3276 47.5201 81.4891 47.4266 80.6957 47.4266C80.5753 48.5234 80.461 49.5738 80.3416 50.6585ZM96.7632 33.6959C96.8484 33.9784 96.8825 34.2166 96.9899 34.4157C97.1604 34.7343 97.4051 35.0148 97.5706 35.3365C97.7411 35.6682 97.9347 35.6813 98.2045 35.4812C98.9558 34.9253 99.7221 34.3905 100.453 33.8095C100.761 33.5652 101.031 33.2516 101.254 32.9249C101.533 32.5137 101.421 32.2152 100.971 31.995C100.822 31.9226 100.66 31.8643 100.497 31.8382C99.2226 31.6351 98.1152 32.0041 97.2005 32.8977C96.9899 33.1038 96.9016 33.4355 96.7652 33.6959H96.7632ZM69.0486 49.1225C72.2352 45.2824 70.2943 39.4258 66.9844 37.5732C66.8971 38.117 66.9422 38.6015 67.4187 38.9685C67.5751 39.0891 67.7116 39.2449 67.8299 39.4047C69.4879 41.6384 70.2572 44.1073 69.7086 46.8888C69.5621 47.6347 69.2803 48.3535 69.0486 49.1235V49.1225ZM42.6861 54.012C41.5677 50.3157 37.8856 47.8147 35.039 48.5264C35.2848 48.5988 35.4894 48.6651 35.697 48.7194C36.7311 48.9858 37.6419 49.4844 38.4814 50.1428C39.4583 50.9078 40.2006 51.8608 40.8295 52.9163C40.9127 53.056 41.003 53.2259 41.1354 53.2943C41.6209 53.5446 42.1264 53.7577 42.6861 54.013V54.012ZM62.899 21.5665C65.1458 22.6773 66.6142 24.4034 67.3013 26.7436C67.9904 29.0939 67.7116 31.3557 66.3474 33.5893C68.2171 31.9186 68.9834 28.4224 67.6845 25.5192C66.6604 23.2302 64.3183 21.5474 62.9 21.5655L62.899 21.5665ZM36.8495 41.3026C38.6188 41.9701 39.9679 43.1292 41.0481 44.7738C41.3521 43.5675 41.3651 42.4808 41.1725 41.3931C41.1535 41.2835 40.9248 41.1609 40.7763 41.1318C40.0772 40.994 39.3129 41.0202 38.685 40.7357C37.9077 40.3848 37.4493 40.6955 36.9538 41.1619C36.9307 41.184 36.9147 41.2142 36.8495 41.3026ZM54.6612 20.6839C58.2079 22.415 59.7405 25.3332 59.6793 29.2155C59.906 29.2567 60.1096 29.2929 60.3092 29.3281C61.1678 25.3694 58.2621 21.0659 54.6612 20.6839ZM73.8531 36.1457C75.469 33.7462 75.5753 31.219 74.2984 28.6757C73.2794 26.6481 71.6143 25.3624 69.3525 24.9291C71.513 25.8469 73.0597 27.3759 73.9464 29.5593C74.8411 31.7648 74.7488 33.9573 73.8541 36.1447L73.8531 36.1457ZM61.5149 20.507C60.233 19.2796 56.9752 19.2987 56.0042 20.2808C56.4777 20.5392 56.9471 20.8267 57.4446 21.0519C57.6943 21.1644 58.0123 21.2439 58.2741 21.1956C59.3654 20.9946 60.4466 20.7392 61.5149 20.508V20.507ZM75.828 31.042L75.6786 31.1396C75.806 31.3195 75.9133 31.5195 76.0637 31.6764C76.49 32.1217 76.9895 32.5077 77.3627 32.9932C78.9364 35.0399 79.5152 37.3359 78.9494 39.8832C78.8682 40.2511 78.7328 40.607 78.5944 41.0644C80.5804 38.305 79.8492 33.1651 75.829 31.042H75.828ZM70.2271 57.6139C71.8841 57.5455 73.1419 56.8298 74.2723 55.5581C73.9835 55.5832 73.822 55.6164 73.6635 55.6074C72.8862 55.5611 72.0968 55.5702 71.3365 55.4274C70.84 55.3339 70.6073 55.542 70.51 55.8999C70.3636 56.4397 70.3204 57.0077 70.2261 57.6139H70.2271ZM54.3262 50.4866C52.7585 49.8201 50.0342 50.4163 49.1285 51.6577C49.1757 51.6728 49.2188 51.6949 49.2629 51.6979C50.2659 51.7703 51.269 51.8447 52.272 51.906C52.3894 51.9131 52.5358 51.8849 52.6261 51.8166C53.2048 51.3773 53.7705 50.9229 54.3262 50.4856V50.4866ZM70.3084 54.9439C72.1299 52.9495 72.0627 48.9777 70.7768 47.1834C70.6645 47.7091 70.3926 48.2027 70.507 48.5797C71.0005 50.2152 71.169 51.8477 70.7778 53.5175C70.6695 53.9789 70.4829 54.4212 70.3084 54.9439ZM42.8767 40.8814C42.5065 40.9518 42.1615 41.0182 41.8014 41.0865C42.002 42.5622 42.001 43.9505 41.5547 45.3206C41.4815 45.5438 41.6219 45.8363 41.663 46.0977C42.8616 44.5255 43.1395 42.7975 42.8767 40.8824V40.8814ZM48.7243 24.9432C47.6631 23.759 45.2388 22.9126 43.995 23.3428C44 23.3579 44.001 23.383 44.0111 23.3871C45.0883 23.8485 46.1034 24.4094 46.9489 25.2417C47.0051 25.297 47.1335 25.3181 47.2167 25.3C47.7142 25.1915 48.2077 25.0678 48.7253 24.9432H48.7243ZM101.233 49.3085C102.035 48.9938 102.756 48.7516 103.435 48.4228C103.699 48.2952 104.047 48.1162 104.016 47.6749C104.009 47.5764 104.175 47.4246 104.294 47.3643C105.183 46.913 106.074 46.4676 106.975 46.0424C107.358 45.8615 107.767 45.7348 108.165 45.584C108.141 45.5368 108.117 45.4895 108.094 45.4433C105.266 45.6845 103.178 47.2658 101.234 49.3095L101.233 49.3085ZM68.856 18.6191C68.9633 18.6955 69.0676 18.779 69.18 18.8483C70.4127 19.6133 71.2382 20.7241 71.845 22.0169C72.3164 23.0201 72.496 24.0837 72.493 25.1854C72.493 25.4538 72.495 25.7293 72.8701 25.7564C73.5472 22.6562 71.4047 19.2806 68.857 18.6201L68.856 18.6191ZM75.7257 20.126C79.1892 22.5215 80.2112 25.6237 78.9514 29.51C80.9725 26.5938 79.6786 21.5826 75.7257 20.126ZM37.688 53.7798C37.7833 53.7999 37.8776 53.823 37.9739 53.8381C39.2868 54.0412 40.4694 54.5488 41.5186 55.3641C42.2237 55.912 42.5186 55.8476 42.9469 54.9962C41.3641 53.8703 39.6509 53.3033 37.688 53.7798ZM80.3457 46.5812C81.6797 44.7054 81.4801 41.2896 80.0829 39.5756C79.8532 39.9043 79.808 40.222 79.9876 40.598C80.1872 41.0172 80.3627 41.4544 80.4911 41.9008C80.9374 43.4448 80.8863 44.9859 80.3457 46.5802V46.5812ZM95.4813 50.9571C95.372 51.5974 95.5074 51.8186 96.1032 51.9151C96.706 52.0126 97.3148 52.0749 97.9457 52.1563C98.1634 51.698 98.3841 51.2315 98.6077 50.7611C97.5174 50.8294 96.4954 50.8927 95.4813 50.9561V50.9571ZM49.9791 46.5028C50.1807 46.5591 50.3823 46.6184 50.5849 46.6707C51.7574 46.9763 52.7775 47.5825 53.612 48.4329C54.0865 48.9164 54.5739 48.8923 55.2409 48.8631C53.7886 47.2346 52.1155 46.351 49.9791 46.5018V46.5028ZM84.7369 32.7138C86.3678 29.3894 84.4631 25.1593 81.2163 24.0988C84.3798 26.1625 85.5544 28.9662 84.7369 32.7138ZM59.2159 64.6084C60.4105 64.5682 61.4106 64.1671 62.3283 63.4765C61.3965 63.2885 60.5078 63.1086 59.6001 62.9246C59.4777 63.4584 59.3533 64.0042 59.2159 64.6084ZM86.084 30.4087C86.0388 30.4319 85.9927 30.455 85.9475 30.4781C86.0579 30.657 86.1472 30.8541 86.2826 31.0119C87.0569 31.9116 87.6226 32.9168 87.9175 34.0769C88.1893 35.1455 88.2044 36.2161 87.9506 37.4274C88.9466 35.4732 88.3057 32.0724 86.084 30.4097V30.4087ZM106.576 46.8516C106.59 46.8969 106.603 46.9421 106.617 46.9873C107.541 46.8697 108.464 46.7551 109.387 46.6335C109.483 46.6214 109.654 46.5702 109.653 46.54C109.639 45.9931 110.187 46.1087 110.548 45.8132C109.049 45.8524 107.821 46.3802 106.576 46.8506V46.8516ZM69.182 17.8491C69.8109 18.2452 70.4147 18.583 70.9694 18.9891C71.5371 19.4053 71.7407 19.4515 72.4458 19.0775C71.496 18.3115 70.4338 17.8994 69.182 17.8491ZM46.7594 22.9518C46.9178 23.0262 47.0843 23.0875 47.2328 23.178C47.8537 23.5579 48.5347 23.8736 49.0653 24.3551C49.4956 24.7451 49.8427 24.7431 50.3402 24.523C49.306 23.5881 48.1355 23.0463 46.7584 22.9518H46.7594ZM55.3021 51.3682C55.1085 51.9101 54.9451 52.3383 54.8106 52.7746C54.7856 52.856 54.8498 53.0098 54.922 53.0691C55.3172 53.3908 55.7274 53.6944 56.2069 54.0603C55.8979 53.1395 55.6221 52.3202 55.3021 51.3682ZM54.0855 46.8687C54.0223 45.9117 53.4445 45.206 52.3723 44.817C52.8517 45.5971 52.923 46.6968 54.0855 46.8687ZM88.3909 42.3984C88.8393 41.1056 88.8353 39.8219 88.3097 38.5342C88.2124 38.6639 88.1121 38.8197 88.1442 38.9393C88.4491 40.0782 88.5875 41.2242 88.3909 42.3984ZM69.6193 56.6227C69.4468 56.7815 69.173 56.9122 69.1188 57.1042C68.9212 57.8149 68.7978 58.5457 68.6263 59.361C69.2432 58.5115 69.5892 57.6521 69.6183 56.6227H69.6193ZM54.1637 52.662C54.3362 52.1584 54.4837 51.7251 54.6321 51.2918C54.592 51.2637 54.5519 51.2365 54.5117 51.2084C54.0804 51.4969 53.6502 51.7864 53.1406 52.1282C53.5228 52.3282 53.7996 52.472 54.1637 52.663V52.662ZM81.5202 19.4615C81.9044 20.7453 81.9455 21.9787 81.6556 23.2202C82.2765 22.232 82.2243 19.9722 81.5202 19.4615ZM80.0598 48.3947C79.9866 48.3675 79.9134 48.3404 79.8401 48.3133C79.7358 48.455 79.5573 48.5877 79.5392 48.7395C79.454 49.4462 79.4138 50.1589 79.3577 50.8686L79.5091 50.8998C79.6927 50.0644 79.8762 49.229 80.0588 48.3947H80.0598ZM61.228 19.4977C62.1267 19.8797 62.7095 20.8176 63.868 21.0076C63.0746 20.1934 62.1939 19.7762 61.228 19.4977ZM93.5565 44.8301C93.9156 45.3196 94.2135 45.7257 94.5395 46.1701C94.6167 45.7449 94.6889 45.3518 94.7682 44.9185C94.3449 44.8874 93.9778 44.8612 93.5575 44.8311L93.5565 44.8301ZM96.03 44.9386C95.9938 45.3438 95.9617 45.7077 95.9246 46.1228C96.383 45.6835 96.7782 45.3056 97.2306 44.8733C96.8043 44.8964 96.4603 44.9155 96.03 44.9386ZM101.269 48.3113C101.87 47.7976 102.47 47.2829 103.071 46.7692C102.342 47.1361 101.572 47.4568 101.269 48.3113ZM95.8604 39.6048C95.5375 39.5806 95.2456 39.5585 94.8875 39.5314C95.1332 39.9124 95.3268 40.2129 95.5615 40.5758C95.6649 40.2411 95.7511 39.9606 95.8604 39.6058V39.6048ZM53.6602 49.5427C53.6542 49.5658 53.6491 49.5889 53.6431 49.612C54.1657 49.7478 54.6873 49.8845 55.2099 50.0202C55.246 49.982 55.2811 49.9428 55.3172 49.9046C55.2058 49.784 55.1025 49.5708 54.9802 49.5588C54.5438 49.5166 54.1005 49.5417 53.6602 49.5417V49.5427ZM91.5715 44.5024C91.2726 44.3254 91.0239 44.1777 90.7169 43.9967C90.6889 44.2862 90.6658 44.5174 90.6367 44.81C90.9867 44.6944 91.2495 44.6079 91.5715 44.5024ZM94.1122 51.2647C94.1683 50.8586 93.5876 50.6706 92.7029 50.8354C93.2115 50.9902 93.6608 51.127 94.1122 51.2647ZM45.64 41.0423C45.2909 40.7065 45.0663 40.795 44.3822 41.5218C44.8356 41.3489 45.2277 41.1991 45.64 41.0423ZM97.9508 39.5766C97.0761 39.5646 97.0641 39.5766 97.0891 40.3275C97.365 40.0873 97.6188 39.8661 97.9508 39.5766Z" fill="#12100F"/>
<path d="M46.9641 62.4995C47.3011 61.3083 47.6361 60.1764 47.925 59.0324C47.9611 58.8896 47.7795 58.6514 47.6411 58.5177C47.5047 58.386 47.2951 58.3317 47.0804 58.2242C47.1627 57.9296 47.2399 57.6502 47.3332 57.3134C47.8548 57.5486 48.3202 57.7587 48.8237 57.9849C48.9491 57.5929 49.0684 57.2169 49.1878 56.844L50.0278 57.1911C50.0278 57.1911 49.7849 57.8187 49.6688 58.2907C49.8032 58.3571 50.0113 58.4976 50.1948 58.5871C50.3242 58.1789 50.4416 57.806 50.578 57.3737C50.8859 57.5195 51.1477 57.6431 51.4857 57.803C51.4857 57.803 51.1263 58.5247 51.1964 58.8099C51.2836 59.1649 51.5943 59.4577 52.0003 59.7481C52.8067 60.3261 52.8328 61.7908 51.7686 62.215C51.9481 62.6453 52.2209 63.0644 52.2751 63.5098C52.3172 63.8546 52.1487 64.2697 51.9632 64.5884C51.567 65.27 51.1166 65.3062 49.3864 64.9101C49.273 65.278 49.1577 65.65 48.9882 66.1998C48.6843 65.9103 48.3312 65.7284 48.2801 65.4841C48.2189 65.1936 48.4185 64.8478 48.5138 64.4939C48.3683 64.4135 48.2289 64.3371 48.0604 64.2446C47.9892 64.4688 47.929 64.6588 47.8678 64.8478C47.8086 65.0317 47.7484 65.2157 47.6752 65.4409C47.3693 65.2951 47.1206 65.1755 46.8858 65.0639C46.9591 64.5975 47.1948 64.0948 47.0413 63.7923C46.8899 63.4937 46.3422 63.3982 45.9691 63.2112C45.8959 63.175 45.8307 63.1248 45.7274 63.0584C45.8708 62.7689 46.0092 62.4925 46.1587 62.1899C46.4235 62.2924 46.6521 62.3809 46.9641 62.5005V62.4995ZM48.8107 61.6139C48.6401 62.221 48.5037 62.7076 48.3523 63.2494C48.8287 63.4253 49.251 63.6364 49.6983 63.7259C49.9461 63.7752 50.3433 63.7098 50.4797 63.5399C50.7184 63.2444 50.598 62.8403 50.2971 62.6081C49.8458 62.2592 49.3493 61.9687 48.8107 61.6129V61.6139ZM49.0373 60.8107C49.3734 60.9464 49.6562 61.1203 49.9571 61.1635C50.236 61.2037 50.6642 61.2077 50.7966 61.0429C51.0675 60.7061 50.8959 60.3 50.5559 60.0477C50.2279 59.8044 49.8588 59.6154 49.4566 59.3712C49.3102 59.8748 49.1808 60.3161 49.0363 60.8107H49.0373Z" fill="#12100F"/>
<path d="M13.3441 48.8641C13.1423 47.6427 12.964 46.4758 12.7387 45.3176C12.7106 45.1731 12.445 45.0347 12.2628 44.9726C12.0834 44.9115 11.8706 44.9515 11.6305 44.9455C11.5797 44.6439 11.5307 44.3582 11.4718 44.0137C12.0439 44.0047 12.5545 43.9969 13.1064 43.9873C13.0531 43.5792 13.0011 43.1882 12.9505 42.7999L13.8584 42.7566C13.8584 42.7566 13.9055 43.428 14.0013 43.9046C14.1511 43.9074 14.3993 43.9461 14.6034 43.9489C14.5469 43.5245 14.4944 43.1371 14.434 42.6879C14.7747 42.6888 15.0642 42.6893 15.4381 42.6902C15.4381 42.6902 15.4199 43.4962 15.6047 43.7245C15.8346 44.0087 16.2404 44.1415 16.7313 44.2316C17.707 44.4116 18.3537 45.726 17.5711 46.5627C17.9166 46.8757 18.3419 47.139 18.5803 47.5189C18.7652 47.8131 18.7893 48.2605 18.7569 48.6278C18.6883 49.4132 18.2961 49.6375 16.5618 50.0152C16.6158 50.3963 16.6696 50.782 16.7501 51.3518C16.3519 51.2191 15.955 51.2046 15.8048 51.0053C15.6258 50.7684 15.6593 50.3705 15.595 50.0098C15.4292 49.9989 15.2705 49.989 15.0787 49.977C15.1096 50.2102 15.136 50.4077 15.161 50.6048C15.1857 50.7965 15.2095 50.9886 15.239 51.2235C14.9002 51.2217 14.6242 51.2193 14.3643 51.2182C14.2321 50.7649 14.2316 50.2097 13.964 50.0012C13.6999 49.7954 13.1637 49.942 12.7464 49.9315C12.6648 49.9299 12.5844 49.9122 12.4627 49.8961C12.4693 49.5731 12.477 49.264 12.4835 48.9266C12.7667 48.9067 13.0113 48.8895 13.3445 48.865L13.3441 48.8641ZM14.6385 47.2771C14.7425 47.8991 14.826 48.3974 14.9194 48.9522C15.4255 48.9087 15.8974 48.9201 16.3403 48.8108C16.5855 48.75 16.9172 48.5218 16.9683 48.3101C17.0586 47.941 16.7778 47.6265 16.4067 47.5444C15.8498 47.4207 15.2769 47.369 14.638 47.2761L14.6385 47.2771ZM14.5019 46.4537C14.8637 46.4336 15.1937 46.4706 15.4844 46.3817C15.7539 46.2995 16.1432 46.1209 16.1929 45.9154C16.2947 45.4954 15.9667 45.2009 15.5516 45.1172C15.1513 45.0366 14.7368 45.0226 14.2689 44.9726C14.3507 45.4907 14.4213 45.9451 14.501 46.4542L14.5019 46.4537Z" fill="#12100F"/>
<path d="M90.9476 39.8712C91.4511 39.6048 91.9015 39.3665 92.384 39.1122C92.3609 39.082 92.3348 39.0257 92.2907 38.9936C91.1482 38.1441 91.0389 36.8906 91.9958 35.8029C92.9637 34.7042 95.064 34.0869 96.5575 35.058C96.4623 34.8268 96.3961 34.672 96.3329 34.5152C96.047 33.8135 96.1654 33.1621 96.6197 32.5801C97.5215 31.425 99.5636 30.833 100.955 31.3024C102.086 31.6844 102.364 32.5328 101.648 33.4798C101.399 33.8085 101.095 34.095 100.799 34.4197C101.156 34.4197 101.497 34.4026 101.835 34.4227C103.451 34.5172 104.159 35.7707 103.415 37.2042C103.047 37.9139 102.483 38.4196 101.779 38.7744C101.516 38.9071 101.243 39.0237 100.961 39.1544C102.818 40.3265 102.659 42.8015 100.664 44.0279C100.311 44.245 99.9237 44.4079 99.4824 44.631C100.604 45.0271 101.2 45.8253 101.37 46.9853C101.714 46.7622 102.003 46.53 102.329 46.3761C102.899 46.1067 103.476 45.8363 104.078 45.6554C104.986 45.381 105.907 45.1196 106.841 44.9638C108.649 44.6612 110.382 45.1417 112.106 45.6142C112.299 45.6664 112.482 45.773 112.676 45.7961C114.386 45.9952 115.816 46.8878 117.293 47.6588C117.664 47.8519 117.976 48.1092 117.77 48.6138C117.588 49.0561 117.273 49.1989 116.708 49.1145C116.165 49.033 115.618 48.9607 115.07 48.9144C114.613 48.8752 114.13 48.7777 113.764 49.2009C113.735 49.2341 113.674 49.2421 113.626 49.2552C112.491 49.5588 111.351 49.8463 110.222 50.168C109.246 50.4454 108.271 50.7299 107.313 51.0636C105.375 51.7402 103.449 52.4539 101.518 53.1515C101.381 53.2008 101.244 53.248 101.012 53.3285C101.329 53.438 101.544 53.5305 101.768 53.5858C102.641 53.8029 103.413 54.2141 104.143 54.7318C104.795 55.1932 105.202 56.3161 104.858 57.0328C104.352 58.0873 103.848 59.1529 103.218 60.134C102.225 61.6781 102.196 63.0714 103.302 64.6104C104.317 66.0238 105.023 67.6422 105.294 69.3874C105.626 71.5255 105.608 73.6808 104.859 75.7285C104.391 77.0062 103.461 77.9994 102.43 78.9242C100.842 80.3466 99.0049 80.8995 96.9367 80.987C94.6498 81.0835 92.4381 80.7356 90.2886 79.9908C88.427 79.3454 86.9245 78.2115 85.7409 76.6111C85.0248 75.642 84.5433 74.5724 84.3307 73.4325C84.1461 72.4433 84.2544 71.3999 84.2334 70.3806C84.2304 70.2489 84.2334 70.1162 84.2334 69.9433C84.0187 69.895 83.8101 69.8468 83.6015 69.8025C76.2282 68.2534 68.852 66.7144 61.4838 65.1412C60.6372 64.9602 59.8699 65.29 59.0595 65.301C58.9552 65.302 58.8238 65.4759 58.7565 65.5986C58.0434 66.8923 57.0163 67.8704 55.7715 68.6415C55.5649 68.7701 55.3573 68.9481 55.2349 69.1531C54.4165 70.5323 53.0834 71.3195 51.8116 72.1759C50.7053 72.9208 49.4886 73.3621 48.1455 73.338C47.4986 73.3259 46.8336 73.2877 46.2137 73.1239C45.6681 72.9791 45.1585 72.9359 44.5999 72.9952C41.8155 73.2928 39.5988 72.1508 37.7352 70.1825C37.2888 69.711 36.8615 69.2627 36.2587 68.9471C33.6328 67.5699 32.0651 65.3543 31.3379 62.4994C31.2556 62.1767 31.0701 61.848 30.8454 61.6017C29.6096 60.2456 28.7992 58.6784 28.4271 56.884C28.1833 55.7069 28.1884 54.5287 28.4251 53.3486C28.4612 53.1676 28.4652 52.9394 28.385 52.7836C27.5043 51.0787 27.0569 49.2914 27.2886 47.3633C27.2987 47.2809 27.2997 47.1964 27.2987 47.113C27.2987 47.0818 27.2786 47.0507 27.2535 46.9763C26.5564 47.2457 25.8533 47.496 25.1713 47.7976C25.0409 47.8549 24.9356 48.1052 24.9245 48.2731C24.8403 49.5628 24.5123 50.7802 23.8723 51.904C23.2274 53.0349 22.3568 53.9346 21.1511 54.4684C20.448 54.779 19.7369 55.0716 19.0327 55.3792C16.5442 56.4649 14.2584 55.9502 12.2433 54.3146C9.13691 51.7924 7.86708 48.4319 8.22415 44.4853C8.41473 42.3762 9.29539 40.5497 11.0406 39.257C11.7388 38.7403 12.5352 38.3673 13.4088 38.2356C14.2654 38.1059 14.6776 37.7913 14.7769 36.774C14.9715 34.7926 15.8592 33.0737 17.458 31.7839C18.3316 31.0792 19.3537 30.7405 20.4169 30.5133C21.4069 30.3012 22.416 30.1775 23.411 29.9815C23.5634 29.9513 23.7359 29.7694 23.8051 29.6146C24.2144 28.7058 24.749 27.8926 25.4541 27.1839C26.4722 26.1595 27.728 25.6227 29.1111 25.3463C29.9928 25.1704 30.8785 24.9944 31.7702 24.9C32.7311 24.7974 33.6559 25.0367 34.5556 25.3845C34.704 25.4418 34.9718 25.4116 35.0822 25.3101C36.9177 23.6112 39.2226 23.2513 41.5657 23.0483C42.1846 22.995 42.5898 22.8513 42.9348 22.2863C45.2187 18.5448 48.3281 15.6597 52.2028 13.6331C54.8628 12.2418 57.7024 11.4024 60.7004 11.121C66.6734 10.56 72.171 11.9573 77.2232 15.1561C82.457 18.4694 86.2013 23.0624 88.6206 28.736C90.0449 32.0744 90.7922 35.5858 90.9025 39.2238C90.9085 39.4329 90.9316 39.641 90.9486 39.8722L90.9476 39.8712ZM87.3618 63.9228C87.0158 64.4214 86.6858 64.8778 86.3778 65.3473C86.104 65.7644 85.751 66.1665 85.6135 66.629C85.098 68.365 84.7901 70.1282 84.8502 71.9668C84.9014 73.531 85.3217 74.9052 86.2184 76.1748C87.3187 77.7319 88.7701 78.7995 90.5574 79.4087C92.6478 80.1214 94.7922 80.4532 97.0099 80.3386C98.8264 80.2451 100.507 79.85 101.863 78.5341C102.186 78.2205 102.559 77.9551 102.869 77.6294C103.59 76.8725 104.107 75.9989 104.411 74.9826C104.876 73.4285 104.93 71.8492 104.734 70.2659C104.629 69.4135 104.471 68.5339 104.139 67.7518C103.607 66.4963 102.924 65.303 102.276 64.0987C101.861 63.3277 101.53 62.5517 101.838 61.668C102.004 61.1966 102.205 60.7332 102.434 60.2888C103.017 59.1609 103.64 58.0521 104.217 56.9212C104.437 56.489 104.265 55.6295 103.96 55.3782C102.927 54.5287 101.674 54.199 100.37 53.8231C100.708 55.2033 99.5997 55.7561 98.8675 56.6006C100.477 56.5634 101.995 56.5774 103.348 55.7059C103.468 55.6285 103.694 55.7129 103.871 55.722C103.798 55.8959 103.775 56.1361 103.646 56.2316C103.118 56.6187 102.544 56.9192 101.867 56.9685C100.72 57.0519 99.5767 57.1967 98.4292 57.2188C97.7812 57.2319 97.3399 57.443 97.037 57.9928C96.9317 58.1828 96.8314 58.3758 96.721 58.5628C96.1664 59.5027 95.4201 60.2406 94.3459 60.516C93.8895 60.6326 93.5705 60.8266 93.2957 61.1915C92.7751 61.8832 92.054 62.0902 91.2124 62.0078C91.059 61.9927 90.8303 62.0933 90.738 62.2169C90.2184 62.9105 89.735 63.6313 89.2274 64.335C88.7981 64.9291 88.2645 64.9462 87.769 64.3953C87.6477 64.2606 87.5323 64.1208 87.3608 63.9218L87.3618 63.9228ZM82.8773 20.8015C82.6777 21.7425 82.4761 22.6462 82.3056 23.5559C82.2835 23.6715 82.3898 23.8575 82.4921 23.9409C82.8151 24.2033 83.1872 24.4064 83.5012 24.6778C84.8573 25.8519 85.6406 27.3457 85.9425 29.1099C85.9756 29.303 86.081 29.5332 86.2284 29.6488C88.6116 31.5145 89.5655 34.3734 88.7811 37.3078C88.7299 37.4968 88.757 37.738 88.8272 37.925C89.8483 40.6231 89.4601 43.0377 87.43 45.1447C87.2776 45.3025 87.1482 45.5307 87.1091 45.7438C86.6356 48.3434 84.8563 49.8312 82.6245 50.8113C81.6175 51.2536 80.5894 51.6276 79.6967 52.276C78.9294 52.8339 78.2062 53.4541 77.4489 54.0261C76.9715 54.387 76.3807 54.6313 75.9875 55.0625C74.4218 56.7835 72.6414 58.0692 70.2422 58.2864C70.0978 58.2994 69.9002 58.4392 69.84 58.5709C68.866 60.702 67.0305 61.8902 65.0435 62.8452C64.2351 63.2342 63.3725 63.5026 62.6463 64.0575C62.4216 64.2294 62.1739 64.3702 61.8509 64.5813C69.4107 66.1696 76.8411 67.7297 84.2966 69.2959C84.5243 68.357 84.7339 67.4653 84.9586 66.5767C85.0107 66.3696 85.0749 66.1505 85.1923 65.9765C85.7239 65.1854 86.2836 64.4144 86.8112 63.6212C86.8864 63.5076 86.8944 63.2785 86.8312 63.1558C86.3618 62.2561 85.8723 61.3665 85.3718 60.4838C85.2795 60.322 85.1341 60.1491 84.9706 60.0767C84.0849 59.6857 83.5884 59.0262 83.4249 58.0722C83.3768 57.7928 83.2434 57.4922 83.0578 57.2801C82.2765 56.3864 82.114 55.1138 82.6616 54.0543C82.9515 53.4923 83.1782 52.8972 83.4631 52.3323C83.6346 51.9925 83.7971 51.5984 84.0779 51.3712C84.9515 50.6676 85.9576 50.2222 87.1 50.1891C87.8944 50.1659 88.6898 50.185 89.6226 50.185C89.5304 49.7528 89.5093 49.3547 89.3618 49.0109C88.8985 47.9303 88.8904 46.8597 89.5494 45.8976C90.1843 44.9708 90.0529 43.9776 90.0559 42.9734C90.0579 42.3803 90.09 41.7852 90.1322 41.1931C90.1532 40.8965 90.2616 40.605 90.2686 40.3095C90.3157 38.2256 90.0941 36.1608 89.6537 34.1302C88.6768 29.6256 86.7299 25.5695 83.8833 21.9495C83.5563 21.5344 83.1882 21.1514 82.8803 20.8015H82.8773ZM57.2881 62.5979C57.242 62.1576 57.2259 61.7374 57.1507 61.3273C56.7625 59.2122 55.8367 57.3635 54.2981 55.8577C52.3231 53.9246 50.0082 52.8419 47.1847 53.3194C44.9329 53.7004 43.3822 55.0495 42.5106 57.1303C41.7914 58.8483 41.7783 60.6326 42.2137 62.4451C43.0813 66.058 46.3381 69.507 50.275 69.8146C51.9631 69.9463 53.4927 69.5351 54.8066 68.4575C56.6582 66.9386 57.2901 64.8899 57.2881 62.5979ZM75.7498 15.0224C63.3444 7.87703 49.1416 12.7193 43.5226 22.6522C44.7603 22.3969 45.972 22.0571 47.2398 22.3014C47.3411 22.3205 47.4916 22.232 47.5788 22.1496C48.5909 21.1986 49.7815 20.5965 51.1326 20.306C52.3231 20.0506 53.5097 19.7671 54.7444 19.9994C54.8849 20.0255 55.0614 19.9501 55.1998 19.8797C57.232 18.8453 59.3363 18.3045 61.6192 18.8936C61.7566 18.9288 61.9512 18.8875 62.0725 18.8091C62.9602 18.2432 63.9382 17.9195 64.9613 17.7385C66.2201 17.5154 67.4829 17.2992 68.7507 17.1404C69.4869 17.0479 70.2392 17.0409 70.9824 17.064C71.2893 17.0731 71.4899 17.0248 71.7347 16.8298C72.2011 16.4579 72.6926 16.0809 73.2352 15.8507C74.0376 15.5109 74.8952 15.2968 75.7498 15.0224ZM8.76077 46.0545C8.72466 47.0919 9.08475 48.7837 9.87313 50.364C11.0025 52.6278 12.6194 54.39 15.144 55.1037C16.6616 55.533 18.0959 55.2656 19.3828 54.3719C20.9866 53.2571 21.6908 51.6004 21.9505 49.7367C22.2484 47.6036 21.8603 45.5569 20.8823 43.6579C19.6998 41.3609 18.0077 39.6178 15.3868 38.9775C13.6405 38.5513 11.4208 39.3535 10.3345 40.793C9.31845 42.139 8.86108 43.6569 8.76178 46.0555L8.76077 46.0545ZM88.429 64.2113C88.5755 64.0837 88.6657 64.0304 88.7209 63.952C89.2415 63.2181 89.759 62.4813 90.2706 61.7414C90.4602 61.467 90.6618 61.2207 91.0399 61.3172C91.9436 61.5494 92.5785 61.1905 93.0981 60.4658C93.2476 60.2567 93.5264 60.0657 93.7762 60.0164C94.9758 59.7792 95.7381 59.0403 96.3098 58.0099C96.5365 57.6008 96.8394 57.2087 97.1864 56.8991C97.5937 56.5352 98.1203 56.305 98.5355 55.9482C98.9598 55.5832 99.3359 55.154 99.688 54.7167C99.9137 54.4363 99.8605 54.0975 99.5706 53.8703C98.7993 53.2651 97.9477 52.8339 96.9698 52.6499C96.048 52.477 95.1032 52.3423 94.2295 52.0216C92.7912 51.4929 91.3328 51.4275 89.8403 51.5341C89.5574 51.5542 89.2726 51.6065 88.9927 51.5884C88.8804 51.5813 88.7079 51.4366 88.6918 51.334C88.6768 51.2355 88.8082 51.0858 88.9115 51.0043C88.9907 50.942 89.1261 50.952 89.2365 50.9299C88.0158 50.7399 86.7981 50.6887 85.6386 51.1652C85.0438 51.4094 84.446 51.705 84.1481 52.3534C83.8071 53.0952 83.4269 53.821 83.119 54.577C82.8141 55.3269 82.8923 56.0959 83.4239 56.7031C83.8101 57.1444 83.9525 57.6309 84.1231 58.1587C84.2625 58.5889 84.5463 59.1499 84.9094 59.2946C85.752 59.6304 85.9837 60.3089 86.2836 61.0196C86.7831 62.2028 87.6286 63.1558 88.427 64.2113H88.429ZM38.3269 39.9164C38.4303 39.9797 38.4934 40.035 38.5677 40.0622C40.4834 40.7598 42.3551 40.6553 44.0973 39.5917C45.8958 38.493 46.9209 36.7911 47.284 34.7544C47.8617 31.5185 47.0502 28.6325 44.7112 26.2832C42.7573 24.3199 40.4102 23.5821 37.7031 24.4355C36.8836 24.6939 36.1283 25.1261 35.5506 25.8157C40.7131 29.0587 41.3511 36.204 38.3269 39.9164ZM31.1373 42.3923C32.8685 42.4145 34.2908 41.8284 35.4222 40.6482C37.029 38.9725 37.6198 36.8986 37.5125 34.6157C37.3941 32.0935 36.4814 29.8991 34.691 28.1007C32.6388 26.0409 29.5284 25.1804 26.8373 26.8863C25.6668 27.6282 24.8433 28.6837 24.3478 30.0458C27.1211 30.6168 28.9968 32.3257 30.2586 34.7122C31.5204 37.0997 31.8554 39.652 31.1373 42.3923ZM47.7233 25.8177C47.7122 25.8831 47.7002 25.9484 47.6892 26.0148C49.0493 27.7911 49.8637 29.7694 49.9099 32.0242C49.9701 34.9977 49.0001 37.4958 46.5217 39.2791C46.1756 39.5284 45.7894 39.7204 45.296 40.0129C46.0482 40.4592 46.7062 40.9036 47.4103 41.2584C49.5307 42.327 51.6591 42.2184 53.6642 41.0141C56.0293 39.5937 57.0243 37.3229 57.1216 34.6539C57.1968 32.5931 56.597 30.6922 55.3743 29.0145C54.0092 27.1427 52.2048 25.9655 49.8848 25.7122C49.1767 25.6348 48.4445 25.7765 47.7233 25.8188V25.8177ZM24.9787 47.11C26.6838 46.348 27.6698 45.0291 28.2435 43.3795C28.8945 41.5067 28.8835 39.5997 28.3338 37.7028C27.5324 34.9334 25.9857 32.752 23.2665 31.6C21.774 30.9677 20.2424 30.9868 18.7569 31.7226C17.1731 32.5067 16.2504 33.8477 15.7057 35.4641C15.471 36.1628 15.3918 36.9137 15.2293 37.7069C15.6626 37.6385 15.9555 37.5601 16.2504 37.55C18.5192 37.4716 20.3618 38.4115 21.9054 40.0018C23.3638 41.5037 24.2756 43.3051 24.7008 45.3518C24.8152 45.9037 24.8794 46.4656 24.9797 47.11H24.9787ZM51.4946 42.6557C52.3332 43.9334 53.4776 44.9155 54.8959 45.5961C56.4857 46.3591 58.1517 46.547 59.8198 46.0374C63.0204 45.0603 64.7356 42.2456 64.8088 39.0851C64.8579 36.963 64.195 35.061 62.9071 33.3963C61.897 32.0905 60.6031 31.1426 58.9501 30.6148C58.9943 30.836 59.0364 31.0089 59.0635 31.1848C59.1828 31.9759 59.3644 32.765 59.4045 33.5602C59.566 36.8192 57.7626 40.2592 54.4546 41.4685C53.4756 41.8264 52.5187 42.2436 51.4957 42.6557H51.4946ZM54.8116 46.2756C54.8748 46.4847 54.9009 46.5913 54.94 46.6938C55.4004 47.9122 56.0564 49.0079 56.9842 49.9267C58.8248 51.7492 61.0033 52.6369 63.6112 52.2549C66.3234 51.8578 68.6203 49.5427 69.0957 46.8386C69.4458 44.8492 69.1539 42.9724 68.2321 41.1991C67.9011 40.5618 67.4387 39.9918 67.0365 39.3907C66.9914 39.4067 66.9462 39.4228 66.9011 39.4399C66.4437 42.2426 64.9723 44.2671 62.4597 45.6051C60.0113 46.9089 57.5409 47.4286 54.8116 46.2756ZM69.9664 49.0592C68.5992 50.751 66.9011 51.8477 64.9613 52.5494C62.4487 53.4591 60.0886 52.9766 57.916 51.515C57.2109 51.0405 56.601 50.4223 55.928 49.8533C55.8839 51.1008 56.1346 52.281 56.6773 53.3888C58.1387 56.3683 60.4477 58.1698 63.8288 58.3165C65.8901 58.406 67.6363 57.5777 68.9021 55.9542C70.505 53.8984 70.6895 51.5612 69.9654 49.0592H69.9664ZM68.4227 25.3222C68.3986 25.3664 68.3746 25.4106 68.3505 25.4559C68.3705 25.5182 68.3896 25.5805 68.4107 25.6428C69.4959 28.738 69.1208 31.5748 66.856 34.0317C66.4367 34.487 66.195 34.8509 66.5511 35.431C66.6423 35.5797 66.6584 35.7828 66.6794 35.9648C66.7316 36.4131 66.9793 36.6895 67.3314 36.969C68.0205 37.5169 68.6835 38.11 69.2803 38.7553C69.5391 39.0358 69.6995 39.0921 70.0195 38.9393C72.2282 37.8798 73.4629 36.1145 73.836 33.712C74.3115 30.65 72.6976 27.3859 69.9724 25.9555C69.4809 25.6971 68.9403 25.5313 68.4227 25.3232V25.3222ZM39.999 49.1325C39.9077 48.7395 39.8535 48.463 39.7773 48.1926C39.0722 45.6735 37.6148 43.7786 35.1995 42.6879C34.6819 42.4537 34.1834 42.4346 33.6087 42.6245C32.9076 42.8558 32.1503 42.9412 31.4091 43.0166C31.0931 43.0488 30.8895 43.0819 30.7521 43.3996C30.2295 44.6049 29.4431 45.5961 28.3739 46.3772C28.1543 46.537 27.9807 46.8888 27.9587 47.1663C27.8995 47.9122 27.8754 48.6711 27.9476 49.414C28.0369 50.3368 28.2957 51.2285 28.7902 52.087C29.061 51.6326 29.2746 51.2184 29.5394 50.8405C30.7942 49.0572 32.7762 48.5264 34.69 47.8991C35.0761 47.7724 35.5124 47.7724 35.9267 47.7644C37.3971 47.7342 38.685 48.2932 39.999 49.1336V49.1325ZM75.809 32.3851C75.5522 36.1749 73.4107 38.4528 69.9403 39.645C70.85 41.2363 71.3455 42.8638 71.3144 44.6119C73.8481 45.1136 76.8601 43.3805 77.9073 41.0091C79.4018 37.6244 77.9133 33.905 75.809 32.3861V32.3851ZM30.9687 60.8286C31.066 60.7522 31.0881 60.7442 31.0891 60.7331C31.0951 60.6668 31.0981 60.6005 31.0991 60.5341C31.1393 58.1296 31.8775 56.0487 33.9818 54.6896C34.7441 54.197 35.6017 53.8401 36.4463 53.4943C37.025 53.2571 37.6479 53.0862 38.2668 52.9977C38.8435 52.9153 39.4413 52.9796 40.0913 52.9796C40.012 52.8329 39.9719 52.7444 39.9197 52.665C38.8445 51.0315 37.4262 49.8614 35.5135 49.3256C32.9347 48.6028 30.2175 49.99 29.3328 52.5253C28.5174 54.8615 28.8343 57.1072 29.9537 59.2625C30.2385 59.8103 30.6267 60.3039 30.9708 60.8286H30.9687ZM58.5208 21.8701C58.586 21.9516 58.6392 22.031 58.7044 22.0993C60.5871 24.0726 61.3494 26.4199 61.0144 29.121C60.9722 29.4578 61.0755 29.5985 61.3724 29.7111C62.4156 30.1062 63.3414 30.7003 64.1087 31.5105C64.6624 32.0955 65.1639 32.7299 65.6875 33.3411C67.4468 31.0762 67.6233 27.1477 65.2953 24.2234C63.5299 22.0058 60.6613 21.1192 58.5208 21.8701ZM41.4283 58.3618C39.9468 59.8495 39.4253 61.5625 39.4453 63.4664C39.4654 65.3573 40.0441 67.0883 41.1073 68.6475C42.651 70.9103 44.7032 72.4061 47.4876 72.6826C49.5257 72.8846 51.2128 72.1277 52.5609 70.5987C52.6331 70.5173 52.6702 70.4037 52.7354 70.284C46.5768 71.7396 40.2548 65.3543 41.4273 58.3628L41.4283 58.3618ZM36.0751 68.1951C36.1093 68.1529 36.1434 68.1097 36.1775 68.0675C36.1494 68.0072 36.1213 67.9468 36.0922 67.8865C34.9728 65.5362 34.5766 63.1196 35.4814 60.6045C36.0551 59.0101 37.1353 57.841 38.6299 57.068C39.4353 56.6508 40.2678 56.2869 41.0983 55.8939C40.2267 55.0012 38.0451 54.2814 36.7241 54.4212C33.9397 54.7157 32.2747 56.5664 31.8634 59.1157C31.374 62.1526 32.4071 64.7471 34.5074 66.9285C34.9698 67.409 35.5496 67.7759 36.0751 68.1961V68.1951ZM79.5051 41.0543C77.4579 43.9052 74.7999 45.4222 71.2041 45.3659C71.2282 45.7388 71.1529 46.149 71.2944 46.4626C71.7919 47.5684 72.2051 48.6872 72.3566 49.8985C72.3726 50.0242 72.5612 50.2092 72.6876 50.2253C73.2312 50.2966 73.7889 50.3901 74.3285 50.3399C77.0307 50.0875 78.9113 48.6963 79.812 46.1158C80.4028 44.4219 80.2494 42.7311 79.5051 41.0564V41.0543ZM44.0602 72.4765C44.0723 72.4192 44.0843 72.3619 44.0973 72.3046C43.7784 72.1005 43.4454 71.9166 43.1445 71.6894C40.9819 70.0548 39.5466 67.9358 39.015 65.2608C38.4854 62.5949 38.8906 60.137 40.8185 58.0813C41.0853 57.7968 41.3882 57.5455 41.7412 57.2168C41.4644 57.1957 41.2548 57.1555 41.0481 57.1665C38.2367 57.3163 36.0501 59.4173 35.708 62.232C35.4312 64.5109 35.9598 66.5807 37.2005 68.4826C38.3831 70.2951 39.9729 71.5969 42.0742 72.185C42.7142 72.3639 43.3972 72.385 44.0602 72.4785V72.4765ZM77.9073 31.7779C79.2152 33.0968 79.9585 34.6368 80.2484 36.396C82.5242 35.7426 84.2906 33.3853 84.3818 30.7606C84.4932 27.5548 82.1651 25.0216 80.3336 24.52C80.6476 25.87 80.5924 27.1849 80.1741 28.4857C79.7539 29.7955 78.9494 30.84 77.9073 31.7769V31.7779ZM72.0888 20.0235C72.1188 20.1381 72.1188 20.1753 72.1369 20.1994C73.4218 21.9837 73.8852 23.953 73.494 26.1254C73.4689 26.2671 73.5191 26.4732 73.6144 26.5767C74.507 27.5588 75.1269 28.6877 75.5031 29.9594C75.5392 30.083 75.6686 30.2006 75.7849 30.276C76.1059 30.4841 76.4599 30.645 76.7669 30.8701C77.0337 31.0662 77.2022 31.0159 77.3928 30.7807C77.9996 30.0318 78.4399 29.1934 78.6485 28.2565C79.3386 25.1583 78.1551 22.3717 75.4298 20.7643C74.4248 20.1713 73.3064 19.9109 72.0898 20.0235H72.0888ZM52.1757 46.0685C52.2008 46.0163 52.2249 45.965 52.2499 45.9127C51.9821 45.4744 51.7233 45.0311 51.4435 44.5999C50.3512 42.9171 48.6451 42.2436 46.8015 41.8535C45.968 41.6776 45.1545 41.949 44.3611 42.2436C43.8095 42.4486 43.5557 42.7673 43.5035 43.3765C43.4042 44.5305 42.9398 45.575 42.2678 46.5109C42.0803 46.7722 42.0241 46.9904 42.1093 47.2899C42.4092 48.3464 42.5396 49.4281 42.3521 50.5148C42.2327 51.2074 42.5998 51.6376 43.0442 52.1986C43.2448 49.8835 44.2157 48.0821 46.1806 47.0416C48.0272 46.0645 49.9761 45.2302 52.1757 46.0675V46.0685ZM85.9275 31.5969C85.6356 32.2674 85.4039 32.953 85.0549 33.5702C84.124 35.2199 82.6526 36.2151 80.9073 36.8524C80.7077 36.9258 80.3727 37.0444 80.3657 37.158C80.3316 37.7089 80.2122 38.3603 80.45 38.7986C80.9364 39.6993 81.444 40.5708 81.6877 41.5761C81.7138 41.6846 81.9044 41.8435 82.0016 41.8324C83.7931 41.6263 85.2815 40.8513 86.3538 39.3736C87.5584 37.7129 87.768 35.8672 87.2244 33.9301C86.9767 33.0475 86.5353 32.2453 85.9285 31.5949L85.9275 31.5969ZM48.2188 22.4763C48.7724 22.7718 49.3241 23.0131 49.8146 23.3438C50.3081 23.6776 50.7384 24.1038 51.2038 24.4808C51.275 24.5381 51.3823 24.5682 51.4766 24.5773C53.6682 24.7894 55.5007 25.7192 56.9561 27.3668C57.3734 27.8393 57.6843 28.4073 58.1086 28.8737C58.2591 29.0396 58.5961 29.0607 58.8538 29.0828C58.899 29.0868 59.0234 28.7672 59.0234 28.5973C59.0324 26.825 58.565 25.1925 57.4988 23.764C56.0805 21.8641 54.2289 20.7915 51.8046 20.9171C50.4274 20.9885 49.2228 21.4992 48.2198 22.4753L48.2188 22.4763ZM43.8586 54.1025C43.9348 54.0693 44.0181 54.0512 44.0783 54.004C45.1315 53.1867 46.3481 52.6831 47.5558 52.1584C47.7604 52.0689 47.956 51.9121 48.1024 51.7402C48.8206 50.9008 49.6802 50.2635 50.6992 49.8413C51.5037 49.5085 52.3071 49.1748 53.0975 48.8471C51.4405 47.1713 48.628 46.35 46.2127 47.7704C44.0091 49.0672 43.2869 51.9322 43.8576 54.1015L43.8586 54.1025ZM112.665 47.114C112.751 47.1502 112.835 47.1914 112.923 47.2206C113.144 47.2939 113.427 47.3342 113.333 47.6649C113.227 48.0368 112.944 47.8639 112.71 47.8207C112.137 47.7161 111.566 47.5553 110.988 47.5231C109.973 47.4668 108.951 47.4508 107.936 47.494C107.234 47.5241 106.537 47.682 105.838 47.7825C105.845 47.8307 105.851 47.879 105.858 47.9283C105.923 47.9232 105.989 47.9182 106.054 47.9122C107.749 47.7473 109.444 47.498 111.14 47.879C111.299 47.9142 111.536 48.1032 111.541 48.2288C111.555 48.5766 111.267 48.5384 111.031 48.4892C109.786 48.2298 108.535 48.2932 107.288 48.4299C105.061 48.6731 102.809 48.8501 101.01 50.4494C100.756 50.6756 100.521 50.5329 100.468 50.177C100.449 50.0524 100.401 49.9327 100.364 49.8C99.5767 50.17 99.2778 50.8184 98.9528 51.6065C99.2988 51.3612 99.5425 51.1873 99.7863 51.0154C99.9939 50.8686 100.242 50.6656 100.405 50.9953C100.459 51.1049 100.283 51.3984 100.138 51.5271C99.7331 51.8889 99.2908 52.2086 98.8555 52.5514C99.3199 53.0108 99.7361 53.2159 100.285 52.865C100.488 52.7344 100.759 52.7112 100.996 52.6298C102.779 52.0166 104.618 51.5271 106.33 50.756C108.555 49.7538 110.946 49.408 113.241 48.6973C113.541 48.6048 113.784 48.5264 113.639 48.1162C113.601 48.0077 113.701 47.8006 113.803 47.7151C113.855 47.6709 114.137 47.7654 114.164 47.8468C114.31 48.2992 114.669 48.2469 115.015 48.2771C115.579 48.3273 116.141 48.4037 116.704 48.462C116.84 48.4761 116.978 48.4641 117.115 48.4641C117.125 48.4108 117.136 48.3575 117.146 48.3052C115.722 47.6769 114.289 47.0849 112.665 47.114ZM71.7989 24.9814C71.9905 23.0694 70.7367 20.3813 68.4006 19.0936C66.6544 18.1316 63.9953 18.2 62.6433 19.2856C62.6994 19.3258 62.7506 19.366 62.8048 19.3992C64.5249 20.4437 65.6343 22.1496 67.1448 23.4202C67.206 23.4725 67.2522 23.5499 67.2873 23.6243C67.4829 24.0344 67.7848 24.1953 68.2502 24.142C68.5581 24.1068 68.8901 24.137 69.19 24.2174C70.0677 24.4516 70.9343 24.725 71.7969 24.9814H71.7989ZM58.5429 56.9102C58.5228 56.9966 58.5008 57.0348 58.5118 57.0569C59.24 58.602 59.6803 60.2144 59.6753 61.9374C59.6753 62.0551 59.8268 62.237 59.9471 62.2822C62.8399 63.3659 66.0646 62.5798 67.7065 59.6032C68.0415 58.9961 68.202 58.2924 68.4428 57.634C68.3906 57.5927 68.3384 57.5515 68.2863 57.5113C66.7958 58.5608 65.1709 59.0876 63.3464 58.9388C61.5259 58.79 59.9552 58.0642 58.5419 56.9092L58.5429 56.9102ZM72.2924 17.2218C73.0637 17.829 73.838 18.4432 74.6194 19.0484C74.7207 19.1268 74.8531 19.1811 74.9795 19.2092C76.9233 19.6435 78.4359 20.7151 79.4339 22.423C79.8211 23.0865 80.3396 23.1408 80.9455 23.192C81.6717 20.4588 80.9003 18.1718 77.9916 16.4307C76.3235 15.4325 73.508 15.8748 72.2924 17.2218ZM87.5925 39.5676C85.9857 41.1328 84.1752 42.2858 81.8492 42.5019C82.0237 44.0389 81.7078 45.4513 81.0578 46.8064C85.5393 47.4638 88.736 43.4368 87.5925 39.5676ZM21.0569 53.7959C21.1722 53.7446 21.2966 53.7074 21.3999 53.6381C23.0589 52.5444 23.9305 50.936 24.1893 49.026C24.6417 45.6916 23.6717 42.7713 21.3517 40.3356C20.2905 39.2208 18.9826 38.4789 17.447 38.2427C16.8722 38.1542 16.2724 38.2286 15.6836 38.2286C22.0057 39.9878 24.6647 49.1145 21.0559 53.7959H21.0569ZM72.5682 50.8666C72.184 52.2247 71.8199 53.5074 71.4458 54.8313C73.4128 55.2857 75.2824 54.9429 76.9083 53.5355C78.2142 52.4046 78.785 50.937 78.8963 49.0752C76.9113 50.6083 74.8411 51.329 72.5692 50.8666H72.5682ZM27.5063 46.1007C28.9125 45.3538 29.8323 44.1787 30.3569 42.705C31.0079 40.8754 31.039 39.0056 30.5154 37.1339C29.7481 34.3905 28.2315 32.2483 25.5634 31.0672C24.6728 30.6731 23.7279 30.5454 22.6356 30.6761C28.7491 32.4946 31.5004 41.2172 27.5063 46.0997V46.1007ZM96.6077 50.2866C96.6077 50.2805 96.6077 50.2735 96.6077 50.2675C97.0069 50.2403 97.4071 50.2232 97.8053 50.184C99.351 50.0322 100.393 49.1697 100.652 47.8046C100.809 46.9723 100.708 46.1741 99.9919 45.6242C99.2767 45.0754 98.4573 45.0713 97.6749 45.4644C97.3138 45.6463 96.9818 45.9399 96.719 46.2525C95.8153 47.3241 95.5776 48.6842 95.2045 49.98C95.1854 50.0473 95.392 50.2604 95.5074 50.2735C95.8705 50.3127 96.2396 50.2876 96.6067 50.2876L96.6077 50.2866ZM48.4585 52.5283C52.0202 52.8228 54.5629 54.5569 56.3302 57.451C58.1096 60.3652 58.4617 63.4453 57.0554 66.7375C58.9531 65.0095 59.899 61.2086 57.9341 57.3736C56.0765 53.7456 52.1536 51.5421 48.4585 52.5283ZM36.1624 40.8905C38.5336 39.3866 39.5035 37.1218 39.5185 34.4348C39.5336 31.7256 38.5707 29.3593 36.6017 27.4633C35.4773 26.3797 34.1202 25.7273 32.5626 25.5292C32.368 25.5041 32.1644 25.5483 31.9648 25.5604C35.035 26.8341 36.9077 29.1069 37.7642 32.2222C38.6248 35.3485 38.1945 38.2728 36.1624 40.8895V40.8905ZM94.4873 50.2705C94.4341 49.8161 94.4051 49.5065 94.3609 49.1989C94.2436 48.3746 94.1714 47.5382 93.9818 46.731C93.8263 46.0685 93.4592 45.4895 92.7671 45.2332C91.7761 44.8663 90.5244 45.385 89.9827 46.3691C89.421 47.3904 89.6196 48.7596 90.5163 49.3537C90.9998 49.6744 91.5926 49.8815 92.1643 50.0031C92.8995 50.1609 93.6638 50.182 94.4873 50.2695V50.2705ZM95.8193 44.1767C95.8524 44.239 95.8855 44.3013 95.9186 44.3636C97.037 44.235 98.1774 44.2028 99.2677 43.9515C100.562 43.6529 101.439 42.8176 101.641 41.4213C101.762 40.5799 101.339 39.9405 100.51 39.7405C99.6278 39.5264 98.8254 39.7264 98.1122 40.2833C96.8294 41.2835 96.4111 42.7804 95.8193 44.1777V44.1767ZM41.8786 23.7168C44.9008 24.8799 46.8005 27.0753 47.6822 30.1283C48.5678 33.1933 48.1265 36.0733 46.1425 38.687C48.31 37.5249 50.1065 33.7683 48.9078 29.692C47.8928 26.2359 44.9459 23.7077 41.8786 23.7168ZM95.1633 42.2948C95.1242 42.0134 95.0961 41.5087 94.9778 41.0252C94.7702 40.1737 94.2636 39.7566 93.4261 39.7143C92.4191 39.6621 91.5926 40.0411 91.0038 40.8644C90.1883 42.0053 90.5053 43.4257 91.7852 43.8248C92.7521 44.1264 93.8143 44.1324 94.8374 44.234C94.9326 44.243 95.1353 43.9987 95.1483 43.859C95.1884 43.4137 95.1633 42.9633 95.1633 42.2948ZM96.9748 38.9715C98.5355 38.8146 100.019 38.9775 101.345 38.2608C101.857 37.9843 102.327 37.5701 102.706 37.1248C103.035 36.7388 103.263 36.2151 102.981 35.6813C102.703 35.1545 102.175 35.048 101.645 35.059C101.233 35.0671 100.802 35.1043 100.414 35.2329C98.6318 35.822 97.8595 37.354 96.9738 38.9725L96.9748 38.9715ZM56.1547 39.7003C58.567 37.8104 59.7927 33.6607 57.7535 29.5452C56.585 27.1859 53.0885 24.8125 51.4194 25.3161C57.2089 27.2462 59.6593 34.6851 56.1547 39.7003ZM94.9417 38.9835C94.9477 38.9544 94.9537 38.9242 94.9597 38.8951C95.1593 38.9071 95.3589 38.9212 95.5585 38.9313C96.367 38.9695 96.4432 38.886 96.375 38.0899C96.363 37.9441 96.4181 37.7943 96.4261 37.6455C96.4502 37.1992 96.5585 36.7298 96.4562 36.3126C96.372 35.9658 96.1042 35.5606 95.8003 35.3898C94.6137 34.7223 92.4963 35.624 92.078 36.9177C91.8253 37.6988 92.0309 38.2547 92.8112 38.5191C93.4953 38.7503 94.2295 38.8358 94.9407 38.9855L94.9417 38.9835ZM58.574 29.8076C61.5831 30.7284 63.6102 32.5539 64.7366 35.3445C65.86 38.1291 65.6864 40.8493 64.1508 43.5534C66.216 41.752 66.8951 38.2135 65.8229 35.2691C64.4567 31.5175 61.0424 29.7081 58.574 29.8076ZM41.672 50.7611C41.7081 50.5741 41.7292 50.4977 41.7372 50.4203C41.9719 48.1846 41.341 46.1801 40.012 44.4119C39.0712 43.1604 37.8575 42.2235 36.2988 41.8465C36.032 41.7821 35.7261 41.8766 35.4382 41.8988C35.4372 41.953 35.4362 42.0083 35.4352 42.0626C35.5445 42.128 35.6489 42.2013 35.7622 42.2576C38.5707 43.6549 40.0792 46.0153 40.5938 49.025C40.7272 49.803 41.2096 50.174 41.672 50.7611ZM80.3416 50.6585C82.791 50.7922 85.1602 48.6752 85.418 46.722C84.6817 46.9501 83.9245 47.2839 83.1351 47.4005C82.3276 47.5201 81.4891 47.4266 80.6957 47.4266C80.5753 48.5234 80.461 49.5738 80.3416 50.6585ZM96.7632 33.6959C96.8484 33.9784 96.8825 34.2166 96.9899 34.4157C97.1604 34.7343 97.4051 35.0148 97.5706 35.3365C97.7411 35.6682 97.9347 35.6813 98.2045 35.4812C98.9558 34.9253 99.7221 34.3905 100.453 33.8095C100.761 33.5652 101.031 33.2516 101.254 32.9249C101.533 32.5137 101.421 32.2152 100.971 31.995C100.822 31.9226 100.66 31.8643 100.497 31.8382C99.2226 31.6351 98.1152 32.0041 97.2005 32.8977C96.9899 33.1038 96.9016 33.4355 96.7652 33.6959H96.7632ZM69.0486 49.1225C72.2352 45.2824 70.2943 39.4258 66.9844 37.5732C66.8971 38.117 66.9422 38.6015 67.4187 38.9685C67.5751 39.0891 67.7116 39.2449 67.8299 39.4047C69.4879 41.6384 70.2572 44.1073 69.7086 46.8888C69.5621 47.6347 69.2803 48.3535 69.0486 49.1235V49.1225ZM42.6861 54.012C41.5677 50.3157 37.8856 47.8147 35.039 48.5264C35.2848 48.5988 35.4894 48.6651 35.697 48.7194C36.7311 48.9858 37.6419 49.4844 38.4814 50.1428C39.4583 50.9078 40.2006 51.8608 40.8295 52.9163C40.9127 53.056 41.003 53.2259 41.1354 53.2943C41.6209 53.5446 42.1264 53.7577 42.6861 54.013V54.012ZM62.899 21.5665C65.1458 22.6773 66.6142 24.4034 67.3013 26.7436C67.9904 29.0939 67.7116 31.3557 66.3474 33.5893C68.2171 31.9186 68.9834 28.4224 67.6845 25.5192C66.6604 23.2302 64.3183 21.5474 62.9 21.5655L62.899 21.5665ZM36.8495 41.3026C38.6188 41.9701 39.9679 43.1292 41.0481 44.7738C41.3521 43.5675 41.3651 42.4808 41.1725 41.3931C41.1535 41.2835 40.9248 41.1609 40.7763 41.1318C40.0772 40.994 39.3129 41.0202 38.685 40.7357C37.9077 40.3848 37.4493 40.6955 36.9538 41.1619C36.9307 41.184 36.9147 41.2142 36.8495 41.3026ZM54.6612 20.6839C58.2079 22.415 59.7405 25.3332 59.6793 29.2155C59.906 29.2567 60.1096 29.2929 60.3092 29.3281C61.1678 25.3694 58.2621 21.0659 54.6612 20.6839ZM73.8531 36.1457C75.469 33.7462 75.5753 31.219 74.2984 28.6757C73.2794 26.6481 71.6143 25.3624 69.3525 24.9291C71.513 25.8469 73.0597 27.3759 73.9464 29.5593C74.8411 31.7648 74.7488 33.9573 73.8541 36.1447L73.8531 36.1457ZM61.5149 20.507C60.233 19.2796 56.9752 19.2987 56.0042 20.2808C56.4777 20.5392 56.9471 20.8267 57.4446 21.0519C57.6943 21.1644 58.0123 21.2439 58.2741 21.1956C59.3654 20.9946 60.4466 20.7392 61.5149 20.508V20.507ZM75.828 31.042L75.6786 31.1396C75.806 31.3195 75.9133 31.5195 76.0637 31.6764C76.49 32.1217 76.9895 32.5077 77.3627 32.9932C78.9364 35.0399 79.5152 37.3359 78.9494 39.8832C78.8682 40.2511 78.7328 40.607 78.5944 41.0644C80.5804 38.305 79.8492 33.1651 75.829 31.042H75.828ZM70.2271 57.6139C71.8841 57.5455 73.1419 56.8298 74.2723 55.5581C73.9835 55.5832 73.822 55.6164 73.6635 55.6074C72.8862 55.5611 72.0968 55.5702 71.3365 55.4274C70.84 55.3339 70.6073 55.542 70.51 55.8999C70.3636 56.4397 70.3204 57.0077 70.2261 57.6139H70.2271ZM54.3262 50.4866C52.7585 49.8201 50.0342 50.4163 49.1285 51.6577C49.1757 51.6728 49.2188 51.6949 49.2629 51.6979C50.2659 51.7703 51.269 51.8447 52.272 51.906C52.3894 51.9131 52.5358 51.8849 52.6261 51.8166C53.2048 51.3773 53.7705 50.9229 54.3262 50.4856V50.4866ZM70.3084 54.9439C72.1299 52.9495 72.0627 48.9777 70.7768 47.1834C70.6645 47.7091 70.3926 48.2027 70.507 48.5797C71.0005 50.2152 71.169 51.8477 70.7778 53.5175C70.6695 53.9789 70.4829 54.4212 70.3084 54.9439ZM42.8767 40.8814C42.5065 40.9518 42.1615 41.0182 41.8014 41.0865C42.002 42.5622 42.001 43.9505 41.5547 45.3206C41.4815 45.5438 41.6219 45.8363 41.663 46.0977C42.8616 44.5255 43.1395 42.7975 42.8767 40.8824V40.8814ZM48.7243 24.9432C47.6631 23.759 45.2388 22.9126 43.995 23.3428C44 23.3579 44.001 23.383 44.0111 23.3871C45.0883 23.8485 46.1034 24.4094 46.9489 25.2417C47.0051 25.297 47.1335 25.3181 47.2167 25.3C47.7142 25.1915 48.2077 25.0678 48.7253 24.9432H48.7243ZM101.233 49.3085C102.035 48.9938 102.756 48.7516 103.435 48.4228C103.699 48.2952 104.047 48.1162 104.016 47.6749C104.009 47.5764 104.175 47.4246 104.294 47.3643C105.183 46.913 106.074 46.4676 106.975 46.0424C107.358 45.8615 107.767 45.7348 108.165 45.584C108.141 45.5368 108.117 45.4895 108.094 45.4433C105.266 45.6845 103.178 47.2658 101.234 49.3095L101.233 49.3085ZM68.856 18.6191C68.9633 18.6955 69.0676 18.779 69.18 18.8483C70.4127 19.6133 71.2382 20.7241 71.845 22.0169C72.3164 23.0201 72.496 24.0837 72.493 25.1854C72.493 25.4538 72.495 25.7293 72.8701 25.7564C73.5472 22.6562 71.4047 19.2806 68.857 18.6201L68.856 18.6191ZM75.7257 20.126C79.1892 22.5215 80.2112 25.6237 78.9514 29.51C80.9725 26.5938 79.6786 21.5826 75.7257 20.126ZM37.688 53.7798C37.7833 53.7999 37.8776 53.823 37.9739 53.8381C39.2868 54.0412 40.4694 54.5488 41.5186 55.3641C42.2237 55.912 42.5186 55.8476 42.9469 54.9962C41.3641 53.8703 39.6509 53.3033 37.688 53.7798ZM80.3457 46.5812C81.6797 44.7054 81.4801 41.2896 80.0829 39.5756C79.8532 39.9043 79.808 40.222 79.9876 40.598C80.1872 41.0172 80.3627 41.4544 80.4911 41.9008C80.9374 43.4448 80.8863 44.9859 80.3457 46.5802V46.5812ZM95.4813 50.9571C95.372 51.5974 95.5074 51.8186 96.1032 51.9151C96.706 52.0126 97.3148 52.0749 97.9457 52.1563C98.1634 51.698 98.3841 51.2315 98.6077 50.7611C97.5174 50.8294 96.4954 50.8927 95.4813 50.9561V50.9571ZM49.9791 46.5028C50.1807 46.5591 50.3823 46.6184 50.5849 46.6707C51.7574 46.9763 52.7775 47.5825 53.612 48.4329C54.0865 48.9164 54.5739 48.8923 55.2409 48.8631C53.7886 47.2346 52.1155 46.351 49.9791 46.5018V46.5028ZM84.7369 32.7138C86.3678 29.3894 84.4631 25.1593 81.2163 24.0988C84.3798 26.1625 85.5544 28.9662 84.7369 32.7138ZM59.2159 64.6084C60.4105 64.5682 61.4106 64.1671 62.3283 63.4765C61.3965 63.2885 60.5078 63.1086 59.6001 62.9246C59.4777 63.4584 59.3533 64.0042 59.2159 64.6084ZM86.084 30.4087C86.0388 30.4319 85.9927 30.455 85.9475 30.4781C86.0579 30.657 86.1472 30.8541 86.2826 31.0119C87.0569 31.9116 87.6226 32.9168 87.9175 34.0769C88.1893 35.1455 88.2044 36.2161 87.9506 37.4274C88.9466 35.4732 88.3057 32.0724 86.084 30.4097V30.4087ZM106.576 46.8516C106.59 46.8969 106.603 46.9421 106.617 46.9873C107.541 46.8697 108.464 46.7551 109.387 46.6335C109.483 46.6214 109.654 46.5702 109.653 46.54C109.639 45.9931 110.187 46.1087 110.548 45.8132C109.049 45.8524 107.821 46.3802 106.576 46.8506V46.8516ZM69.182 17.8491C69.8109 18.2452 70.4147 18.583 70.9694 18.9891C71.5371 19.4053 71.7407 19.4515 72.4458 19.0775C71.496 18.3115 70.4338 17.8994 69.182 17.8491ZM46.7594 22.9518C46.9178 23.0262 47.0843 23.0875 47.2328 23.178C47.8537 23.5579 48.5347 23.8736 49.0653 24.3551C49.4956 24.7451 49.8427 24.7431 50.3402 24.523C49.306 23.5881 48.1355 23.0463 46.7584 22.9518H46.7594ZM55.3021 51.3682C55.1085 51.9101 54.9451 52.3383 54.8106 52.7746C54.7856 52.856 54.8498 53.0098 54.922 53.0691C55.3172 53.3908 55.7274 53.6944 56.2069 54.0603C55.8979 53.1395 55.6221 52.3202 55.3021 51.3682ZM54.0855 46.8687C54.0223 45.9117 53.4445 45.206 52.3723 44.817C52.8517 45.5971 52.923 46.6968 54.0855 46.8687ZM88.3909 42.3984C88.8393 41.1056 88.8353 39.8219 88.3097 38.5342C88.2124 38.6639 88.1121 38.8197 88.1442 38.9393C88.4491 40.0782 88.5875 41.2242 88.3909 42.3984ZM69.6193 56.6227C69.4468 56.7815 69.173 56.9122 69.1188 57.1042C68.9212 57.8149 68.7978 58.5457 68.6263 59.361C69.2432 58.5115 69.5892 57.6521 69.6183 56.6227H69.6193ZM54.1637 52.662C54.3362 52.1584 54.4837 51.7251 54.6321 51.2918C54.592 51.2637 54.5519 51.2365 54.5117 51.2084C54.0804 51.4969 53.6502 51.7864 53.1406 52.1282C53.5228 52.3282 53.7996 52.472 54.1637 52.663V52.662ZM81.5202 19.4615C81.9044 20.7453 81.9455 21.9787 81.6556 23.2202C82.2765 22.232 82.2243 19.9722 81.5202 19.4615ZM80.0598 48.3947C79.9866 48.3675 79.9134 48.3404 79.8401 48.3133C79.7358 48.455 79.5573 48.5877 79.5392 48.7395C79.454 49.4462 79.4138 50.1589 79.3577 50.8686L79.5091 50.8998C79.6927 50.0644 79.8762 49.229 80.0588 48.3947H80.0598ZM61.228 19.4977C62.1267 19.8797 62.7095 20.8176 63.868 21.0076C63.0746 20.1934 62.1939 19.7762 61.228 19.4977ZM93.5565 44.8301C93.9156 45.3196 94.2135 45.7257 94.5395 46.1701C94.6167 45.7449 94.6889 45.3518 94.7682 44.9185C94.3449 44.8874 93.9778 44.8612 93.5575 44.8311L93.5565 44.8301ZM96.03 44.9386C95.9938 45.3438 95.9617 45.7077 95.9246 46.1228C96.383 45.6835 96.7782 45.3056 97.2306 44.8733C96.8043 44.8964 96.4603 44.9155 96.03 44.9386ZM101.269 48.3113C101.87 47.7976 102.47 47.2829 103.071 46.7692C102.342 47.1361 101.572 47.4568 101.269 48.3113ZM95.8604 39.6048C95.5375 39.5806 95.2456 39.5585 94.8875 39.5314C95.1332 39.9124 95.3268 40.2129 95.5615 40.5758C95.6649 40.2411 95.7511 39.9606 95.8604 39.6058V39.6048ZM53.6602 49.5427C53.6542 49.5658 53.6491 49.5889 53.6431 49.612C54.1657 49.7478 54.6873 49.8845 55.2099 50.0202C55.246 49.982 55.2811 49.9428 55.3172 49.9046C55.2058 49.784 55.1025 49.5708 54.9802 49.5588C54.5438 49.5166 54.1005 49.5417 53.6602 49.5417V49.5427ZM91.5715 44.5024C91.2726 44.3254 91.0239 44.1777 90.7169 43.9967C90.6889 44.2862 90.6658 44.5174 90.6367 44.81C90.9867 44.6944 91.2495 44.6079 91.5715 44.5024ZM94.1122 51.2647C94.1683 50.8586 93.5876 50.6706 92.7029 50.8354C93.2115 50.9902 93.6608 51.127 94.1122 51.2647ZM45.64 41.0423C45.2909 40.7065 45.0663 40.795 44.3822 41.5218C44.8356 41.3489 45.2277 41.1991 45.64 41.0423ZM97.9508 39.5766C97.0761 39.5646 97.0641 39.5766 97.0891 40.3275C97.365 40.0873 97.6188 39.8661 97.9508 39.5766Z" stroke="black" stroke-width="0.25"/>
<path d="M46.9641 62.4995C47.3011 61.3083 47.6361 60.1764 47.925 59.0324C47.9611 58.8896 47.7795 58.6514 47.6411 58.5177C47.5047 58.386 47.2951 58.3317 47.0804 58.2242C47.1627 57.9296 47.2399 57.6502 47.3332 57.3134C47.8548 57.5486 48.3202 57.7587 48.8237 57.9849C48.9491 57.5929 49.0684 57.2169 49.1878 56.844L50.0278 57.1911C50.0278 57.1911 49.7849 57.8187 49.6688 58.2907C49.8032 58.3571 50.0113 58.4976 50.1948 58.5871C50.3242 58.1789 50.4416 57.806 50.578 57.3737C50.8859 57.5195 51.1477 57.6431 51.4857 57.803C51.4857 57.803 51.1263 58.5247 51.1964 58.8099C51.2836 59.1649 51.5943 59.4577 52.0003 59.7481C52.8067 60.3261 52.8328 61.7908 51.7686 62.215C51.9481 62.6453 52.2209 63.0644 52.2751 63.5098C52.3172 63.8546 52.1487 64.2697 51.9632 64.5884C51.567 65.27 51.1166 65.3062 49.3864 64.9101C49.273 65.278 49.1577 65.65 48.9882 66.1998C48.6843 65.9103 48.3312 65.7284 48.2801 65.4841C48.2189 65.1936 48.4185 64.8478 48.5138 64.4939C48.3683 64.4135 48.2289 64.3371 48.0604 64.2446C47.9892 64.4688 47.929 64.6588 47.8678 64.8478C47.8086 65.0317 47.7484 65.2157 47.6752 65.4409C47.3693 65.2951 47.1206 65.1755 46.8858 65.0639C46.9591 64.5975 47.1948 64.0948 47.0413 63.7923C46.8899 63.4937 46.3422 63.3982 45.9691 63.2112C45.8959 63.175 45.8307 63.1248 45.7274 63.0584C45.8708 62.7689 46.0092 62.4925 46.1587 62.1899C46.4235 62.2924 46.6521 62.3809 46.9641 62.5005V62.4995ZM48.8107 61.6139C48.6401 62.221 48.5037 62.7076 48.3523 63.2494C48.8287 63.4253 49.251 63.6364 49.6983 63.7259C49.9461 63.7752 50.3433 63.7098 50.4797 63.5399C50.7184 63.2444 50.598 62.8403 50.2971 62.6081C49.8458 62.2592 49.3493 61.9687 48.8107 61.6129V61.6139ZM49.0373 60.8107C49.3734 60.9464 49.6562 61.1203 49.9571 61.1635C50.236 61.2037 50.6642 61.2077 50.7966 61.0429C51.0675 60.7061 50.8959 60.3 50.5559 60.0477C50.2279 59.8044 49.8588 59.6154 49.4566 59.3712C49.3102 59.8748 49.1808 60.3161 49.0363 60.8107H49.0373Z" stroke="black" stroke-width="0.25"/>
<path d="M13.3441 48.8641C13.1423 47.6427 12.964 46.4758 12.7387 45.3176C12.7106 45.1731 12.445 45.0347 12.2628 44.9726C12.0834 44.9115 11.8706 44.9515 11.6305 44.9455C11.5797 44.6439 11.5307 44.3582 11.4718 44.0137C12.0439 44.0047 12.5545 43.9969 13.1064 43.9873C13.0531 43.5792 13.0011 43.1882 12.9505 42.7999L13.8584 42.7566C13.8584 42.7566 13.9055 43.428 14.0013 43.9046C14.1511 43.9074 14.3993 43.9461 14.6034 43.9489C14.5469 43.5245 14.4944 43.1371 14.434 42.6879C14.7747 42.6888 15.0642 42.6893 15.4381 42.6902C15.4381 42.6902 15.4199 43.4962 15.6047 43.7245C15.8346 44.0087 16.2404 44.1415 16.7313 44.2316C17.707 44.4116 18.3537 45.726 17.5711 46.5627C17.9166 46.8757 18.3419 47.139 18.5803 47.5189C18.7652 47.8131 18.7893 48.2605 18.7569 48.6278C18.6883 49.4132 18.2961 49.6375 16.5618 50.0152C16.6158 50.3963 16.6696 50.782 16.7501 51.3518C16.3519 51.2191 15.955 51.2046 15.8048 51.0053C15.6258 50.7684 15.6593 50.3705 15.595 50.0098C15.4292 49.9989 15.2705 49.989 15.0787 49.977C15.1096 50.2102 15.136 50.4077 15.161 50.6048C15.1857 50.7965 15.2095 50.9886 15.239 51.2235C14.9002 51.2217 14.6242 51.2193 14.3643 51.2182C14.2321 50.7649 14.2316 50.2097 13.964 50.0012C13.6999 49.7954 13.1637 49.942 12.7464 49.9315C12.6648 49.9299 12.5844 49.9122 12.4627 49.8961C12.4693 49.5731 12.477 49.264 12.4835 48.9266C12.7667 48.9067 13.0113 48.8895 13.3445 48.865L13.3441 48.8641ZM14.6385 47.2771C14.7425 47.8991 14.826 48.3974 14.9194 48.9522C15.4255 48.9087 15.8974 48.9201 16.3403 48.8108C16.5855 48.75 16.9172 48.5218 16.9683 48.3101C17.0586 47.941 16.7778 47.6265 16.4067 47.5444C15.8498 47.4207 15.2769 47.369 14.638 47.2761L14.6385 47.2771ZM14.5019 46.4537C14.8637 46.4336 15.1937 46.4706 15.4844 46.3817C15.7539 46.2995 16.1432 46.1209 16.1929 45.9154C16.2947 45.4954 15.9667 45.2009 15.5516 45.1172C15.1513 45.0366 14.7368 45.0226 14.2689 44.9726C14.3507 45.4907 14.4213 45.9451 14.501 46.4542L14.5019 46.4537Z" stroke="black" stroke-width="0.25"/>
</svg>
