<svg xmlns="http://www.w3.org/2000/svg" viewBox="0 0 112 72">
<path d="M110.8,37.52c-.22-.11-.44-.23-.66-.35-1.25-.67-2.53-1.35-4.01-1.53-.1-.01-.21-.05-.32-.1-.08-.03-.16-.06-.24-.08h-.04c-1.7-.48-3.46-.96-5.29-.65-.89.15-1.76.39-2.79.7-.59.18-1.13.42-1.77.73-.23.11-.44.25-.66.41-.05.03-.1.07-.15.11-.2-1.04-.75-1.75-1.68-2.16.06-.03.11-.05.16-.08.28-.13.53-.26.78-.41,1.04-.63,1.66-1.65,1.66-2.71,0-.89-.42-1.7-1.18-2.25l.05-.02c.19-.09.38-.17.57-.27.76-.38,1.33-.93,1.7-1.63.38-.73.41-1.45.09-2.01-.32-.57-.96-.9-1.78-.95-.23-.01-.46,0-.71,0-.02,0-.03,0-.05,0,.03-.03.06-.06.09-.09.21-.22.4-.42.57-.65.37-.49.5-.98.37-1.4-.13-.43-.52-.77-1.13-.97-1.45-.49-3.55.12-4.49,1.32-.5.64-.6,1.33-.3,2.06l.09.21c-1.5-.72-3.46-.13-4.41.95-.5.57-.73,1.19-.67,1.81.06.59.39,1.12.96,1.55l-1.14.6v-.04c-.01-.14-.03-.28-.03-.42-.11-3.69-.89-7.24-2.3-10.54-2.49-5.81-6.35-10.41-11.48-13.65C65.48,1.75,59.88.39,53.97.94c-3.01.28-5.9,1.13-8.57,2.53-3.92,2.04-7.06,4.97-9.34,8.71-.32.53-.7.65-1.28.7-2.28.2-4.67.54-6.58,2.3-.07.07-.29.09-.4.05-1.12-.43-2-.58-2.85-.49-.92.1-1.86.28-2.68.45-1.57.31-2.79.93-3.73,1.87-.69.7-1.24,1.5-1.68,2.47-.06.13-.21.28-.31.3-.45.09-.9.16-1.34.23-.55.09-1.11.18-1.66.3-.89.19-2.04.51-3.02,1.3-1.59,1.28-2.53,3.04-2.73,5.08-.1,1-.5,1.24-1.27,1.35-.85.13-1.67.48-2.43,1.04-1.7,1.26-2.67,3.05-2.88,5.32-.37,4.11,1,7.45,4.07,9.94,2.19,1.77,4.52,2.14,6.94,1.08.31-.14.62-.27.94-.4.4-.17.79-.34,1.19-.51,1.16-.51,2.07-1.37,2.79-2.62.62-1.09.98-2.33,1.07-3.69,0-.15.11-.34.17-.37.5-.22,1.03-.42,1.54-.61.14-.05.28-.1.42-.16,0,.07,0,.14,0,.21-.22,1.83.14,3.63,1.11,5.5.06.11.07.29.03.48-.24,1.2-.24,2.41,0,3.59.37,1.8,1.2,3.4,2.46,4.78.22.24.39.55.46.85.77,3,2.45,5.2,5,6.53.59.31,1.01.75,1.45,1.21,2.09,2.2,4.37,3.13,6.99,2.85.53-.06,1.03-.02,1.57.12.66.17,1.36.21,1.97.22.04,0,.07,0,.11,0,1.25,0,2.47-.4,3.64-1.19l.41-.27c1.14-.75,2.32-1.54,3.07-2.79.1-.17.28-.33.5-.47,1.36-.84,2.35-1.85,3.04-3.09.07-.13.17-.23.2-.23.32,0,.64-.06.94-.11.5-.08.97-.16,1.46-.05,5.65,1.2,11.4,2.41,16.96,3.57l5.23,1.09c.14.03.29.06.43.1l.1.02v.07c0,.1,0,.19,0,.27,0,.31,0,.62,0,.93-.01.71-.03,1.44.1,2.14.22,1.15.7,2.24,1.44,3.23,1.21,1.63,2.76,2.78,4.62,3.43,1.96.68,3.96,1.02,5.97,1.02.25,0,.5,0,.74-.02,2.32-.1,4.1-.76,5.59-2.1.94-.84,1.97-1.88,2.47-3.25.68-1.85.83-3.95.44-6.41-.27-1.72-.95-3.34-2.02-4.83-1.05-1.46-1.08-2.8-.08-4.34.61-.95,1.11-1.99,1.6-3l.06-.12c.39-.81-.09-1.99-.76-2.46-.83-.58-1.62-.97-2.42-1.17-.13-.03-.26-.08-.41-.13.06-.02.12-.04.17-.06.57-.21,1.14-.41,1.7-.62,1.34-.49,2.73-.99,4.11-1.47.98-.34,1.98-.63,2.91-.89.78-.22,1.57-.43,2.34-.63.36-.09.71-.19,1.09-.29.05-.01.12-.03.18-.09.29-.33.66-.29,1.06-.26h.14c.48.05,1,.12,1.64.21.62.1,1-.08,1.2-.58.28-.69-.31-1-.54-1.11ZM55.31,53.53c-.83.57-1.7.87-2.66.93l.32-1.41,2.34.47ZM75.2,10.3c.07.28.1.6.1.94-.01-.31-.05-.62-.1-.94ZM106.96,38.13c.04.11.05.2.02.25-.04.08-.19.13-.34.17-.82.25-1.67.46-2.49.67-1.48.37-3.01.75-4.46,1.4-1.19.53-2.46.94-3.69,1.33-.55.18-1.1.35-1.65.54-.08.03-.16.05-.25.07-.17.04-.34.08-.5.18-.4.26-.73.21-1.17-.2.08-.07.17-.13.25-.2.31-.24.63-.48.92-.75.13-.12.4-.48.3-.68-.07-.13-.15-.21-.26-.24-.18-.04-.36.08-.51.19l-.51.36c.25-.56.53-.99,1.05-1.27.02.08.05.15.06.22.04.24.15.41.31.47.08.03.25.05.44-.12,1.69-1.5,3.85-1.73,5.93-1.96l.3-.03c1.12-.12,2.43-.21,3.72.06.13.03.39.08.54-.05.09-.07.13-.19.12-.34,0-.2-.31-.42-.5-.47-.27-.06-.54-.11-.82-.14.21,0,.42.02.63.03.4.02.8.11,1.19.19.17.04.35.07.52.11.04,0,.08.02.13.03.18.05.52.14.64-.28.06-.22,0-.35-.12-.44,1.23.11,2.37.55,3.59,1.08-.07,0-.14,0-.21,0-.22-.02-.45-.05-.67-.08-.34-.04-.68-.08-1.02-.11-.05,0-.1,0-.15,0-.32-.02-.5-.04-.6-.33-.04-.12-.21-.19-.29-.21-.13-.04-.21-.03-.27.02-.13.11-.26.36-.2.54ZM93.93,43.98h0c1.23.35,2.39.69,3.35,1.48.04.03.07.08.11.13h-.11c-.05,0-.11-.02-.16-.03-.15-.03-.31-.05-.43.03-1.25.8-2.65.84-4.13.87.11-.11.22-.22.33-.32.59-.56,1.2-1.14,1.05-2.15ZM95.12,51.61c-.33.95.04,1.77.45,2.53.12.21.23.43.35.64.53.97,1.08,1.98,1.51,3,.35.82.5,1.76.59,2.48.21,1.72.11,3.24-.32,4.67-.3.99-.79,1.84-1.52,2.6-.17.18-.36.34-.55.5-.15.13-.31.26-.46.4-1.15,1.11-2.63,1.66-4.79,1.77-2.14.11-4.3-.2-6.42-.92-1.77-.6-3.22-1.68-4.29-3.19-.86-1.21-1.3-2.57-1.35-4.14-.05-1.67.19-3.4.76-5.3.1-.32.31-.63.52-.92.08-.11.15-.22.23-.33.21-.32.43-.63.66-.96.08-.11.16-.22.24-.33l.04.05c.1.11.18.21.26.3.27.3.58.46.87.44.29-.02.56-.19.79-.51.2-.28.4-.56.59-.84.3-.42.61-.86.92-1.28.07-.09.25-.17.36-.16.96.09,1.69-.19,2.2-.87.25-.33.54-.52.99-.63,1-.26,1.81-.92,2.46-2.01.08-.14.16-.29.24-.43l.08-.14c.27-.49.65-.7,1.29-.71.77-.02,1.55-.09,2.3-.15.38-.04.77-.07,1.15-.1.61-.04,1.2-.29,1.85-.76.12-.09.17-.25.21-.4.02-.06.03-.11.05-.16l.04-.1c.16.33.24.89.08,1.19-.31.61-.64,1.22-.96,1.81-.28.52-.56,1.04-.83,1.56-.24.46-.44.93-.6,1.4ZM8.75,27.48c-.07.01-.14.03-.22.04.04-.19.07-.38.1-.57.09-.52.18-1.01.33-1.48.6-1.77,1.58-2.97,3-3.67,1.44-.71,2.93-.75,4.42-.12,2.5,1.06,4.14,3.03,5.01,6.03.56,1.94.53,3.82-.09,5.61-.6,1.72-1.6,2.9-3.06,3.59-.02-.15-.04-.29-.06-.43-.06-.41-.11-.79-.19-1.18-.44-2.11-1.39-3.93-2.83-5.42-1.63-1.68-3.43-2.5-5.49-2.5-.09,0-.18,0-.27,0-.2,0-.41.04-.64.09ZM48.54,41.79l.02-.06.66,1.97-.02-.02c-.33-.25-.64-.49-.94-.73-.04-.03-.08-.13-.07-.16.1-.32.21-.64.35-1ZM47.73,41.37l-.38,1.1-.71-.37,1.09-.73ZM42.39,14.22c-.39-.36-.87-.62-1.33-.88-.12-.07-.25-.14-.37-.21.97.19,1.84.62,2.65,1.31-.39.13-.64.07-.96-.22ZM81.64,28.78c.24.65.34,1.3.31,1.97-.04-.59-.15-1.21-.33-1.87,0-.02,0-.05.02-.1ZM73.25,38.45l-.38,1.74c.04-.48.07-.98.13-1.46,0-.06.08-.15.16-.22.02-.02.04-.05.06-.07h.03ZM47.33,40.5l-.23.19c-.43.34-.86.68-1.29,1.01-.06.04-.17.07-.27.06-.9-.06-1.79-.12-2.69-.19l-.25-.02c.93-1.04,3.25-1.56,4.74-1.05ZM38.12,31.16c.16-.13.28-.21.38-.21,0,0,0,0,0,0,.03,0,.07,0,.1.03l-.49.19ZM78.61,36.88c-.36,1.74-2.43,3.64-4.71,3.64-.03,0-.06,0-.09,0l.33-2.99c.2,0,.41,0,.61.02.57.02,1.16.04,1.74-.04.56-.08,1.11-.27,1.64-.46.16-.06.32-.11.48-.16ZM63.73,47.07c.05-.41.11-.79.21-1.16.08-.28.22-.4.48-.4.06,0,.13,0,.2.02.57.11,1.16.13,1.73.15.21,0,.41.02.62.03.09,0,.19,0,.3-.02-1.07,1.11-2.22,1.67-3.59,1.77.02-.13.04-.26.05-.39ZM48.23,39.66s.11.11.15.16c0,0,.01.02.02.02l-.81-.21c.22,0,.44,0,.65.02ZM39.51,37.85c.85-.5,1.74-.71,2.6-.71,1.56,0,3.03.7,4.02,1.64l-2.23.92c-1.02.42-1.91,1.07-2.65,1.93-.14.17-.33.31-.5.38l-.22.1c-1.12.49-2.29.99-3.29,1.77-.01.01-.03.02-.06.03-.47-2.02.17-4.79,2.34-6.06ZM46.96,38.32c-.8-.82-1.75-1.4-2.83-1.72,1.52.11,2.85.8,4.1,2.13-.52.01-.9-.02-1.27-.4ZM35.45,37.23c-.07-.25-.03-.43.14-.67.74-1.03,1.17-2.11,1.26-3.2.05-.55.27-.84.78-1.03.63-.23,1.25-.44,1.86-.44.17,0,.35.02.52.05,1.62.34,3.43.93,4.58,2.69.19.3.38.6.56.91l.2.33c-2.24-.79-4.19.07-6,1.03-1.83.97-2.9,2.63-3.18,4.95-.34-.44-.57-.8-.48-1.35.17-1.01.09-2.09-.25-3.28ZM66.09,15.57c-.14-.05-.16-.17-.16-.43,0-1.22-.21-2.27-.66-3.22-.58-1.23-1.3-2.17-2.19-2.86,2.26,1.18,3.45,4.21,3.01,6.51ZM73.95,31.84c-.12-.43-.3-.87-.51-1.32-.13-.27-.13-.5,0-.75,1.08,1.46,1.33,3.91.67,5.7.24-1.23.19-2.42-.16-3.63ZM47.2,36.69c-.66-.17-.89-.71-1.14-1.27-.05-.12-.11-.25-.17-.37.76.36,1.2.91,1.3,1.65ZM72.4,29.88c.56-2.52.02-4.88-1.62-7-.24-.31-.54-.59-.82-.85-.17-.16-.33-.31-.49-.47-.1-.1-.17-.22-.26-.35,0-.01-.01-.02-.02-.03,1.77.97,3,2.6,3.47,4.61.34,1.46.23,2.95-.28,4.17,0-.02.01-.05.02-.07ZM71.12,30.93c-1.03,2.32-3.99,3.96-6.37,3.55,0-1.62-.42-3.19-1.32-4.8,3.55-1.26,5.5-3.65,5.81-7.1,2.02,1.6,3.29,5.16,1.88,8.34ZM50.91,19.56c1.86,3.73,1,7.37-.89,9.39,1.28-2.29,1.52-5.04.64-7.68-.92-2.78-2.9-4.92-5.46-5.94,1.72.02,4.68,2.14,5.72,4.23ZM57.94,32.83c1.17-2.46,1.23-5,.2-7.56-1.04-2.58-2.82-4.33-5.43-5.33,2.34.3,5.11,2.12,6.29,5.34.95,2.6.49,5.68-1.05,7.55ZM52.46,21.13c-.02-.12-.04-.23-.07-.36,1.5.52,2.71,1.39,3.7,2.67,1.3,1.67,1.93,3.56,1.88,5.61-.08,3.32-1.96,5.94-4.92,6.84-1.59.49-3.23.34-4.85-.44-1.36-.65-2.46-1.58-3.28-2.77.27-.11.54-.22.81-.33.69-.28,1.34-.55,2.01-.8,3.15-1.15,5.22-4.46,5.05-8.04-.03-.56-.13-1.13-.22-1.67-.04-.24-.08-.48-.12-.72ZM52.07,11.97s-.05-.05-.07-.08c2.16-.66,4.86.32,6.49,2.37,1.78,2.24,2.54,6.07.49,8.85-.13-.15-.25-.3-.38-.45-.35-.42-.72-.86-1.1-1.27-.76-.8-1.7-1.42-2.79-1.83-.25-.1-.31-.19-.28-.46.34-2.74-.45-5.14-2.35-7.13ZM62.18,15.58c.35.13.71.26,1.04.44,2.68,1.4,4.28,4.61,3.81,7.63-.37,2.39-1.64,4.12-3.76,5.14-.26.12-.36.1-.6-.16-.56-.61-1.21-1.2-1.97-1.8-.34-.27-.56-.52-.61-.92v-.05c-.03-.18-.05-.38-.15-.54-.3-.48-.15-.77.29-1.25,2.2-2.38,2.74-5.25,1.59-8.52-.01-.04-.03-.08-.04-.12.13.05.26.1.38.14ZM60.26,22.69c.93-1.94,1.08-3.92.46-6.02-.63-2.14-1.92-3.79-3.84-4.92,1.36.4,3.14,1.88,3.99,3.78,1.06,2.35.76,5.29-.61,7.16ZM62.7,38.42c.17-.52.33-1.01.44-1.53.53-2.67-.1-5.15-1.91-7.59-.15-.2-.29-.35-.44-.46-.34-.26-.46-.58-.41-1.09,1.65,1,2.92,2.98,3.33,5.22.37,2,.01,3.91-1.01,5.46,0,0,0,0,0,0ZM67.7,24.93c.5-1.86.39-3.69-.32-5.46-.73-1.79-1.92-3.17-3.54-4.13,1.61.59,2.85,1.72,3.67,3.35,1.08,2.15,1.15,4.24.2,6.24ZM64.41,14.6c-.62-.19-1.25-.38-1.89-.55-.23-.06-.48-.09-.71-.09-.09,0-.19,0-.28.02-.43.05-.67-.09-.84-.45-.03-.07-.09-.17-.18-.25-.6-.5-1.14-1.08-1.67-1.64-.81-.86-1.65-1.76-2.7-2.4,0,0-.01,0-.02,0,1.33-.94,3.85-.99,5.5-.08,2.27,1.25,3.46,3.8,3.36,5.62-.19-.06-.39-.12-.58-.17ZM53.49,19.14l-.41-.07c.03-3.71-1.44-6.45-4.37-8.16,1.3.36,2.52,1.25,3.44,2.51,1.22,1.69,1.72,3.82,1.34,5.72ZM52.07,18.91c-.21-.02-.5-.05-.6-.16-.21-.23-.4-.5-.59-.76-.18-.25-.36-.51-.57-.74-1.47-1.67-3.35-2.62-5.58-2.83-.08,0-.16-.03-.21-.07-.16-.13-.32-.27-.48-.41-.29-.25-.6-.52-.92-.74-.35-.23-.71-.42-1.1-.61-.12-.06-.24-.12-.36-.18.94-.86,2.08-1.34,3.39-1.41.12,0,.25,0,.37,0,2.08,0,3.84.94,5.24,2.81,1.01,1.35,1.51,2.95,1.5,4.76,0,.11-.06.28-.1.36ZM64.21,43.52c.36-1.55.28-3.19-.27-5.01-.07-.22.03-.51.13-.82.02-.08.05-.16.07-.24.99,1.65,1.07,4.77-.13,6.73.08-.22.15-.44.2-.67ZM72.08,39.32c-.16,1.8-.77,3.1-1.93,4.1-1.49,1.29-3.25,1.72-5.24,1.3l1.06-3.73c2.06.38,4.07-.16,6.11-1.67ZM67.64,40.19c-.45.04-.94-.02-1.41-.09l-.21-.03c-.07,0-.22-.15-.22-.22-.17-1.34-.66-2.56-1.08-3.47-.08-.19-.08-.43-.08-.68,0-.08,0-.16,0-.24h.07c3.35,0,6.01-1.37,8.1-4.19.68,1.64.75,3.24.22,4.77-.87,2.5-2.69,3.89-5.39,4.15ZM75.33,32.58c1.99-.21,3.76-1.11,5.56-2.81.45,1.76.01,3.62-1.19,5.01-1.26,1.46-3.12,2.14-5.11,1.9.63-1.38.88-2.72.75-4.09ZM80.46,23.93c.56,1.99.27,3.79-.86,5.34-1.01,1.39-2.45,2.2-4.27,2.41-.05,0-.17-.11-.18-.16-.22-.92-.67-1.74-1.1-2.54l-.15-.27c-.18-.33-.14-.8-.1-1.26,0-.11.02-.21.02-.29.04-.06.34-.17.47-.22,1.98-.72,3.36-1.81,4.23-3.34.24-.43.43-.9.62-1.36.06-.15.12-.3.19-.45.52.6.92,1.34,1.14,2.14ZM72.7,18.44c.7-3.09-.15-5.62-2.57-7.69,1.25.78,2.19,2.01,2.67,3.51.45,1.44.41,2.93-.09,4.18ZM55.52,9.96c.44.21.83.45,1.18.75-.43-.17-.79-.44-1.13-.71-.02-.01-.04-.03-.05-.04ZM49.48,10.21c1.01-.78,3.75-.79,5.04.18-.21.04-.41.09-.62.14-.78.17-1.58.35-2.38.5-.21.04-.49-.01-.76-.13-.35-.16-.69-.35-1.02-.54-.09-.05-.17-.1-.26-.15ZM35.16,31.16l.83-.16c.24,1.9-.1,3.43-1.05,4.78-.04-.16-.09-.33-.05-.45.4-1.22.48-2.51.27-4.18ZM34.16,42.83c-.71-1.19-1.49-2.11-2.39-2.81-.92-.72-1.85-1.19-2.84-1.45-.05-.01-.1-.03-.15-.04,2.68-.31,5.83,2.03,6.93,5.23-.07-.03-.13-.06-.2-.09-.38-.17-.74-.33-1.09-.51-.09-.05-.17-.18-.23-.29l-.02-.04ZM55.8,35.69c2.54-1.35,4.02-3.37,4.5-6.15.1.15.21.3.32.46.28.4.57.8.8,1.23.91,1.75,1.2,3.62.85,5.56-.48,2.69-2.75,4.93-5.4,5.32-2.47.36-4.61-.39-6.54-2.29-.88-.87-1.54-1.91-2.02-3.19-.02-.05-.03-.1-.05-.16,2.39.93,4.8.68,7.54-.77ZM81.4,24.01c-.29-1.13-.83-2.15-1.67-3.12-.07-.08-.13-.18-.19-.28,1.57,1.29,2.25,3.46,2.07,5.22,0-.62-.06-1.22-.22-1.83ZM73.69,26.2c-.31-1.74-1.06-3.2-2.27-4.46,1.12-1.03,1.83-2.07,2.21-3.26.4-1.25.47-2.54.21-3.83,2.54.84,3.84,4.07,3.77,6.06-.09,2.5-1.73,4.78-3.92,5.48ZM71.86,18.19c-.19.87-.61,1.7-1.23,2.47-.16.2-.26.21-.46.07-.18-.13-.38-.25-.58-.36-.14-.08-.28-.16-.41-.24-.12-.08-.21-.17-.23-.25-.39-1.3-1.03-2.46-1.92-3.43-.07-.07-.11-.24-.09-.35.39-2.18-.07-4.21-1.38-6.01h0c1.12-.08,2.17.17,3.13.73,2.66,1.57,3.85,4.32,3.17,7.36ZM64.35,8.84c-.39-.28-.79-.53-1.22-.79-.05-.03-.09-.06-.14-.08.93.12,1.77.46,2.53,1.04-.52.25-.69.19-1.18-.17ZM31.84,30.82c.43.19.92.25,1.4.3.24.03.49.06.73.1.13.03.28.12.3.16.19,1.05.17,2.03-.06,3.06-1.06-1.53-2.36-2.59-3.96-3.23.53-.5.93-.7,1.59-.4ZM33.13,34.46c1.36,1.8,1.93,3.79,1.71,5.92,0,.02,0,.05-.01.07-.05-.06-.1-.12-.15-.18-.34-.39-.64-.73-.74-1.3-.55-3.21-2.2-5.52-4.91-6.86-.07-.04-.14-.08-.21-.12h-.02s.1-.03.15-.03c.19-.03.38-.06.54-.02,1.42.34,2.65,1.19,3.65,2.52ZM36.01,45.02c-.19.35-.33.52-.49.55-.16.04-.37-.06-.71-.32-.96-.75-2.05-1.24-3.24-1.48,1.49-.19,2.95.22,4.43,1.26ZM62.78,46.87c-.06.65-.25,1.25-.6,1.86,0,0,0-.01,0-.02.11-.56.22-1.08.36-1.59.02-.08.13-.17.24-.25ZM41.07,15.89c.2-.01.39-.03.59-.05.48-.05.98-.1,1.46-.05,2.19.24,4.01,1.33,5.42,3.25,1.22,1.67,1.8,3.54,1.73,5.57-.1,2.86-1.25,4.97-3.41,6.26-2.01,1.2-4.08,1.28-6.15.24-.48-.24-.93-.52-1.41-.82-.17-.1-.34-.21-.52-.32.1-.06.19-.11.28-.16.29-.16.54-.31.78-.47,2.39-1.71,3.52-4.12,3.45-7.36-.04-2.16-.77-4.14-2.22-6.04v-.05ZM49.73,40.47c.44.39.89.8,1.38,1.13,2.34,1.57,4.75,1.92,7.18,1.05,2.02-.73,3.64-1.83,4.92-3.35.69,2.57.33,4.72-1.11,6.56-1.25,1.6-2.97,2.4-4.98,2.32-3.17-.14-5.55-1.77-7.07-4.86-.5-1.01-.75-2.09-.74-3.22.14.12.28.25.42.37ZM78.43,21.32c.24-2.7-.67-4.88-2.77-6.61,1.03.64,1.87,1.64,2.38,2.86.52,1.22.64,2.54.38,3.75ZM41.72,14.83l-.18.04c-.38.09-.75.18-1.12.26-.05.01-.14,0-.15-.02-.71-.69-1.55-1.24-2.72-1.77,1.19-.2,3.15.49,4.17,1.49ZM56.62,49.05c1.75.14,3.38-.31,4.96-1.4h.01c-.06.19-.12.38-.18.56-.14.45-.29.91-.52,1.31-1.5,2.71-4.57,3.77-7.63,2.62-.08-.03-.19-.17-.19-.23,0-1.57-.35-3.12-1.07-4.72,1.44,1.11,2.96,1.71,4.62,1.85ZM74.19,13.01c-.52-.05-.97-.12-1.31-.7-1.01-1.73-2.54-2.83-4.55-3.27-.12-.03-.23-.08-.31-.14-.57-.44-1.14-.89-1.71-1.34l-.52-.41c1.25-1.26,3.91-1.6,5.47-.67,2.68,1.6,3.64,3.74,2.93,6.53ZM68.27,5.09c-.59.18-1.19.36-1.76.6-.55.23-1.04.61-1.53,1-.21.17-.38.22-.67.21-.9-.03-1.61,0-2.26.08-1.3.16-2.6.39-3.81.6-1.15.2-2.11.56-2.94,1.09-.1.06-.25.09-.36.07-2.07-.53-4.14-.22-6.53,1-.06.03-.27.13-.38.11-1.2-.23-2.36.03-3.49.27l-.18.04c-1.39.3-2.61.93-3.62,1.88-.09.08-.2.13-.23.12-1.13-.22-2.23.02-3.3.25-.07.02-.14.03-.21.04,2.78-4.75,7.61-8.35,13.28-9.9,2.06-.56,4.17-.84,6.28-.84,4.18,0,8.37,1.1,12.21,3.25-.17.05-.33.1-.5.15ZM39.85,28.21c1.65-2.45,2.05-5.19,1.19-8.16-.84-2.92-2.6-5-5.22-6.21,2.74.35,5.28,2.7,6.21,5.85.85,2.88.22,6.79-2.18,8.53ZM40.4,24.7c-.38,2.12-1.43,3.72-3.14,4.76-1.66,1.01-3.49,1.17-5.44.46-.03-.01-.06-.03-.1-.06,1.46-1.86,2.06-4.56,1.62-7.26-.48-2.89-2.04-5.32-4.4-6.85.51-.56,1.18-.98,2.01-1.23,2.57-.81,4.89-.2,6.9,1.82,2.28,2.28,3.13,5.1,2.55,8.37ZM29.9,30.33c1.62-2.41,2.02-5.16,1.19-8.18-.84-3.06-2.67-5.26-5.43-6.55.03,0,.05,0,.08,0,1.53.19,2.87.83,3.98,1.9,1.93,1.86,2.9,4.17,2.89,6.89-.01,2.56-.92,4.55-2.7,5.93ZM28.53,30.53c-1.09,1.13-2.42,1.69-4.05,1.71.66-2.65.34-5.21-.93-7.62-1.36-2.56-3.33-4.14-5.87-4.7.49-1.27,1.3-2.27,2.4-2.96,2.43-1.54,5.46-1.07,7.72,1.2,1.73,1.74,2.67,3.9,2.79,6.44.11,2.4-.58,4.4-2.06,5.95ZM23.42,32.63c-.46,1.29-1.22,2.3-2.25,3,1.57-2.27,1.95-5.34,1.02-8.37-.96-3.12-3.09-5.53-5.77-6.55.82-.03,1.55.11,2.27.43,2.47,1.09,4.07,3.05,4.9,5.99.53,1.88.47,3.73-.16,5.5ZM21.26,37.15c.02-.25.18-.57.37-.7,1.08-.78,1.89-1.8,2.43-3.03.11-.25.25-.28.56-.31.81-.08,1.54-.17,2.23-.4.25-.08.48-.12.7-.12.27,0,.53.06.8.18,2.31,1.04,3.79,2.82,4.52,5.43.05.18.09.36.14.57,0,.02,0,.05.02.07-1.43-.88-2.65-1.25-3.9-1.23h-.08c-.4,0-.82.02-1.2.14l-.43.14c-1.78.57-3.61,1.17-4.8,2.85-.18.26-.34.54-.51.83-.04.08-.09.15-.13.23-.4-.75-.64-1.55-.72-2.44-.06-.63-.06-1.34.01-2.23ZM22.63,42.54c.71-2.02,2.63-3.31,4.7-3.31.45,0,.9.06,1.35.19,1.8.5,3.22,1.58,4.35,3.29.02.04.04.07.07.12-.13,0-.26,0-.38-.01-.44-.01-.85-.03-1.26.03-.62.09-1.26.26-1.86.51-.75.31-1.69.69-2.49,1.21-1.94,1.25-2.9,3.2-2.95,5.95,0,.03,0,.05,0,.08-.08-.12-.16-.23-.24-.35-.24-.34-.48-.69-.67-1.06-1.17-2.24-1.37-4.48-.62-6.64ZM25.18,49.12c.43-2.65,2.16-4.32,4.76-4.59.11-.01.22-.02.33-.02,1.23,0,2.99.61,3.82,1.33-.21.1-.41.19-.62.29-.56.26-1.14.53-1.7.81-1.56.81-2.65,2.02-3.22,3.61-.84,2.33-.64,4.75.62,7.39l.02.03c-.12-.09-.24-.18-.36-.27-.36-.27-.74-.55-1.05-.87-2.2-2.28-3.08-4.87-2.62-7.71ZM29.03,52.23c.34-2.77,2.49-4.81,5.24-4.96.02,0,.04,0,.07,0,.1,0,.21.01.33.02-.04.04-.08.08-.12.11-.21.19-.42.38-.6.57-1.83,1.95-2.43,4.33-1.84,7.3.52,2.62,1.93,4.81,4.19,6.51.21.16.44.3.67.44.06.03.12.07.17.11-.15-.02-.31-.04-.46-.05-.45-.05-.91-.1-1.34-.22-1.97-.55-3.59-1.78-4.82-3.65-1.26-1.94-1.75-3.95-1.48-6.17ZM34.47,48.72c-.44,3.39.82,6.82,3.4,9.24,2.26,2.12,5.19,3.04,7.9,2.5-.01.02-.03.04-.04.05-1.37,1.55-3.05,2.24-4.98,2.04-2.59-.26-4.65-1.56-6.31-3.98-1.07-1.57-1.63-3.29-1.65-5.12-.02-1.92.52-3.44,1.68-4.73ZM35.56,52.4c-.47-1.94-.37-3.66.29-5.24.89-2.12,2.43-3.37,4.59-3.74.44-.07.87-.11,1.3-.11,2.05,0,3.93.86,5.73,2.62,1.48,1.45,2.43,3.26,2.82,5.41.05.27.07.54.1.84.01.14.02.28.04.42,0,2.53-.8,4.42-2.44,5.76-1.24,1.02-2.74,1.46-4.46,1.33-4.12-.32-7.18-3.99-7.97-7.28ZM49.7,47.37c-1.73-2.83-4.1-4.44-7.21-4.9,3.31-.48,6.83,1.5,8.6,4.94,1.38,2.69,1.62,6.45-.43,8.79,1.11-3.01.78-5.97-.97-8.83ZM55.49,54.48c.19-.12.35-.22.51-.34.5-.38,1.09-.63,1.65-.88.24-.1.49-.21.73-.32,1.83-.88,3.83-2.08,4.87-4.34.04-.09.2-.2.3-.21,2.13-.19,3.99-1.23,5.84-3.27.23-.26.54-.44.87-.64.2-.12.4-.24.58-.38.33-.25.66-.51.99-.78.41-.33.83-.66,1.26-.97.71-.52,1.5-.85,2.34-1.21.19-.08.38-.16.57-.25,2.65-1.16,4.15-2.85,4.57-5.16.03-.18.14-.38.29-.54,2.01-2.08,2.49-4.56,1.43-7.36-.07-.18-.08-.39-.04-.54.8-2.98-.17-5.9-2.6-7.8-.11-.09-.21-.28-.24-.46-.31-1.84-1.15-3.35-2.49-4.51-.18-.15-.37-.28-.56-.41-.15-.1-.32-.21-.46-.33-.08-.07-.15-.21-.14-.27.13-.69.28-1.37.43-2.09l.09-.43c.05.05.09.1.14.15.23.26.47.52.7.81,2.86,3.63,4.8,7.72,5.76,12.14.45,2.08.66,4.15.61,6.16,0,.15-.03.3-.07.45-.03.14-.06.28-.07.43-.04.53-.07,1.16-.08,1.79,0,.15,0,.3,0,.45.01.85.03,1.65-.49,2.4-.65.94-.72,2.03-.2,3.24.09.22.14.47.18.73.01.09.03.18.05.27-.25,0-.48,0-.71,0-.58,0-1.13,0-1.67,0-1.1.03-2.15.44-3.11,1.21-.26.21-.42.53-.57.85l-.08.15c-.14.27-.26.56-.39.83-.13.29-.27.6-.42.89-.57,1.1-.41,2.43.42,3.37.16.19.29.47.34.73.17,1.01.7,1.69,1.62,2.1.12.05.25.19.34.35.55.97,1.03,1.85,1.46,2.67.04.08.04.26-.01.34-.28.42-.57.84-.86,1.25-.26.37-.51.73-.76,1.11-.13.19-.2.42-.25.64-.17.67-.33,1.33-.5,2.02l-.14.58-22.1-4.63s.03-.02.04-.02ZM94.55,22.82c-.23.34-.5.64-.78.86-.51.41-1.05.79-1.57,1.17-.23.17-.46.33-.68.5-.11.08-.2.12-.26.1-.06-.01-.12-.08-.19-.21-.09-.17-.2-.33-.31-.49-.1-.15-.2-.29-.28-.43-.07-.12-.1-.26-.14-.43-.02-.07-.04-.14-.06-.22.04-.07.07-.15.1-.22.08-.19.16-.38.29-.5.9-.88,1.98-1.22,3.2-1.03.14.02.29.07.44.15.2.1.32.21.36.33.03.11-.01.25-.12.41ZM91.57,28.73c-.32.02-.65.03-.99.06.82-1.51,1.6-2.93,3.27-3.48.41-.14.88-.16,1.2-.17.02,0,.04,0,.07,0,.6,0,.96.17,1.16.56.27.51,0,.99-.26,1.31-.41.47-.87.86-1.33,1.11-.96.52-2,.56-3.11.62ZM91.01,29.67l-.41.36c0-.15.01-.25.05-.29.05-.05.18-.06.36-.06ZM100.34,35.9c-.99.47-1.96.95-2.69,1.32-.12.06-.36.25-.35.43.03.34-.22.48-.51.63-.48.23-.98.42-1.51.62-.05.02-.1.04-.16.06,1.53-1.54,3.44-3.05,6.04-3.39-.27.1-.55.2-.82.32ZM89.08,29.69l-.17.57-.39-.61.57.04ZM89.46,35.78l.07-.75.76-.04-.83.79ZM87.32,41.06l-.6-.18c.3,0,.49.08.58.16,0,0,.01.01.02.02ZM92.99,44.62c-.43.53-.78.91-1.14,1.22-.2.17-.42.31-.64.45-.24.15-.49.31-.71.5-.35.31-.66.71-.91,1.14-.62,1.12-1.4,1.74-2.46,1.95-.27.05-.58.26-.76.5-.54.76-1.14,1.01-1.93.8-.48-.12-.75.25-.91.48-.51.74-1.03,1.48-1.55,2.21-.03.04-.07.07-.13.12-.01.01-.03.02-.04.03-.13-.17-.26-.34-.39-.51-.65-.83-1.26-1.62-1.66-2.56l-.06-.14c-.28-.68-.55-1.32-1.39-1.65-.32-.13-.58-.65-.71-1.06l-.03-.08c-.16-.5-.32-.98-.7-1.42-.48-.55-.58-1.26-.28-2,.2-.49.44-.98.66-1.45.12-.26.25-.51.37-.77.28-.61.86-.89,1.43-1.13.66-.27,1.34-.37,2-.37.37,0,.72.03,1.07.07-.09.09-.2.23-.18.37.03.17.26.35.42.36.21.01.41,0,.61-.03.09,0,.17-.02.26-.02,1.76-.13,3.1.02,4.35.48.73.27,1.52.41,2.28.54.16.03.33.06.49.09.91.17,1.74.56,2.55,1.2.12.09.19.21.21.33.01.11-.02.23-.11.34ZM88.97,41.05l2.82-.18-.53,1.12c-.17-.02-.33-.04-.49-.06-.44-.05-.85-.1-1.26-.17-.26-.04-.41-.11-.48-.21-.07-.1-.09-.26-.05-.51ZM87.19,34.95l.81.06-.15.83-.65-.89ZM93.93,37.76c-.25,1.3-1.25,2.13-2.75,2.28-.27.03-.54.04-.82.06l-.38.02-.11.02h0c-.07,0-.13,0-.2,0-.25,0-.52.01-.78-.02-.05,0-.16-.11-.19-.16.06-.21.12-.43.18-.64.28-1.06.58-2.15,1.31-3.02.2-.23.52-.56.92-.76.55-.28,1.38-.48,2.19.15.59.45.79,1.13.62,2.06ZM90.33,34.11c-.32.03-.64.06-.96.09l-.03-.06c.09-.22.18-.44.27-.65.48-1.2.93-2.33,1.97-3.14.7-.54,1.47-.72,2.3-.52.76.19,1.15.76,1.04,1.54-.19,1.29-.97,2.13-2.28,2.43-.75.17-1.54.24-2.31.31ZM89.72,26.31c.07.28.04.58,0,.9-.01.13-.03.27-.04.4,0,.06-.01.11-.02.17-.02.09-.04.19-.03.29.03.34.03.56-.04.64-.08.08-.29.09-.64.07-.14,0-.27-.02-.41-.02l-.3-.02v.07c-.19-.04-.37-.07-.55-.1-.49-.09-.99-.18-1.46-.34-.69-.23-.9-.69-.66-1.45.19-.59.79-1.15,1.57-1.45.37-.15.75-.22,1.09-.22s.64.07.89.21c.26.15.51.51.6.84ZM88.39,32c.01.1.02.19.03.27,0,.2,0,.38,0,.54,0,.39,0,.7-.02,1,0,.08-.14.25-.17.26-.25-.02-.51-.04-.76-.06-.76-.06-1.56-.12-2.27-.34-.52-.16-.9-.52-1.06-1-.18-.55-.06-1.22.34-1.77.53-.73,1.25-1.1,2.15-1.1.06,0,.12,0,.17,0,.79.04,1.25.43,1.44,1.22.08.34.12.7.15.98ZM87.24,36.73c.14.58.21,1.18.29,1.76.03.23.06.47.09.7.03.2.05.4.08.63l.03.28c-.2-.02-.4-.04-.59-.05-.55-.05-1.07-.09-1.57-.2-.63-.14-1.19-.35-1.61-.63-.82-.54-1.04-1.83-.5-2.82.41-.74,1.22-1.19,2-1.19.22,0,.44.04.64.11.73.27,1.02.92,1.14,1.41ZM84.64,34.44l-.49.16.04-.43.45.27ZM14.99,39.69c-.29,2.09-1.12,3.58-2.52,4.55-1.28.89-2.68,1.13-4.15.71-2.25-.63-3.95-2.16-5.21-4.68-.81-1.62-1.13-3.3-1.1-4.25.1-2.36.55-3.87,1.55-5.2,1.06-1.41,3.23-2.19,4.94-1.77,2.34.57,4.12,2.08,5.43,4.62.99,1.92,1.35,3.94,1.06,6.01ZM15.35,34.78c-1.04-3.11-3.18-5.49-5.81-6.48.34-.01.7-.02,1.03.03,1.46.23,2.76.92,3.84,2.06,2.31,2.42,3.26,5.31,2.81,8.59-.26,1.93-1.14,3.43-2.62,4.44,1.49-2.26,1.78-5.52.74-8.65Z"/>
<path d="M11.54,37.19c.35-.23.46-.75.44-1.19-.06-1.4-1.36-1.62-1.75-1.67l-.05-1.04c0-.14-.11-.25-.24-.26h-.25s0,0-.01,0c-.06,0-.12.02-.16.07-.05.05-.08.12-.07.19l.06,1.04-.59-.03-.05-1.04c0-.14-.12-.25-.25-.26h-.25c-.07-.01-.12.01-.17.06-.05.05-.08.12-.07.2l.06,1.05-1.12-.04s0,0-.01,0c-.07,0-.13.02-.17.07-.05.05-.07.11-.07.18l.02.34c0,.14.11.25.25.26l.66.05.21,4.25-.57-.02h-.01c-.12,0-.22.09-.23.22l-.04.37c0,.08.02.16.07.23.05.06.12.09.18.1l1.08.05.06,1.12c0,.14.11.25.25.26h.25c.06.01.13-.01.18-.06.05-.05.08-.12.08-.19l-.08-1.12.55.04.06,1.12c0,.14.11.26.24.26h.25s0,.01.01.01c.06,0,.11-.02.15-.07.05-.05.08-.13.08-.21l-.07-1.1c1.23.08,1.92-.4,2.04-1.44.13-1.1-.51-1.57-.93-1.76ZM11.07,38.77c-.01.18-.08.32-.2.43-.43.39-1.41.29-1.69.25l-.11-1.77c.12,0,.24-.01.35-.01.65,0,1.13.14,1.41.41.26.26.25.55.25.56v.13s0,0,0,0ZM10.44,36.69c-.37.33-1.14.21-1.37.17,0,0-.02-.02-.03-.04l-.07-1.58s.01-.02,0-.02c.67-.04,1.17.08,1.44.35.24.24.23.52.23.54.01.26-.06.45-.21.58Z"/>
<path d="M7.6,37.94v-.17c-.04-.61-.41-1.02-.94-1.04l-1.44-.04c-.06,0-.08,0-.08-.09v-.15s.03-.07.04-.08l2.3.07-.05-.93-2.28-.07c-.24,0-.45.07-.6.23-.18.18-.27.46-.25.77v.15c.04.63.39,1.02.94,1.04l1.44.04c.07,0,.08,0,.08.09v.17s0,.04-.01.05c-.01.02-.03.02-.04.02l-2.3-.07.05.94,2.28.07s.02,0,.03,0c.23,0,.42-.08.57-.23.18-.18.27-.46.25-.78Z"/>
<path d="M44.16,54.64c1.04-.22,2.04-.67,1.87-2.18-.11-.94-.53-1.49-1.29-1.68.32-.36.39-.85.21-1.46-.33-1.15-1.35-1.31-2.12-1.3l-.28-1.4-1,.13.27,1.36c-.12.02-.23.03-.35.05l-.27-1.36-1,.13.28,1.4c-.08.01-.15.02-.23.03h0s-1.28.16-1.28.16l.23,1.15.12-.02c.17-.03.36-.05.46-.06h0s.08,0,.08,0c.12-.01.28,0,.37.22l.76,3.8c.01.17-.07.18-.12.18h-.09s0,.02,0,.02c-.1.01-.28.03-.45.05h-.12s.07,1.3.07,1.3l1.11-.14c.11-.01.22-.03.33-.04h.09s.28,1.4.28,1.4l1-.13-.28-1.39c.12-.01.24-.03.35-.04l.28,1.39,1-.13-.28-1.42ZM42.31,51.93c.93-.14,1.81-.17,1.96.59.04.19,0,.35-.09.49-.29.4-1.12.5-1.56.54h-.03s-.33-1.62-.33-1.62c.02,0,.04,0,.05,0ZM43.31,50.39c-.25.34-.91.41-1.27.45h-.01s-.29-1.45-.29-1.45c0,0,.02,0,.02,0,.76-.12,1.49-.14,1.63.55.04.18.01.33-.08.46Z"/>
</svg>