<svg width="134" height="132" viewBox="0 0 134 132" fill="none" xmlns="http://www.w3.org/2000/svg">
<g clip-path="url(#clip0_2265_80078)">
<path d="M74.2178 88.9042V43.0576C74.2416 39.2652 75.7811 35.6354 78.5017 32.9573C81.2223 30.2792 84.904 28.7694 88.7463 28.756H133.648C133.059 20.9393 129.497 13.6316 123.677 8.29839C117.857 2.96518 110.21 0.000882672 102.268 0L31.4711 0C23.5305 0.00386362 15.8847 2.96917 10.0656 8.30179C4.2465 13.6344 0.683899 20.9404 0.0916138 28.756H44.9931C48.8444 28.7694 52.5338 30.2863 55.2558 32.9754C57.9779 35.6645 59.5114 39.3073 59.5216 43.1085V88.9551C59.4945 92.7453 57.9534 96.3719 55.2332 99.0472C52.513 101.723 48.8333 103.231 44.9931 103.244H0.0916138C0.683899 111.06 4.2465 118.366 10.0656 123.698C15.8847 129.031 23.5305 131.996 31.4711 132H102.268C110.21 131.999 117.857 129.035 123.677 123.702C129.497 118.368 133.059 111.061 133.648 103.244H88.7463C84.8973 103.231 81.2098 101.715 78.4882 99.0291C75.7665 96.3428 74.2314 92.7032 74.2178 88.9042Z" fill="url(#paint0_linear_2265_80078)"/>
<path d="M59.5203 88.9043V43.0577C59.4965 39.2653 57.957 35.6355 55.2364 32.9574C52.5158 30.2793 48.8342 28.7695 44.9918 28.7561H0.0903191C0.0903191 29.5202 0 30.2843 0 31.0612V64.7202H35.8438L28.3086 57.0791C28.0673 56.8376 27.9332 56.5114 27.9356 56.1723C27.938 55.8331 28.0768 55.5088 28.3215 55.2707C28.5662 55.0326 28.8967 54.9002 29.2403 54.9026C29.5839 54.9049 29.9124 55.042 30.1537 55.2835L39.8565 65.0386C40.0969 65.2772 40.2317 65.6 40.2317 65.9364C40.2317 66.2729 40.0969 66.5956 39.8565 66.8342L30.1537 76.5894C29.9124 76.8309 29.5839 76.9679 29.2403 76.9703C28.8967 76.9727 28.5662 76.8402 28.3215 76.6021C28.0768 76.364 27.938 76.0397 27.9356 75.7006C27.9332 75.3614 28.0673 75.0352 28.3086 74.7937L35.8438 67.1526H0V100.939C0 101.716 0 102.48 0.0903191 103.244H44.9918C48.8408 103.231 52.5283 101.716 55.25 99.0292C57.9717 96.3429 59.5067 92.7033 59.5203 88.9043Z" fill="url(#paint1_linear_2265_80078)"/>
<path d="M105.441 74.8574C105.682 75.1006 105.816 75.4284 105.812 75.7687C105.809 76.1091 105.668 76.434 105.422 76.6722C105.175 76.9103 104.843 77.042 104.498 77.0385C104.154 77.0349 103.824 76.8962 103.583 76.6531L93.8803 66.8979C93.64 66.6593 93.5051 66.3365 93.5051 66.0001C93.5051 65.6636 93.64 65.3409 93.8803 65.1023L103.583 55.3471C103.824 55.1039 104.154 54.9653 104.498 54.9617C104.843 54.9581 105.175 55.0899 105.422 55.328C105.668 55.5661 105.809 55.8911 105.812 56.2314C105.816 56.5718 105.682 56.8996 105.441 57.1428L97.8931 64.7839H133.737V31.0612C133.737 30.2843 133.737 29.5202 133.647 28.7561H88.745C84.8938 28.7695 81.2044 30.2864 78.4823 32.9755C75.7603 35.6646 74.2268 39.3074 74.2166 43.1086V88.9552C74.2437 92.7454 75.7847 96.3719 78.505 99.0473C81.2252 101.723 84.9049 103.231 88.745 103.244H133.647C133.647 102.48 133.737 101.716 133.737 100.939V67.28H97.8931L105.441 74.8574Z" fill="#EFEFF2"/>
<path d="M105.441 74.8574C105.682 75.1006 105.816 75.4284 105.812 75.7687C105.809 76.1091 105.668 76.434 105.422 76.6722C105.175 76.9103 104.843 77.042 104.498 77.0385C104.154 77.0349 103.824 76.8962 103.583 76.6531L93.8803 66.8979C93.64 66.6593 93.5051 66.3365 93.5051 66.0001C93.5051 65.6636 93.64 65.3409 93.8803 65.1023L103.583 55.3471C103.824 55.1039 104.154 54.9653 104.498 54.9617C104.843 54.9581 105.175 55.0899 105.422 55.328C105.668 55.5661 105.809 55.8911 105.812 56.2314C105.816 56.5718 105.682 56.8996 105.441 57.1428L97.8931 64.7839H133.737V31.0612C133.737 30.2843 133.737 29.5202 133.647 28.7561H88.745C84.8938 28.7695 81.2044 30.2864 78.4823 32.9755C75.7603 35.6646 74.2268 39.3074 74.2166 43.1086V88.9552C74.2437 92.7454 75.7847 96.372 78.505 99.0473C81.2252 101.723 84.9049 103.231 88.745 103.244H133.647C133.647 102.48 133.737 101.716 133.737 100.939V67.28H97.8931L105.441 74.8574Z" fill="url(#paint2_linear_2265_80078)"/>
<path d="M114.375 49.1595C114.603 48.9342 114.785 48.666 114.908 48.3706C115.032 48.0752 115.096 47.7583 115.096 47.4383C115.096 47.1183 115.032 46.8014 114.908 46.506C114.785 46.2106 114.603 45.9425 114.375 45.7171C114.148 45.4899 113.878 45.3095 113.581 45.1864C113.284 45.0634 112.966 45 112.644 45C112.322 45 112.003 45.0634 111.706 45.1864C111.409 45.3095 111.139 45.4899 110.913 45.7171L92.5774 64.2869C92.1233 64.7411 91.8684 65.3555 91.8684 65.996C91.8684 66.6364 92.1233 67.2509 92.5774 67.7051L110.913 86.2749C111.368 86.7346 111.989 86.9954 112.639 86.9999C113.288 87.0045 113.912 86.7524 114.375 86.2991C114.837 85.8458 115.099 85.2285 115.104 84.5829C115.109 83.9373 114.855 83.3164 114.399 82.8567L100.16 68.3111L167.868 68.3111L167.868 63.4626L100.136 63.4626L114.375 49.1595Z" fill="white"/>
<path d="M18.3621 82.8405C18.1335 83.0658 17.9522 83.334 17.8284 83.6294C17.7046 83.9248 17.6409 84.2417 17.6409 84.5617C17.6409 84.8817 17.7046 85.1986 17.8284 85.494C17.9522 85.7894 18.1335 86.0575 18.3621 86.2829C18.5887 86.5101 18.8584 86.6905 19.1555 86.8136C19.4526 86.9366 19.7713 87 20.0932 87C20.415 87 20.7337 86.9366 21.0308 86.8136C21.328 86.6905 21.5976 86.5101 21.8243 86.2829L40.1594 67.7131C40.6135 67.2589 40.8684 66.6445 40.8684 66.004C40.8684 65.3636 40.6135 64.7491 40.1594 64.2949L21.8243 45.7251C21.3684 45.2654 20.7475 45.0046 20.0982 45.0001C19.4489 44.9955 18.8244 45.2476 18.3621 45.7009C17.8997 46.1542 17.6374 46.7715 17.6328 47.4171C17.6283 48.0627 17.8818 48.6836 18.3377 49.1433L32.5767 63.6889H-35.1316V68.5374H32.601L18.3621 82.8405Z" fill="white"/>
</g>
<defs>
<linearGradient id="paint0_linear_2265_80078" x1="24.0841" y1="23.7129" x2="117.414" y2="118.143" gradientUnits="userSpaceOnUse">
<stop stop-color="#353535"/>
<stop offset="0.26" stop-color="#303030"/>
<stop offset="0.56" stop-color="#222222"/>
<stop offset="0.87" stop-color="#0B0B0B"/>
<stop offset="1"/>
</linearGradient>
<linearGradient id="paint1_linear_2265_80078" x1="0.468421" y1="106.459" x2="55.7197" y2="66.4943" gradientUnits="userSpaceOnUse">
<stop stop-color="#5546FF"/>
<stop offset="0.35" stop-color="#7D75DD"/>
<stop offset="0.72" stop-color="#A3A0BE"/>
<stop offset="0.91" stop-color="#B1B1B2"/>
</linearGradient>
<linearGradient id="paint2_linear_2265_80078" x1="92.3965" y1="50.4059" x2="133.184" y2="91.7298" gradientUnits="userSpaceOnUse">
<stop stop-color="#5845FF"/>
<stop offset="1" stop-color="#803CF3"/>
</linearGradient>
<clipPath id="clip0_2265_80078">
<rect width="133.737" height="132" fill="white"/>
</clipPath>
</defs>
</svg>
