<svg width="133" height="80" viewBox="0 0 133 80" fill="none" xmlns="http://www.w3.org/2000/svg">
<path d="M128.556 80H4.44407C1.99661 80 0 77.3764 0 74.1604V47.8396C0 44.6236 1.99661 42 4.44407 42H128.556C131.003 42 133 44.6236 133 47.8396V74.1604C133 77.3764 131.003 80 128.556 80Z" fill="#F5F5F7"/>
<path d="M24.3791 72.3409C30.7839 72.3409 35.976 67.1426 35.976 60.73C35.976 54.3175 30.7839 49.1191 24.3791 49.1191C17.9743 49.1191 12.7822 54.3175 12.7822 60.73C12.7822 67.1426 17.9743 72.3409 24.3791 72.3409Z" fill="#DCDDE2"/>
<path d="M33.5211 72.341C36.2794 72.341 38.5154 70.1022 38.5154 67.3406C38.5154 64.579 36.2794 62.3403 33.5211 62.3403C30.7629 62.3403 28.5269 64.579 28.5269 67.3406C28.5269 70.1022 30.7629 72.341 33.5211 72.341Z" fill="#77797E"/>
<path d="M29.0341 65.5609C29.0341 65.9846 28.6109 66.2389 28.6955 66.6627C28.7802 67.0864 28.6955 67.4254 28.6955 67.8492C28.6955 67.9339 28.6955 68.0187 28.6109 68.0187C28.5262 67.9339 28.5262 67.9339 28.4416 67.8492C28.2723 67.6797 28.1876 67.5949 28.1876 67.3407C28.1876 67.0017 27.9337 66.7474 27.6798 66.4932C27.5951 66.4084 27.5105 66.4084 27.4258 66.4932C27.3412 66.4932 27.1719 66.6627 27.2565 66.4932C27.3412 65.8999 26.8333 65.8999 26.4947 65.8151C26.2407 65.7304 26.2407 65.6456 26.2407 65.4761C26.2407 65.3066 26.3254 65.3066 26.4947 65.3066C26.664 65.3066 26.7486 65.2219 26.9179 65.2219C27.0872 65.1371 27.1719 65.2219 27.1719 65.3914C27.1719 65.4761 27.2565 65.6456 27.3412 65.7304L27.4258 65.8151C27.5105 65.6456 27.5951 65.4761 27.6798 65.3914C27.8491 65.2219 27.7644 65.1371 27.5951 64.9676C27.5951 64.9676 27.5951 64.7134 27.6798 64.7134C28.103 64.6286 27.9337 64.3744 27.7644 64.2049C27.5951 63.9506 27.6798 63.6964 27.9337 63.6116C28.2723 63.5269 28.1876 63.3574 28.1876 63.1879C28.1876 62.9336 28.3569 62.8489 28.5262 63.0184C28.6955 63.1031 28.7802 63.2726 29.0341 63.2726C29.1188 63.3574 29.2034 63.5269 29.3727 63.6116C29.6267 63.6964 29.6267 63.9506 29.796 64.1201C29.796 64.1201 29.796 64.2049 29.796 64.2896C29.6267 64.4591 29.542 64.7134 29.3727 64.8829C29.0341 65.3066 29.0341 65.3066 28.6109 65.1371C28.4416 65.0524 28.3569 65.0524 28.2723 65.1371C28.2723 65.2219 28.1876 65.4761 28.3569 65.5609C28.6109 65.5609 28.9495 65.5609 29.0341 65.5609ZM28.6955 63.7811C28.6955 63.7811 28.5262 63.8659 28.4416 63.8659C28.5262 63.9506 28.5262 64.1201 28.6109 64.2049C28.6955 64.3744 28.7802 64.5439 28.9495 64.7134C28.9495 64.7981 29.1188 64.7134 29.2034 64.7134C29.2881 64.7134 29.2034 64.5439 29.2881 64.5439C29.3727 64.4591 29.542 64.2049 29.542 64.2049C29.3727 64.0354 29.2881 63.7811 28.9495 63.8659C28.8648 63.7811 28.7802 63.7811 28.6955 63.7811Z" fill="#969696"/>
<path d="M27.5948 68.8661C27.8488 68.7813 28.1027 68.8661 28.1873 69.2051C28.272 69.5441 28.5259 69.5441 28.7799 69.5441C28.8645 69.5441 28.9492 69.4593 28.9492 69.3746C28.9492 69.2898 28.8645 69.2051 28.8645 69.2051C28.8645 69.2051 28.7799 69.2051 28.6952 69.2051C28.4413 69.0356 28.4413 68.9508 28.6106 68.6118C28.6952 68.6118 28.8645 68.6118 28.8645 68.6966C28.8645 69.0356 29.1185 69.2898 29.2031 69.6288C29.2031 69.7136 29.1185 69.9678 29.1185 69.9678C28.7799 70.0526 28.4413 70.2221 28.1027 70.1373C28.0181 70.1373 27.8488 70.0526 27.7641 69.9678C27.6795 69.8831 27.5948 69.7983 27.4255 69.9678C27.2562 70.0526 27.1716 69.8831 27.0869 69.7983C27.1716 69.7136 27.2562 69.5441 27.3409 69.5441C27.6795 69.4593 27.5948 69.1203 27.5948 68.8661Z" fill="#969696"/>
<path d="M27.0021 66.4932C27.1714 66.7474 27.2561 66.8322 27.2561 67.0017C27.2561 67.0017 27.1714 67.0864 27.0868 67.1712C27.0021 67.1712 26.9175 67.1712 26.8328 67.1712C26.5789 67.1712 26.5789 67.2559 26.5789 67.4254C26.5789 67.5102 26.5789 67.6797 26.5789 67.7644C26.5789 67.8492 26.6635 68.0187 26.6635 68.1034C26.7482 68.0187 26.9175 68.0187 27.0021 67.9339C27.2561 67.7644 27.51 67.5102 27.764 67.3407C27.8486 67.3407 27.9333 67.3407 27.9333 67.3407C28.0179 67.4254 28.0179 67.5102 28.0179 67.5949C28.0179 67.6797 27.9333 67.9339 27.8486 67.9339C27.4254 67.9339 27.2561 68.4424 26.8328 68.3577C26.5789 68.6967 26.3249 68.4424 26.071 68.2729C25.9017 68.1034 25.817 67.9339 25.9863 67.7644C26.071 67.5949 26.1556 67.5102 26.2403 67.3407C26.4096 66.7474 27.0021 67.1712 27.0021 66.4932Z" fill="#969696"/>
<path d="M27.595 70.9851C28.1875 70.4766 28.2722 70.4766 28.3568 70.4766C28.4415 70.4766 28.5261 70.6461 28.5261 70.6461C28.4415 70.7308 28.4415 70.9003 28.2722 70.9851C28.1875 70.9851 28.1029 70.9851 28.0182 70.9003C27.9336 70.9003 27.9336 70.8156 27.8489 70.7308C27.8489 70.8156 27.595 70.8156 27.7643 70.9851C28.0182 71.3241 27.6796 71.5783 27.5104 71.8326C27.3411 72.0021 27.1718 72.0021 27.0025 71.6631C26.9178 71.4936 26.5792 71.6631 26.6639 71.4088C26.7485 71.3241 26.9178 71.2393 27.0025 71.1546C27.0871 71.0698 27.0871 71.0698 27.0871 70.9851C27.4257 70.6461 27.595 70.3918 27.595 70.9851C27.1718 71.4936 27.1718 71.4936 27.0871 71.5783L27.1718 71.6631L27.2564 71.5783C27.2564 71.4936 27.2564 71.4936 27.595 70.9851Z" fill="#969696"/>
<path d="M33.9435 62.6792C33.8589 62.6792 33.7742 62.6792 33.6896 62.6792C33.6049 62.6792 33.6049 62.6792 33.5203 62.5945C33.5203 62.5097 33.6049 62.5097 33.6049 62.425C33.6896 62.3402 33.8589 62.2555 33.8589 62.1707C33.7742 62.0012 33.6049 62.0012 33.4356 62.086C33.1817 62.1707 33.0124 62.0012 32.9277 61.8317C32.9277 61.747 33.0124 61.6622 33.0124 61.6622C33.351 61.747 33.6049 61.4927 33.9435 61.6622C34.2821 61.8317 34.5361 62.1707 34.4514 62.5097C34.4514 62.5945 34.3668 62.5945 34.2821 62.5945C34.1975 62.6792 34.1128 62.6792 33.9435 62.6792Z" fill="#969696"/>
<path d="M25.902 67.0863C25.5634 67.171 25.3941 66.7473 25.1402 67.0863C25.0555 67.0015 24.9709 66.9168 24.8862 66.832C24.8862 66.7473 24.8862 66.6625 24.9709 66.5778C25.0555 66.4083 25.2248 66.4083 25.3941 66.4083C25.6481 66.493 25.8174 66.7473 25.902 66.2388C25.9867 66.2388 26.156 66.3235 26.2406 66.3235C26.3253 66.4083 26.3253 66.493 26.2406 66.5778C26.156 66.6625 26.0713 66.7473 25.9867 66.9168C25.902 67.0863 25.902 67.0863 25.902 67.0863Z" fill="#969696"/>
<path d="M30.3042 63.1031C30.3042 63.2726 30.3889 63.4421 30.2196 63.6116C30.1349 63.6964 30.0503 63.8659 30.0503 63.6116C29.9656 63.1031 29.5424 63.2726 29.2038 63.2726C29.2038 63.1878 29.2038 63.1878 29.1192 63.1031C28.9499 62.9336 28.9499 62.8488 29.1192 62.6793C29.2038 62.5098 29.3731 62.6793 29.3731 62.6793C29.5424 62.5946 29.7117 63.0183 29.881 62.6793C30.0503 62.9336 30.2196 63.0183 30.3042 63.1031Z" fill="#969696"/>
<path d="M32.4202 61.069C32.2509 61.5775 31.997 62.0012 31.6584 62.3403C31.4891 62.086 31.4044 61.747 31.743 61.5775C31.8277 61.4927 31.9123 61.408 31.997 61.3232C31.9123 60.9842 32.2509 61.069 32.4202 61.069Z" fill="#969696"/>
<path d="M24.5473 64.7979C24.5473 64.7979 24.4626 64.9674 24.378 65.1369C24.378 65.1369 24.2087 65.0521 24.124 65.1369C24.0394 65.1369 23.9547 65.3064 23.8701 65.3064C23.8701 65.3064 23.7854 65.2216 23.7008 65.2216C23.6161 65.1369 23.5315 64.9674 23.6161 64.9674C23.7854 64.7979 23.9547 64.5436 24.2087 64.3741C24.2933 64.2894 24.5473 64.4589 24.5473 64.7979Z" fill="#969696"/>
<path d="M26.8333 64.6286C26.8333 64.7981 26.8333 64.7981 26.8333 64.8829C26.8333 64.9676 26.7486 64.9676 26.7486 65.0524C26.7486 65.0524 26.664 65.0524 26.5793 65.0524C26.5793 65.0524 26.4947 65.0524 26.4947 64.9676C26.41 64.7134 26.2407 64.5439 25.9021 64.5439C25.9021 64.5439 25.6482 64.4591 25.8175 64.2896C25.9021 64.2049 26.0714 64.1201 26.1561 64.1201C26.3254 64.2049 26.4947 64.4591 26.7486 64.4591C26.7486 64.4591 26.7486 64.6286 26.8333 64.6286Z" fill="#969696"/>
<path d="M27.4256 63.3573C27.341 63.1878 27.2563 63.1031 27.2563 63.0183C27.341 62.8488 27.4256 62.6793 27.5949 62.5098C27.6796 62.4251 27.7642 62.3403 27.7642 62.3403C27.8489 62.4251 28.1028 62.5098 28.0182 62.5946C28.0182 62.7641 27.9335 63.0183 27.8489 63.1031C27.7642 63.1878 27.5949 63.2726 27.4256 63.3573Z" fill="#969696"/>
<path d="M30.8966 62.1709C31.0659 62.1709 31.1505 62.4252 31.0659 62.5099C30.9812 62.5947 30.8966 62.7642 30.8966 62.9337C30.8966 63.1879 30.7273 63.1032 30.558 63.1032C30.304 63.1879 30.3887 62.9337 30.3887 62.8489C30.304 62.5099 30.558 62.3404 30.8119 62.1709C30.7273 62.1709 30.8119 62.1709 30.8966 62.1709Z" fill="#969696"/>
<path d="M30.7269 61.1535C30.5576 61.4077 30.3883 61.662 30.219 61.8315C30.1343 61.9162 29.8804 61.7467 29.8804 61.5772C29.8804 61.4925 29.965 61.4077 29.965 61.323C30.3036 61.4925 30.1343 60.8145 30.5576 60.984C30.5576 61.0687 30.6422 61.1535 30.7269 61.1535Z" fill="#969696"/>
<path d="M28.8651 70.4762C28.8651 70.3067 28.7805 70.1372 29.0344 70.1372C29.2037 70.222 29.4576 70.3067 29.6269 70.3915C29.6269 70.3915 29.1191 70.8152 29.0344 70.8152C28.7805 70.8152 28.9498 70.6457 28.8651 70.4762Z" fill="#969696"/>
<path d="M23.1933 68.7812C23.1933 68.7812 23.1933 68.866 23.1087 68.9507C23.024 68.9507 22.9394 68.866 22.8547 68.7812C22.8547 68.6965 22.9394 68.527 22.8547 68.527C22.7701 68.4422 22.6854 68.4422 22.5161 68.3575C22.4315 68.2727 22.4315 68.188 22.5161 68.1032C22.6008 68.0185 22.6854 67.9337 22.7701 68.1032C22.8547 68.2727 23.4473 68.188 23.1933 68.7812Z" fill="#969696"/>
<path d="M26.9177 69.2051C26.833 69.2051 26.833 69.2051 26.833 69.1203C26.833 69.0356 26.833 68.9508 26.833 68.9508C27.0023 68.7813 27.1716 68.6966 27.4256 68.6118C27.4256 68.6118 27.5948 68.6118 27.5948 68.6966C27.5948 68.6966 27.5948 68.7813 27.5948 68.8661C27.5102 69.0356 27.1716 69.2051 26.9177 69.2051Z" fill="#969696"/>
<path d="M33.097 60.8995C33.097 61.0691 33.097 61.2386 32.8431 61.2386C32.6738 61.2386 32.5045 61.1538 32.4198 60.9843C32.3352 60.8148 32.7584 60.5605 32.8431 60.5605C33.1817 60.5605 33.0124 60.8148 33.097 60.8995Z" fill="#969696"/>
<path d="M25.9867 65.9847C25.7328 65.9847 25.5635 65.9 25.7328 65.7305C25.9021 65.561 25.5635 65.4762 25.6481 65.3915C25.7328 65.3067 25.8174 65.222 25.9021 65.1372C25.9867 65.222 26.0714 65.3067 26.156 65.3915C26.2406 65.561 25.7328 65.8152 26.156 66.0695C26.0714 65.9847 25.9867 65.9847 25.9867 65.9847Z" fill="#969696"/>
<path d="M27.7646 64.2894C27.7646 64.5437 27.6799 64.6284 27.5106 64.5437C27.426 64.5437 27.3413 64.4589 27.3413 64.3742C27.3413 64.2894 27.3413 64.1199 27.3413 63.9504C27.3413 63.8657 27.5106 63.6962 27.5106 63.7809C27.5953 63.7809 27.6799 63.9504 27.7646 64.0352C27.7646 64.1199 27.7646 64.2047 27.7646 64.2894Z" fill="#969696"/>
<path d="M25.7329 62.8489L25.8176 62.7642H25.9869C26.0715 62.9337 26.2408 63.0184 26.2408 63.1879C26.2408 63.2727 26.2408 63.4422 26.2408 63.4422C26.1562 63.4422 25.9022 63.4422 25.9022 63.3574C25.8176 63.2727 25.8176 63.1032 25.7329 62.8489Z" fill="#969696"/>
<path d="M28.6112 71.7476C28.5265 71.6628 28.4419 71.4933 28.4419 71.4933C28.6112 71.3238 28.7805 71.239 28.9498 71.1543C29.0344 71.1543 29.1191 71.239 29.2037 71.239C29.2037 71.3238 29.1191 71.4085 29.0344 71.4933C28.9498 71.5781 28.7805 71.6628 28.6958 71.7476H28.6112Z" fill="#969696"/>
<path d="M29.5419 62.1709C29.5419 62.2556 29.4573 62.2556 29.4573 62.3404C29.4573 62.3404 29.3726 62.3404 29.288 62.3404C29.2033 62.2556 29.034 62.1709 28.9494 62.0014C28.8647 61.9166 28.9494 61.8319 28.8647 61.7471C28.9494 61.7471 29.2033 61.6624 29.2033 61.7471C29.3726 61.8319 29.4573 62.0014 29.5419 62.1709Z" fill="#969696"/>
<path d="M23.2779 65.6456C23.2779 65.7304 23.2779 65.8151 23.2779 65.8999C23.2779 65.9847 23.024 66.0694 22.8547 65.9846C22.77 65.8999 22.77 65.8151 22.77 65.7304C22.77 65.6456 22.8547 65.4761 22.9393 65.3914C22.9393 65.3914 23.024 65.3066 23.1086 65.3066C23.1933 65.3066 23.1933 65.3914 23.2779 65.3914C23.2779 65.5609 23.2779 65.6456 23.2779 65.6456Z" fill="#969696"/>
<path d="M26.6641 69.0356C26.6641 69.2051 26.6641 69.2898 26.6641 69.4593C26.6641 69.4593 26.5795 69.5441 26.4948 69.5441C26.4948 69.5441 26.4102 69.5441 26.4102 69.4593V69.3746C26.6641 69.2051 26.3255 68.9508 26.4948 68.7813C26.5795 68.6966 26.5795 68.6966 26.6641 68.6118C26.6641 68.6966 26.7488 68.7813 26.7488 68.8661C26.6641 68.8661 26.6641 68.9508 26.6641 69.0356Z" fill="#969696"/>
<path d="M27.3413 60.8994C27.5106 60.8994 27.5953 60.8994 27.5953 60.8994C27.6799 60.9842 27.7646 61.0689 27.9339 61.1537C27.8492 61.2384 27.6799 61.4079 27.6799 61.3232C27.5106 61.2384 27.426 61.0689 27.3413 60.9842C27.2567 60.9842 27.3413 60.8994 27.3413 60.8994Z" fill="#969696"/>
<path d="M32.6734 62.8489C32.5887 62.6794 32.5041 62.5099 32.4194 62.2556C32.5041 62.2556 32.6734 62.1709 32.758 62.1709C33.012 62.1709 32.9273 62.4252 32.9273 62.5099C32.8427 62.6794 32.758 62.7642 32.6734 62.8489Z" fill="#969696"/>
<path d="M24.8013 66.1538C24.7167 65.9843 24.632 65.8996 24.5474 65.8148C24.5474 65.73 24.886 65.5605 25.0553 65.5605C25.1399 65.5605 25.1399 65.73 25.1399 65.73C25.0553 65.8148 24.9706 65.8996 24.8013 66.1538Z" fill="#969696"/>
<path d="M24.8017 68.6965C24.5477 68.6965 24.3784 68.6965 24.3784 68.4422C24.3784 68.2727 24.4631 68.188 24.6324 68.188C24.8017 68.188 24.971 68.188 24.8863 68.4422C24.8863 68.6117 24.8017 68.6965 24.8017 68.6965Z" fill="#969696"/>
<path d="M31.489 59.2042C31.489 59.2042 31.5737 59.2042 31.5737 59.2889C31.5737 59.4584 31.4044 59.6279 31.0658 59.6279C30.9811 59.6279 30.9811 59.5432 30.8965 59.5432C31.2351 59.4584 31.0658 59.0347 31.489 59.2042Z" fill="#969696"/>
<path d="M22.4313 70.8152C22.3467 70.6457 22.3467 70.561 22.3467 70.4762C22.3467 70.3067 22.4313 70.1372 22.6006 70.1372C22.6853 70.1372 22.8546 70.3067 22.7699 70.3915C22.6853 70.4762 22.6006 70.561 22.4313 70.8152Z" fill="#969696"/>
<path d="M26.3251 70.1373C26.4097 70.4763 26.2404 70.4763 26.0712 70.4763C25.9865 70.4763 25.9019 70.3915 25.9019 70.3068C25.9019 70.1373 26.1558 69.9678 26.2404 69.9678C26.2404 70.0525 26.3251 70.1373 26.3251 70.1373Z" fill="#969696"/>
<path d="M25.6478 67.7642C25.6478 68.0185 25.6478 68.188 25.3938 68.1032C25.3092 68.1032 25.2245 68.0185 25.1399 68.0185C25.0552 67.9337 25.3092 67.6795 25.4785 67.6795C25.5631 67.5947 25.6478 67.7642 25.6478 67.7642Z" fill="#969696"/>
<path d="M34.5361 59.7128C34.7901 59.5433 34.8747 59.3738 35.044 59.2891L35.1287 59.3738C35.044 59.5433 34.9594 59.7976 34.9594 59.9671C34.7901 59.8823 34.7054 59.7976 34.5361 59.7128Z" fill="#969696"/>
<path d="M34.4517 57.5093C34.5364 57.6788 34.7056 57.7635 34.7903 57.933L34.7056 58.0178C34.5364 58.0178 34.3671 58.0178 34.1978 57.8483V57.7635C34.2824 57.6788 34.3671 57.594 34.4517 57.5093Z" fill="#969696"/>
<path d="M35.3823 62.2556C35.0437 62.5099 34.8744 62.5947 34.7897 62.6794L34.7051 62.5099C34.7897 62.4252 34.959 62.2556 35.0437 62.1709C35.1283 62.1709 35.213 62.1709 35.3823 62.2556Z" fill="#969696"/>
<path d="M31.235 57.1704C31.4043 57.3399 31.489 57.4247 31.5736 57.5942C31.5736 57.5942 31.489 57.6789 31.489 57.7637C31.4043 57.6789 31.235 57.5942 31.1504 57.4247C31.1504 57.3399 31.235 57.2552 31.235 57.1704Z" fill="#969696"/>
<path d="M35.3827 60.8149C35.4674 60.9844 35.4674 61.0692 35.4674 61.1539C35.4674 61.2387 35.552 61.4929 35.2981 61.4082C35.2134 61.4082 35.1288 61.2387 34.9595 61.2387C35.1288 61.0692 35.2134 60.9844 35.3827 60.8149Z" fill="#969696"/>
<path d="M27.2566 63.3573C27.0873 63.4421 27.0026 63.4421 26.918 63.4421C26.8333 63.4421 26.5794 63.5269 26.664 63.2726C26.664 63.1878 26.8333 63.1031 26.8333 62.9336C26.918 63.1031 27.0873 63.1878 27.2566 63.3573Z" fill="#969696"/>
<path d="M30.8967 60.9844C30.8967 60.8149 30.812 60.6454 30.812 60.5606C30.812 60.4759 30.9813 60.3911 30.9813 60.3911C31.066 60.4759 31.1506 60.5606 31.2353 60.6454C31.1506 60.7301 31.066 60.8149 30.8967 60.9844Z" fill="#969696"/>
<path d="M29.204 60.9844C29.1193 60.8996 29.0347 60.8149 29.0347 60.7301C29.1193 60.6454 29.204 60.5606 29.2886 60.3911C29.3733 60.4759 29.4579 60.5606 29.4579 60.7301C29.5426 60.8149 29.3733 60.8996 29.204 60.9844Z" fill="#969696"/>
<path d="M34.706 59.9673C34.7906 60.1368 34.7906 60.2215 34.7906 60.3063C34.7906 60.391 34.8753 60.6453 34.6213 60.5605C34.5367 60.5605 34.452 60.391 34.2827 60.391C34.452 60.2215 34.5367 60.1368 34.706 59.9673Z" fill="#969696"/>
<path d="M35.552 60.6452C35.3827 60.4757 35.298 60.4757 35.2134 60.391L35.552 60.1367C35.552 60.1367 35.6366 60.2215 35.6366 60.3062C35.6366 60.391 35.6366 60.4757 35.552 60.6452Z" fill="#969696"/>
<path d="M31.6584 62.5946C31.5738 62.6793 31.4891 62.7641 31.4891 62.7641C31.3198 62.7641 31.3198 62.5946 31.3198 62.5098C31.3198 62.4251 31.4045 62.3403 31.4891 62.3403C31.7431 62.2555 31.5738 62.5098 31.6584 62.5946Z" fill="#969696"/>
<path d="M31.32 60.4759C31.2354 60.2216 31.1508 60.1369 31.1508 60.0521C31.1508 59.9674 31.0661 59.7979 31.32 59.7979C31.4047 59.7979 31.4893 59.8826 31.4893 59.9674C31.4893 60.0521 31.4047 60.2216 31.32 60.4759Z" fill="#969696"/>
<path d="M33.0972 59.7131C32.9279 59.7131 32.7587 59.7979 32.674 59.7979L32.5894 59.6284C32.674 59.3741 32.8433 59.5436 33.0126 59.5436C33.0126 59.4589 33.0126 59.5436 33.0972 59.7131Z" fill="#969696"/>
<path d="M25.648 69.629C25.5634 69.7137 25.4787 69.7985 25.3941 69.8832C25.3094 69.7985 25.2248 69.629 25.1401 69.5442C25.1401 69.5442 25.2248 69.4595 25.3094 69.4595C25.4787 69.4595 25.5634 69.5442 25.648 69.629Z" fill="#969696"/>
<path d="M28.2716 59.6283C28.1869 59.713 28.1869 59.7978 28.1869 59.7978C28.1023 59.713 27.933 59.713 27.8483 59.6283C27.679 59.5435 27.8483 59.4588 27.933 59.4588L28.1023 59.374C28.1023 59.4588 28.1869 59.5435 28.2716 59.6283Z" fill="#969696"/>
<path d="M29.5423 61.4928C29.5423 61.4928 29.373 61.4081 29.373 61.3233C29.373 61.2386 29.373 61.1538 29.373 61.1538C29.4577 61.1538 29.5423 61.1538 29.627 61.1538C29.7116 61.2386 29.7116 61.3233 29.7963 61.4081C29.7963 61.4081 29.7116 61.4081 29.5423 61.4928Z" fill="#969696"/>
<path d="M34.5364 59.7132C34.3671 59.7979 34.2824 59.7979 34.2824 59.7979C34.1131 59.7132 34.0285 59.6284 33.9438 59.5437C34.0285 59.4589 34.1131 59.2894 34.1131 59.3742C34.1978 59.3742 34.2824 59.4589 34.5364 59.7132Z" fill="#969696"/>
<path d="M24.2942 70.6458C24.2942 70.6458 24.3788 70.6458 24.4635 70.6458C24.5481 70.6458 24.5481 70.8153 24.5481 70.8153L24.4635 70.9C24.3788 70.9 24.2095 70.8153 24.1249 70.7305C24.0402 70.7305 23.9556 70.6458 23.9556 70.6458C24.0402 70.6458 24.1249 70.561 24.1249 70.561C24.1249 70.6458 24.2095 70.6458 24.2942 70.6458Z" fill="#969696"/>
<path d="M26.0714 63.8659C25.9021 63.8659 25.8174 63.9506 25.7328 63.8659C25.6481 63.8659 25.5635 63.7811 25.5635 63.6964C25.6481 63.6116 25.7328 63.5269 25.7328 63.5269C25.8174 63.6964 25.9021 63.7811 26.0714 63.8659Z" fill="#969696"/>
<path d="M25.9019 71.0696C25.7326 71.1544 25.648 71.3239 25.5633 71.3239C25.5633 71.3239 25.4787 71.2391 25.394 71.1544C25.4787 71.0696 25.5633 70.9849 25.5633 70.9849C25.648 70.9849 25.7326 70.9849 25.9019 71.0696Z" fill="#969696"/>
<path d="M20.4845 64.1199C20.3152 64.2046 20.2305 64.2046 20.0612 64.2894C20.0612 64.2046 19.9766 64.1199 19.9766 64.1199C20.0612 63.9504 20.2305 64.0351 20.3998 64.0351C20.4845 63.9504 20.4845 64.0351 20.4845 64.1199Z" fill="#969696"/>
<path d="M25.1399 62.6793C25.0553 62.764 24.9706 62.8488 24.886 62.8488C24.8013 62.764 24.7167 62.6793 24.5474 62.5945C24.632 62.5945 24.7167 62.5098 24.8013 62.5098C24.9706 62.5098 24.9706 62.5945 25.1399 62.6793Z" fill="#969696"/>
<path d="M25.2248 69.0355C25.2248 69.0355 25.2248 69.1203 25.1402 69.205C25.0555 69.2898 24.8862 68.9508 24.8862 68.866L24.9709 68.7813C25.0555 68.6965 25.2248 68.7813 25.2248 69.0355Z" fill="#969696"/>
<path d="M30.6423 59.9674C30.5577 59.8827 30.473 59.7979 30.3037 59.7132C30.3037 59.7132 30.3037 59.6284 30.3884 59.6284C30.473 59.6284 30.5577 59.6284 30.727 59.6284C30.727 59.6284 30.8116 59.6284 30.8116 59.7132C30.8116 59.7979 30.8116 59.8827 30.8116 59.8827C30.8116 59.8827 30.727 59.8827 30.6423 59.9674Z" fill="#969696"/>
<path d="M26.2405 61.3234C26.1558 61.4081 26.0712 61.4929 25.9865 61.4929C25.9865 61.4081 25.9019 61.3234 25.9019 61.3234C25.9865 61.2386 26.0712 61.1539 26.1558 60.9844C26.0712 61.1539 26.1558 61.2386 26.2405 61.3234Z" fill="#969696"/>
<path d="M35.4675 58.9503C35.3829 58.9503 35.2982 58.9503 35.2982 58.9503C35.2136 58.8656 35.2136 58.7808 35.1289 58.6961C35.2136 58.6961 35.2136 58.6113 35.2982 58.6113C35.2982 58.6113 35.3829 58.6113 35.3829 58.6961C35.4675 58.7808 35.4675 58.7808 35.5522 58.8656C35.5522 58.9503 35.5522 58.9503 35.4675 58.9503Z" fill="#969696"/>
<path d="M28.5263 68.6964C28.357 68.5269 28.1877 68.5269 28.103 68.4422C28.1877 68.4422 28.1877 68.3574 28.2723 68.3574C28.357 68.3574 28.5263 68.3574 28.5263 68.5269C28.5263 68.5269 28.5263 68.5269 28.5263 68.6964Z" fill="#969696"/>
<path d="M21.1613 65.1372C21.3306 65.3067 21.4153 65.3915 21.4153 65.4762C21.4153 65.561 21.246 65.6457 21.246 65.7305C21.1613 65.6457 21.0767 65.561 21.0767 65.4762C21.0767 65.3915 21.1613 65.222 21.1613 65.1372Z" fill="#969696"/>
<path d="M35.9757 62.1706C35.8064 62.2554 35.7217 62.2554 35.5524 62.3401C35.5524 62.2554 35.4678 62.1706 35.4678 62.1706C35.5524 62.0011 35.7217 62.0859 35.891 62.0859C35.891 62.0011 35.891 62.0859 35.9757 62.1706Z" fill="#969696"/>
<path d="M20.654 68.1881C20.5694 68.2728 20.4847 68.3576 20.4847 68.3576C20.4001 68.3576 20.3154 68.2728 20.3154 68.1881L20.4001 68.0186C20.4001 68.1033 20.4847 68.1881 20.654 68.1881Z" fill="#969696"/>
<path d="M28.018 57.6789C27.9333 57.7637 27.8487 57.8484 27.764 57.8484C27.764 57.8484 27.6794 57.7637 27.5947 57.7637C27.6794 57.6789 27.6794 57.5942 27.764 57.5942C27.764 57.5094 27.8487 57.5942 28.018 57.6789Z" fill="#969696"/>
<path d="M25.3098 57.5093C25.2251 57.5941 25.1405 57.6788 25.1405 57.6788C25.0558 57.6788 24.9712 57.5941 24.9712 57.5093L25.0558 57.3398C25.0558 57.4246 25.1405 57.4246 25.3098 57.5093Z" fill="#969696"/>
<path d="M34.621 60.8149C34.7056 60.8997 34.7903 60.9844 34.7903 60.9844C34.7903 61.0692 34.7056 61.1539 34.621 61.1539L34.4517 61.0692C34.5363 60.9844 34.621 60.9844 34.621 60.8149Z" fill="#969696"/>
<path d="M34.621 59.0347C34.4517 59.1195 34.4517 59.2042 34.367 59.1195C34.2824 59.1195 34.2824 59.0347 34.1978 58.95C34.2824 58.95 34.2824 58.8652 34.367 58.8652C34.4517 58.8652 34.4517 58.95 34.621 59.0347Z" fill="#969696"/>
<path d="M25.1403 63.8659C25.0557 63.6964 25.0557 63.6964 25.0557 63.6116L25.225 63.5269C25.3096 63.6116 25.3943 63.6116 25.3943 63.6964C25.3943 63.6964 25.225 63.7811 25.1403 63.8659Z" fill="#969696"/>
<path d="M28.1877 62.4249C28.103 62.2554 28.103 62.2554 28.103 62.1707L28.2723 62.0859C28.357 62.1707 28.4416 62.1707 28.4416 62.2554C28.4416 62.2554 28.357 62.3402 28.1877 62.4249Z" fill="#969696"/>
<path d="M25.0553 72.002C24.9706 72.0868 24.886 72.0868 24.8013 72.1715C24.7167 72.1715 24.632 72.1715 24.5474 72.0868C24.632 72.002 24.8013 71.9173 24.886 71.8325C24.9706 71.8325 24.9706 71.8325 25.0553 72.002Z" fill="#969696"/>
<path d="M28.7802 60.5603C28.6955 60.645 28.6109 60.7298 28.5262 60.7298C28.5262 60.7298 28.4416 60.645 28.3569 60.645C28.4416 60.5603 28.4416 60.4755 28.5262 60.4755C28.6109 60.3908 28.6955 60.4755 28.7802 60.5603Z" fill="#969696"/>
<path d="M26.2406 60.4757C26.0713 60.5604 26.0713 60.6452 25.9867 60.5604C25.902 60.5604 25.902 60.4757 25.8174 60.3909C25.902 60.3909 25.902 60.3062 25.9867 60.3062C26.0713 60.3062 26.156 60.3909 26.2406 60.4757Z" fill="#969696"/>
<path d="M24.2938 67.5102C24.2092 67.4254 24.1245 67.3407 24.1245 67.2559C24.1245 67.2559 24.2092 67.1712 24.2092 67.0864C24.2938 67.1712 24.3785 67.1712 24.3785 67.2559C24.3785 67.3407 24.2938 67.4254 24.2938 67.5102Z" fill="#969696"/>
<path d="M27.0871 62.0861C27.0024 61.9166 27.0024 61.9166 27.0024 61.8318L27.1717 61.7471C27.2564 61.8318 27.341 61.8318 27.341 61.9166C27.2564 61.9166 27.1717 62.0013 27.0871 62.0861Z" fill="#969696"/>
<path d="M29.9652 71.1545C29.8806 71.2393 29.7959 71.324 29.7113 71.324C29.7113 71.324 29.6266 71.2393 29.542 71.2393C29.6266 71.1545 29.6266 71.0698 29.7113 71.0698C29.7113 70.985 29.7959 71.0698 29.9652 71.1545Z" fill="#969696"/>
<path d="M22.0932 71.1545C22.0085 71.2393 21.9239 71.324 21.8392 71.324C21.8392 71.324 21.7546 71.2393 21.6699 71.2393C21.7546 71.1545 21.7546 71.0698 21.8392 71.0698C21.8392 70.985 21.9239 71.0698 22.0932 71.1545Z" fill="#969696"/>
<path d="M23.7859 60.3908C23.7859 60.4755 23.7012 60.5603 23.7012 60.5603C23.6166 60.4755 23.5319 60.3908 23.4473 60.2213C23.4473 60.2213 23.4473 60.1365 23.5319 60.0518C23.6166 60.2213 23.7012 60.306 23.7859 60.3908Z" fill="#969696"/>
<path d="M35.7217 62.8486C35.7217 62.9334 35.8063 62.9334 35.8063 63.0181C35.8063 63.1029 35.7217 63.1876 35.7217 63.2724C35.637 63.1876 35.5524 63.1029 35.5524 63.0181C35.4677 63.0181 35.637 62.9334 35.7217 62.8486Z" fill="#969696"/>
<path d="M32.2507 59.374C32.3353 59.4588 32.42 59.5435 32.42 59.6283C32.42 59.713 32.3353 59.713 32.2507 59.7978C32.2507 59.713 32.166 59.713 32.166 59.6283C32.166 59.5435 32.166 59.4588 32.2507 59.374Z" fill="#969696"/>
<path d="M24.8014 70.3917C24.7168 70.2222 24.7168 70.2222 24.7168 70.1375L24.8861 70.0527C24.9707 70.1375 25.0554 70.1375 25.0554 70.2222C25.0554 70.2222 24.9707 70.307 24.8014 70.3917Z" fill="#969696"/>
<path d="M21.8394 63.188C21.9241 63.2727 22.0087 63.3575 22.0087 63.4422C22.0087 63.527 21.9241 63.527 21.8394 63.6117C21.8394 63.527 21.7548 63.527 21.7548 63.4422C21.6701 63.3575 21.7548 63.3575 21.8394 63.188Z" fill="#969696"/>
<path d="M23.8701 68.6119C23.9548 68.5271 23.9548 68.5271 24.0394 68.4424C24.0394 68.4424 24.1241 68.4424 24.2087 68.5271C24.1241 68.6119 24.0394 68.6966 24.0394 68.7814C23.9548 68.6966 23.9548 68.6966 23.8701 68.6119Z" fill="#969696"/>
<path d="M24.0394 72.3407C23.9548 72.2559 23.8701 72.2559 23.8701 72.2559C23.9548 72.1712 24.0394 72.0864 24.1241 72.0864C24.1241 72.1712 24.2087 72.1712 24.2087 72.2559C24.2087 72.1712 24.1241 72.2559 24.0394 72.3407Z" fill="#969696"/>
<path d="M26.9177 66.1538C27.0023 66.2386 27.087 66.3233 27.1716 66.4081C27.087 66.4081 27.087 66.4928 27.0023 66.4928C26.9177 66.4081 26.9177 66.4081 26.833 66.3233C26.833 66.2386 26.833 66.2386 26.9177 66.1538Z" fill="#969696"/>
<path d="M23.1086 62.0862C23.1086 62.171 23.024 62.2557 23.024 62.2557C22.9393 62.171 22.8547 62.0862 22.77 62.0862L22.8547 62.0015C22.9393 62.0015 23.024 62.0862 23.1086 62.0862Z" fill="#969696"/>
<path d="M33.3516 62.5096C33.3516 62.5943 33.267 62.5943 33.267 62.5943C33.1823 62.5943 33.0977 62.5943 33.0977 62.5096C33.0977 62.5096 33.0977 62.4248 33.1823 62.4248C33.267 62.5096 33.267 62.5096 33.3516 62.5096Z" fill="#969696"/>
<path d="M24.2935 71.6629C24.2935 71.6629 24.2088 71.6629 24.1242 71.7477C24.1242 71.6629 24.0396 71.6629 24.0396 71.5782C24.0396 71.4934 24.1242 71.4934 24.1242 71.4087C24.2088 71.4934 24.2088 71.5782 24.2935 71.6629Z" fill="#969696"/>
<path d="M30.7267 63.5267C30.7267 63.5267 30.7267 63.442 30.6421 63.3572C30.7267 63.3572 30.7267 63.2725 30.8114 63.2725C30.896 63.2725 30.896 63.3572 30.9807 63.3572C30.896 63.442 30.896 63.442 30.7267 63.5267Z" fill="#969696"/>
<path d="M30.3885 60.0518C30.4732 60.1365 30.5578 60.1365 30.5578 60.1365C30.4732 60.1365 30.4732 60.2213 30.3885 60.2213C30.3885 60.2213 30.3039 60.2213 30.2192 60.1365C30.3885 60.1365 30.3885 60.0518 30.3885 60.0518Z" fill="#969696"/>
<path d="M29.1193 65.3911C29.204 65.3911 29.204 65.4759 29.1193 65.3911C29.1193 65.4759 29.1193 65.4759 29.1193 65.5606L29.0347 65.4759C29.1193 65.4759 29.1193 65.3911 29.1193 65.3911Z" fill="#969696"/>
<path d="M97.4532 66.8261H52.4619C51.8532 66.8261 51.2998 66.0634 51.2998 65.0464C51.2998 64.1141 51.7979 63.2666 52.4619 63.2666H97.4532C98.0619 63.2666 98.6153 64.0294 98.6153 65.0464C98.6153 66.0634 98.0619 66.8261 97.4532 66.8261Z" fill="#DCDDE2"/>
<path d="M112.782 58.8593H52.4619C51.8532 58.8593 51.2998 58.0966 51.2998 57.0796C51.2998 56.1473 51.7979 55.2998 52.4619 55.2998H112.838C113.446 55.2998 114 56.0626 114 57.0796C113.944 58.0966 113.446 58.8593 112.782 58.8593Z" fill="#DCDDE2"/>
<path d="M128.556 38H4.44407C1.99661 38 0 35.3764 0 32.1604V5.83964C0 2.62361 1.99661 0 4.44407 0H128.556C131.003 0 133 2.62361 133 5.83964V32.1604C133 35.3764 131.003 38 128.556 38Z" fill="#F5F5F7"/>
<path d="M24.3791 30.3409C30.7839 30.3409 35.976 25.1426 35.976 18.73C35.976 12.3175 30.7839 7.11914 24.3791 7.11914C17.9743 7.11914 12.7822 12.3175 12.7822 18.73C12.7822 25.1426 17.9743 30.3409 24.3791 30.3409Z" fill="#DCDDE2"/>
<path d="M33.5211 30.341C36.2794 30.341 38.5154 28.1022 38.5154 25.3406C38.5154 22.579 36.2794 20.3403 33.5211 20.3403C30.7629 20.3403 28.5269 22.579 28.5269 25.3406C28.5269 28.1022 30.7629 30.341 33.5211 30.341Z" fill="#77797E"/>
<path d="M29.0341 23.5609C29.0341 23.9846 28.6109 24.2389 28.6955 24.6627C28.7802 25.0864 28.6955 25.4254 28.6955 25.8492C28.6955 25.9339 28.6955 26.0187 28.6109 26.0187C28.5262 25.9339 28.5262 25.9339 28.4416 25.8492C28.2723 25.6797 28.1876 25.5949 28.1876 25.3407C28.1876 25.0017 27.9337 24.7474 27.6798 24.4932C27.5951 24.4084 27.5105 24.4084 27.4258 24.4932C27.3412 24.4932 27.1719 24.6627 27.2565 24.4932C27.3412 23.8999 26.8333 23.8999 26.4947 23.8151C26.2407 23.7304 26.2407 23.6456 26.2407 23.4761C26.2407 23.3066 26.3254 23.3066 26.4947 23.3066C26.664 23.3066 26.7486 23.2219 26.9179 23.2219C27.0872 23.1371 27.1719 23.2219 27.1719 23.3914C27.1719 23.4761 27.2565 23.6456 27.3412 23.7304L27.4258 23.8151C27.5105 23.6456 27.5951 23.4761 27.6798 23.3914C27.8491 23.2219 27.7644 23.1371 27.5951 22.9676C27.5951 22.9676 27.5951 22.7134 27.6798 22.7134C28.103 22.6286 27.9337 22.3744 27.7644 22.2049C27.5951 21.9506 27.6798 21.6964 27.9337 21.6116C28.2723 21.5269 28.1876 21.3574 28.1876 21.1879C28.1876 20.9336 28.3569 20.8489 28.5262 21.0184C28.6955 21.1031 28.7802 21.2726 29.0341 21.2726C29.1188 21.3574 29.2034 21.5269 29.3727 21.6116C29.6267 21.6964 29.6267 21.9506 29.796 22.1201C29.796 22.1201 29.796 22.2049 29.796 22.2896C29.6267 22.4591 29.542 22.7134 29.3727 22.8829C29.0341 23.3066 29.0341 23.3066 28.6109 23.1371C28.4416 23.0524 28.3569 23.0524 28.2723 23.1371C28.2723 23.2219 28.1876 23.4761 28.3569 23.5609C28.6109 23.5609 28.9495 23.5609 29.0341 23.5609ZM28.6955 21.7811C28.6955 21.7811 28.5262 21.8659 28.4416 21.8659C28.5262 21.9506 28.5262 22.1201 28.6109 22.2049C28.6955 22.3744 28.7802 22.5439 28.9495 22.7134C28.9495 22.7981 29.1188 22.7134 29.2034 22.7134C29.2881 22.7134 29.2034 22.5439 29.2881 22.5439C29.3727 22.4591 29.542 22.2049 29.542 22.2049C29.3727 22.0354 29.2881 21.7811 28.9495 21.8659C28.8648 21.7811 28.7802 21.7811 28.6955 21.7811Z" fill="#969696"/>
<path d="M27.5948 26.8661C27.8488 26.7813 28.1027 26.8661 28.1873 27.2051C28.272 27.5441 28.5259 27.5441 28.7799 27.5441C28.8645 27.5441 28.9492 27.4593 28.9492 27.3746C28.9492 27.2898 28.8645 27.2051 28.8645 27.2051C28.8645 27.2051 28.7799 27.2051 28.6952 27.2051C28.4413 27.0356 28.4413 26.9508 28.6106 26.6118C28.6952 26.6118 28.8645 26.6118 28.8645 26.6966C28.8645 27.0356 29.1185 27.2898 29.2031 27.6288C29.2031 27.7136 29.1185 27.9678 29.1185 27.9678C28.7799 28.0526 28.4413 28.2221 28.1027 28.1373C28.0181 28.1373 27.8488 28.0526 27.7641 27.9678C27.6795 27.8831 27.5948 27.7983 27.4255 27.9678C27.2562 28.0526 27.1716 27.8831 27.0869 27.7983C27.1716 27.7136 27.2562 27.5441 27.3409 27.5441C27.6795 27.4593 27.5948 27.1203 27.5948 26.8661Z" fill="#969696"/>
<path d="M27.0021 24.4932C27.1714 24.7474 27.2561 24.8322 27.2561 25.0017C27.2561 25.0017 27.1714 25.0864 27.0868 25.1712C27.0021 25.1712 26.9175 25.1712 26.8328 25.1712C26.5789 25.1712 26.5789 25.2559 26.5789 25.4254C26.5789 25.5102 26.5789 25.6797 26.5789 25.7644C26.5789 25.8492 26.6635 26.0187 26.6635 26.1034C26.7482 26.0187 26.9175 26.0187 27.0021 25.9339C27.2561 25.7644 27.51 25.5102 27.764 25.3407C27.8486 25.3407 27.9333 25.3407 27.9333 25.3407C28.0179 25.4254 28.0179 25.5102 28.0179 25.5949C28.0179 25.6797 27.9333 25.9339 27.8486 25.9339C27.4254 25.9339 27.2561 26.4424 26.8328 26.3577C26.5789 26.6967 26.3249 26.4424 26.071 26.2729C25.9017 26.1034 25.817 25.9339 25.9863 25.7644C26.071 25.5949 26.1556 25.5102 26.2403 25.3407C26.4096 24.7474 27.0021 25.1712 27.0021 24.4932Z" fill="#969696"/>
<path d="M27.595 28.9851C28.1875 28.4766 28.2722 28.4766 28.3568 28.4766C28.4415 28.4766 28.5261 28.6461 28.5261 28.6461C28.4415 28.7308 28.4415 28.9003 28.2722 28.9851C28.1875 28.9851 28.1029 28.9851 28.0182 28.9003C27.9336 28.9003 27.9336 28.8156 27.8489 28.7308C27.8489 28.8156 27.595 28.8156 27.7643 28.9851C28.0182 29.3241 27.6796 29.5783 27.5104 29.8326C27.3411 30.0021 27.1718 30.0021 27.0025 29.6631C26.9178 29.4936 26.5792 29.6631 26.6639 29.4088C26.7485 29.3241 26.9178 29.2393 27.0025 29.1546C27.0871 29.0698 27.0871 29.0698 27.0871 28.9851C27.4257 28.6461 27.595 28.3918 27.595 28.9851C27.1718 29.4936 27.1718 29.4936 27.0871 29.5783L27.1718 29.6631L27.2564 29.5783C27.2564 29.4936 27.2564 29.4936 27.595 28.9851Z" fill="#969696"/>
<path d="M33.9435 20.6792C33.8589 20.6792 33.7742 20.6792 33.6896 20.6792C33.6049 20.6792 33.6049 20.6792 33.5203 20.5945C33.5203 20.5097 33.6049 20.5097 33.6049 20.425C33.6896 20.3402 33.8589 20.2555 33.8589 20.1707C33.7742 20.0012 33.6049 20.0012 33.4356 20.086C33.1817 20.1707 33.0124 20.0012 32.9277 19.8317C32.9277 19.747 33.0124 19.6622 33.0124 19.6622C33.351 19.747 33.6049 19.4927 33.9435 19.6622C34.2821 19.8317 34.5361 20.1707 34.4514 20.5097C34.4514 20.5945 34.3668 20.5945 34.2821 20.5945C34.1975 20.6792 34.1128 20.6792 33.9435 20.6792Z" fill="#969696"/>
<path d="M25.902 25.0863C25.5634 25.171 25.3941 24.7473 25.1402 25.0863C25.0555 25.0015 24.9709 24.9168 24.8862 24.832C24.8862 24.7473 24.8862 24.6625 24.9709 24.5778C25.0555 24.4083 25.2248 24.4083 25.3941 24.4083C25.6481 24.493 25.8174 24.7473 25.902 24.2388C25.9867 24.2388 26.156 24.3235 26.2406 24.3235C26.3253 24.4083 26.3253 24.493 26.2406 24.5778C26.156 24.6625 26.0713 24.7473 25.9867 24.9168C25.902 25.0863 25.902 25.0863 25.902 25.0863Z" fill="#969696"/>
<path d="M30.3042 21.1031C30.3042 21.2726 30.3889 21.4421 30.2196 21.6116C30.1349 21.6964 30.0503 21.8659 30.0503 21.6116C29.9656 21.1031 29.5424 21.2726 29.2038 21.2726C29.2038 21.1878 29.2038 21.1878 29.1192 21.1031C28.9499 20.9336 28.9499 20.8488 29.1192 20.6793C29.2038 20.5098 29.3731 20.6793 29.3731 20.6793C29.5424 20.5946 29.7117 21.0183 29.881 20.6793C30.0503 20.9336 30.2196 21.0183 30.3042 21.1031Z" fill="#969696"/>
<path d="M32.4202 19.069C32.2509 19.5775 31.997 20.0012 31.6584 20.3403C31.4891 20.086 31.4044 19.747 31.743 19.5775C31.8277 19.4927 31.9123 19.408 31.997 19.3232C31.9123 18.9842 32.2509 19.069 32.4202 19.069Z" fill="#969696"/>
<path d="M24.5473 22.7979C24.5473 22.7979 24.4626 22.9674 24.378 23.1369C24.378 23.1369 24.2087 23.0521 24.124 23.1369C24.0394 23.1369 23.9547 23.3064 23.8701 23.3064C23.8701 23.3064 23.7854 23.2216 23.7008 23.2216C23.6161 23.1369 23.5315 22.9674 23.6161 22.9674C23.7854 22.7979 23.9547 22.5436 24.2087 22.3741C24.2933 22.2894 24.5473 22.4589 24.5473 22.7979Z" fill="#969696"/>
<path d="M26.8333 22.6286C26.8333 22.7981 26.8333 22.7981 26.8333 22.8829C26.8333 22.9676 26.7486 22.9676 26.7486 23.0524C26.7486 23.0524 26.664 23.0524 26.5793 23.0524C26.5793 23.0524 26.4947 23.0524 26.4947 22.9676C26.41 22.7134 26.2407 22.5439 25.9021 22.5439C25.9021 22.5439 25.6482 22.4591 25.8175 22.2896C25.9021 22.2049 26.0714 22.1201 26.1561 22.1201C26.3254 22.2049 26.4947 22.4591 26.7486 22.4591C26.7486 22.4591 26.7486 22.6286 26.8333 22.6286Z" fill="#969696"/>
<path d="M27.4256 21.3573C27.341 21.1878 27.2563 21.1031 27.2563 21.0183C27.341 20.8488 27.4256 20.6793 27.5949 20.5098C27.6796 20.4251 27.7642 20.3403 27.7642 20.3403C27.8489 20.4251 28.1028 20.5098 28.0182 20.5946C28.0182 20.7641 27.9335 21.0183 27.8489 21.1031C27.7642 21.1878 27.5949 21.2726 27.4256 21.3573Z" fill="#969696"/>
<path d="M30.8966 20.1709C31.0659 20.1709 31.1505 20.4252 31.0659 20.5099C30.9812 20.5947 30.8966 20.7642 30.8966 20.9337C30.8966 21.1879 30.7273 21.1032 30.558 21.1032C30.304 21.1879 30.3887 20.9337 30.3887 20.8489C30.304 20.5099 30.558 20.3404 30.8119 20.1709C30.7273 20.1709 30.8119 20.1709 30.8966 20.1709Z" fill="#969696"/>
<path d="M30.7269 19.1535C30.5576 19.4077 30.3883 19.662 30.219 19.8315C30.1343 19.9162 29.8804 19.7467 29.8804 19.5772C29.8804 19.4925 29.965 19.4077 29.965 19.323C30.3036 19.4925 30.1343 18.8145 30.5576 18.984C30.5576 19.0687 30.6422 19.1535 30.7269 19.1535Z" fill="#969696"/>
<path d="M28.8651 28.4762C28.8651 28.3067 28.7805 28.1372 29.0344 28.1372C29.2037 28.222 29.4576 28.3067 29.6269 28.3915C29.6269 28.3915 29.1191 28.8152 29.0344 28.8152C28.7805 28.8152 28.9498 28.6457 28.8651 28.4762Z" fill="#969696"/>
<path d="M23.1933 26.7812C23.1933 26.7812 23.1933 26.866 23.1087 26.9507C23.024 26.9507 22.9394 26.866 22.8547 26.7812C22.8547 26.6965 22.9394 26.527 22.8547 26.527C22.7701 26.4422 22.6854 26.4422 22.5161 26.3575C22.4315 26.2727 22.4315 26.188 22.5161 26.1032C22.6008 26.0185 22.6854 25.9337 22.7701 26.1032C22.8547 26.2727 23.4473 26.188 23.1933 26.7812Z" fill="#969696"/>
<path d="M26.9177 27.2051C26.833 27.2051 26.833 27.2051 26.833 27.1203C26.833 27.0356 26.833 26.9508 26.833 26.9508C27.0023 26.7813 27.1716 26.6966 27.4256 26.6118C27.4256 26.6118 27.5948 26.6118 27.5948 26.6966C27.5948 26.6966 27.5948 26.7813 27.5948 26.8661C27.5102 27.0356 27.1716 27.2051 26.9177 27.2051Z" fill="#969696"/>
<path d="M33.097 18.8995C33.097 19.0691 33.097 19.2386 32.8431 19.2386C32.6738 19.2386 32.5045 19.1538 32.4198 18.9843C32.3352 18.8148 32.7584 18.5605 32.8431 18.5605C33.1817 18.5605 33.0124 18.8148 33.097 18.8995Z" fill="#969696"/>
<path d="M25.9867 23.9847C25.7328 23.9847 25.5635 23.9 25.7328 23.7305C25.9021 23.561 25.5635 23.4762 25.6481 23.3915C25.7328 23.3067 25.8174 23.222 25.9021 23.1372C25.9867 23.222 26.0714 23.3067 26.156 23.3915C26.2406 23.561 25.7328 23.8152 26.156 24.0695C26.0714 23.9847 25.9867 23.9847 25.9867 23.9847Z" fill="#969696"/>
<path d="M27.7646 22.2894C27.7646 22.5437 27.6799 22.6284 27.5106 22.5437C27.426 22.5437 27.3413 22.4589 27.3413 22.3742C27.3413 22.2894 27.3413 22.1199 27.3413 21.9504C27.3413 21.8657 27.5106 21.6962 27.5106 21.7809C27.5953 21.7809 27.6799 21.9504 27.7646 22.0352C27.7646 22.1199 27.7646 22.2047 27.7646 22.2894Z" fill="#969696"/>
<path d="M25.7329 20.8489L25.8176 20.7642H25.9869C26.0715 20.9337 26.2408 21.0184 26.2408 21.1879C26.2408 21.2727 26.2408 21.4422 26.2408 21.4422C26.1562 21.4422 25.9022 21.4422 25.9022 21.3574C25.8176 21.2727 25.8176 21.1032 25.7329 20.8489Z" fill="#969696"/>
<path d="M28.6112 29.7476C28.5265 29.6628 28.4419 29.4933 28.4419 29.4933C28.6112 29.3238 28.7805 29.239 28.9498 29.1543C29.0344 29.1543 29.1191 29.239 29.2037 29.239C29.2037 29.3238 29.1191 29.4085 29.0344 29.4933C28.9498 29.5781 28.7805 29.6628 28.6958 29.7476H28.6112Z" fill="#969696"/>
<path d="M29.5419 20.1709C29.5419 20.2556 29.4573 20.2556 29.4573 20.3404C29.4573 20.3404 29.3726 20.3404 29.288 20.3404C29.2033 20.2556 29.034 20.1709 28.9494 20.0014C28.8647 19.9166 28.9494 19.8319 28.8647 19.7471C28.9494 19.7471 29.2033 19.6624 29.2033 19.7471C29.3726 19.8319 29.4573 20.0014 29.5419 20.1709Z" fill="#969696"/>
<path d="M23.2779 23.6456C23.2779 23.7304 23.2779 23.8151 23.2779 23.8999C23.2779 23.9847 23.024 24.0694 22.8547 23.9846C22.77 23.8999 22.77 23.8151 22.77 23.7304C22.77 23.6456 22.8547 23.4761 22.9393 23.3914C22.9393 23.3914 23.024 23.3066 23.1086 23.3066C23.1933 23.3066 23.1933 23.3914 23.2779 23.3914C23.2779 23.5609 23.2779 23.6456 23.2779 23.6456Z" fill="#969696"/>
<path d="M26.6641 27.0356C26.6641 27.2051 26.6641 27.2898 26.6641 27.4593C26.6641 27.4593 26.5795 27.5441 26.4948 27.5441C26.4948 27.5441 26.4102 27.5441 26.4102 27.4593V27.3746C26.6641 27.2051 26.3255 26.9508 26.4948 26.7813C26.5795 26.6966 26.5795 26.6966 26.6641 26.6118C26.6641 26.6966 26.7488 26.7813 26.7488 26.8661C26.6641 26.8661 26.6641 26.9508 26.6641 27.0356Z" fill="#969696"/>
<path d="M27.3413 18.8994C27.5106 18.8994 27.5953 18.8994 27.5953 18.8994C27.6799 18.9842 27.7646 19.0689 27.9339 19.1537C27.8492 19.2384 27.6799 19.4079 27.6799 19.3232C27.5106 19.2384 27.426 19.0689 27.3413 18.9842C27.2567 18.9842 27.3413 18.8994 27.3413 18.8994Z" fill="#969696"/>
<path d="M32.6734 20.8489C32.5887 20.6794 32.5041 20.5099 32.4194 20.2556C32.5041 20.2556 32.6734 20.1709 32.758 20.1709C33.012 20.1709 32.9273 20.4252 32.9273 20.5099C32.8427 20.6794 32.758 20.7642 32.6734 20.8489Z" fill="#969696"/>
<path d="M24.8013 24.1538C24.7167 23.9843 24.632 23.8996 24.5474 23.8148C24.5474 23.73 24.886 23.5605 25.0553 23.5605C25.1399 23.5605 25.1399 23.73 25.1399 23.73C25.0553 23.8148 24.9706 23.8996 24.8013 24.1538Z" fill="#969696"/>
<path d="M24.8017 26.6965C24.5477 26.6965 24.3784 26.6965 24.3784 26.4422C24.3784 26.2727 24.4631 26.188 24.6324 26.188C24.8017 26.188 24.971 26.188 24.8863 26.4422C24.8863 26.6117 24.8017 26.6965 24.8017 26.6965Z" fill="#969696"/>
<path d="M31.489 17.2042C31.489 17.2042 31.5737 17.2042 31.5737 17.2889C31.5737 17.4584 31.4044 17.6279 31.0658 17.6279C30.9811 17.6279 30.9811 17.5432 30.8965 17.5432C31.2351 17.4584 31.0658 17.0347 31.489 17.2042Z" fill="#969696"/>
<path d="M22.4313 28.8152C22.3467 28.6457 22.3467 28.561 22.3467 28.4762C22.3467 28.3067 22.4313 28.1372 22.6006 28.1372C22.6853 28.1372 22.8546 28.3067 22.7699 28.3915C22.6853 28.4762 22.6006 28.561 22.4313 28.8152Z" fill="#969696"/>
<path d="M26.3251 28.1373C26.4097 28.4763 26.2404 28.4763 26.0712 28.4763C25.9865 28.4763 25.9019 28.3915 25.9019 28.3068C25.9019 28.1373 26.1558 27.9678 26.2404 27.9678C26.2404 28.0525 26.3251 28.1373 26.3251 28.1373Z" fill="#969696"/>
<path d="M25.6478 25.7642C25.6478 26.0185 25.6478 26.188 25.3938 26.1032C25.3092 26.1032 25.2245 26.0185 25.1399 26.0185C25.0552 25.9337 25.3092 25.6795 25.4785 25.6795C25.5631 25.5947 25.6478 25.7642 25.6478 25.7642Z" fill="#969696"/>
<path d="M34.5361 17.7128C34.7901 17.5433 34.8747 17.3738 35.044 17.2891L35.1287 17.3738C35.044 17.5433 34.9594 17.7976 34.9594 17.9671C34.7901 17.8823 34.7054 17.7976 34.5361 17.7128Z" fill="#969696"/>
<path d="M34.4517 15.5093C34.5364 15.6788 34.7056 15.7635 34.7903 15.933L34.7056 16.0178C34.5364 16.0178 34.3671 16.0178 34.1978 15.8483V15.7635C34.2824 15.6788 34.3671 15.594 34.4517 15.5093Z" fill="#969696"/>
<path d="M35.3823 20.2556C35.0437 20.5099 34.8744 20.5947 34.7897 20.6794L34.7051 20.5099C34.7897 20.4252 34.959 20.2556 35.0437 20.1709C35.1283 20.1709 35.213 20.1709 35.3823 20.2556Z" fill="#969696"/>
<path d="M31.235 15.1704C31.4043 15.3399 31.489 15.4247 31.5736 15.5942C31.5736 15.5942 31.489 15.6789 31.489 15.7637C31.4043 15.6789 31.235 15.5942 31.1504 15.4247C31.1504 15.3399 31.235 15.2552 31.235 15.1704Z" fill="#969696"/>
<path d="M35.3827 18.8149C35.4674 18.9844 35.4674 19.0692 35.4674 19.1539C35.4674 19.2387 35.552 19.4929 35.2981 19.4082C35.2134 19.4082 35.1288 19.2387 34.9595 19.2387C35.1288 19.0692 35.2134 18.9844 35.3827 18.8149Z" fill="#969696"/>
<path d="M27.2566 21.3573C27.0873 21.4421 27.0026 21.4421 26.918 21.4421C26.8333 21.4421 26.5794 21.5269 26.664 21.2726C26.664 21.1878 26.8333 21.1031 26.8333 20.9336C26.918 21.1031 27.0873 21.1878 27.2566 21.3573Z" fill="#969696"/>
<path d="M30.8967 18.9844C30.8967 18.8149 30.812 18.6454 30.812 18.5606C30.812 18.4759 30.9813 18.3911 30.9813 18.3911C31.066 18.4759 31.1506 18.5606 31.2353 18.6454C31.1506 18.7301 31.066 18.8149 30.8967 18.9844Z" fill="#969696"/>
<path d="M29.204 18.9844C29.1193 18.8996 29.0347 18.8149 29.0347 18.7301C29.1193 18.6454 29.204 18.5606 29.2886 18.3911C29.3733 18.4759 29.4579 18.5606 29.4579 18.7301C29.5426 18.8149 29.3733 18.8996 29.204 18.9844Z" fill="#969696"/>
<path d="M34.706 17.9673C34.7906 18.1368 34.7906 18.2215 34.7906 18.3063C34.7906 18.391 34.8753 18.6453 34.6213 18.5605C34.5367 18.5605 34.452 18.391 34.2827 18.391C34.452 18.2215 34.5367 18.1368 34.706 17.9673Z" fill="#969696"/>
<path d="M35.552 18.6452C35.3827 18.4757 35.298 18.4757 35.2134 18.391L35.552 18.1367C35.552 18.1367 35.6366 18.2215 35.6366 18.3062C35.6366 18.391 35.6366 18.4757 35.552 18.6452Z" fill="#969696"/>
<path d="M31.6584 20.5946C31.5738 20.6793 31.4891 20.7641 31.4891 20.7641C31.3198 20.7641 31.3198 20.5946 31.3198 20.5098C31.3198 20.4251 31.4045 20.3403 31.4891 20.3403C31.7431 20.2555 31.5738 20.5098 31.6584 20.5946Z" fill="#969696"/>
<path d="M31.32 18.4759C31.2354 18.2216 31.1508 18.1369 31.1508 18.0521C31.1508 17.9674 31.0661 17.7979 31.32 17.7979C31.4047 17.7979 31.4893 17.8826 31.4893 17.9674C31.4893 18.0521 31.4047 18.2216 31.32 18.4759Z" fill="#969696"/>
<path d="M33.0972 17.7131C32.9279 17.7131 32.7587 17.7979 32.674 17.7979L32.5894 17.6284C32.674 17.3741 32.8433 17.5436 33.0126 17.5436C33.0126 17.4589 33.0126 17.5436 33.0972 17.7131Z" fill="#969696"/>
<path d="M25.648 27.629C25.5634 27.7137 25.4787 27.7985 25.3941 27.8832C25.3094 27.7985 25.2248 27.629 25.1401 27.5442C25.1401 27.5442 25.2248 27.4595 25.3094 27.4595C25.4787 27.4595 25.5634 27.5442 25.648 27.629Z" fill="#969696"/>
<path d="M28.2716 17.6283C28.1869 17.713 28.1869 17.7978 28.1869 17.7978C28.1023 17.713 27.933 17.713 27.8483 17.6283C27.679 17.5435 27.8483 17.4588 27.933 17.4588L28.1023 17.374C28.1023 17.4588 28.1869 17.5435 28.2716 17.6283Z" fill="#969696"/>
<path d="M29.5423 19.4928C29.5423 19.4928 29.373 19.4081 29.373 19.3233C29.373 19.2386 29.373 19.1538 29.373 19.1538C29.4577 19.1538 29.5423 19.1538 29.627 19.1538C29.7116 19.2386 29.7116 19.3233 29.7963 19.4081C29.7963 19.4081 29.7116 19.4081 29.5423 19.4928Z" fill="#969696"/>
<path d="M34.5364 17.7132C34.3671 17.7979 34.2824 17.7979 34.2824 17.7979C34.1131 17.7132 34.0285 17.6284 33.9438 17.5437C34.0285 17.4589 34.1131 17.2894 34.1131 17.3742C34.1978 17.3742 34.2824 17.4589 34.5364 17.7132Z" fill="#969696"/>
<path d="M24.2942 28.6458C24.2942 28.6458 24.3788 28.6458 24.4635 28.6458C24.5481 28.6458 24.5481 28.8153 24.5481 28.8153L24.4635 28.9C24.3788 28.9 24.2095 28.8153 24.1249 28.7305C24.0402 28.7305 23.9556 28.6458 23.9556 28.6458C24.0402 28.6458 24.1249 28.561 24.1249 28.561C24.1249 28.6458 24.2095 28.6458 24.2942 28.6458Z" fill="#969696"/>
<path d="M26.0714 21.8659C25.9021 21.8659 25.8174 21.9506 25.7328 21.8659C25.6481 21.8659 25.5635 21.7811 25.5635 21.6964C25.6481 21.6116 25.7328 21.5269 25.7328 21.5269C25.8174 21.6964 25.9021 21.7811 26.0714 21.8659Z" fill="#969696"/>
<path d="M25.9019 29.0696C25.7326 29.1544 25.648 29.3239 25.5633 29.3239C25.5633 29.3239 25.4787 29.2391 25.394 29.1544C25.4787 29.0696 25.5633 28.9849 25.5633 28.9849C25.648 28.9849 25.7326 28.9849 25.9019 29.0696Z" fill="#969696"/>
<path d="M20.4845 22.1199C20.3152 22.2046 20.2305 22.2046 20.0612 22.2894C20.0612 22.2046 19.9766 22.1199 19.9766 22.1199C20.0612 21.9504 20.2305 22.0351 20.3998 22.0351C20.4845 21.9504 20.4845 22.0351 20.4845 22.1199Z" fill="#969696"/>
<path d="M25.1399 20.6793C25.0553 20.764 24.9706 20.8488 24.886 20.8488C24.8013 20.764 24.7167 20.6793 24.5474 20.5945C24.632 20.5945 24.7167 20.5098 24.8013 20.5098C24.9706 20.5098 24.9706 20.5945 25.1399 20.6793Z" fill="#969696"/>
<path d="M25.2248 27.0355C25.2248 27.0355 25.2248 27.1203 25.1402 27.205C25.0555 27.2898 24.8862 26.9508 24.8862 26.866L24.9709 26.7813C25.0555 26.6965 25.2248 26.7813 25.2248 27.0355Z" fill="#969696"/>
<path d="M30.6423 17.9674C30.5577 17.8827 30.473 17.7979 30.3037 17.7132C30.3037 17.7132 30.3037 17.6284 30.3884 17.6284C30.473 17.6284 30.5577 17.6284 30.727 17.6284C30.727 17.6284 30.8116 17.6284 30.8116 17.7132C30.8116 17.7979 30.8116 17.8827 30.8116 17.8827C30.8116 17.8827 30.727 17.8827 30.6423 17.9674Z" fill="#969696"/>
<path d="M26.2405 19.3234C26.1558 19.4081 26.0712 19.4929 25.9865 19.4929C25.9865 19.4081 25.9019 19.3234 25.9019 19.3234C25.9865 19.2386 26.0712 19.1539 26.1558 18.9844C26.0712 19.1539 26.1558 19.2386 26.2405 19.3234Z" fill="#969696"/>
<path d="M35.4675 16.9503C35.3829 16.9503 35.2982 16.9503 35.2982 16.9503C35.2136 16.8656 35.2136 16.7808 35.1289 16.6961C35.2136 16.6961 35.2136 16.6113 35.2982 16.6113C35.2982 16.6113 35.3829 16.6113 35.3829 16.6961C35.4675 16.7808 35.4675 16.7808 35.5522 16.8656C35.5522 16.9503 35.5522 16.9503 35.4675 16.9503Z" fill="#969696"/>
<path d="M28.5263 26.6964C28.357 26.5269 28.1877 26.5269 28.103 26.4422C28.1877 26.4422 28.1877 26.3574 28.2723 26.3574C28.357 26.3574 28.5263 26.3574 28.5263 26.5269C28.5263 26.5269 28.5263 26.5269 28.5263 26.6964Z" fill="#969696"/>
<path d="M21.1613 23.1372C21.3306 23.3067 21.4153 23.3915 21.4153 23.4762C21.4153 23.561 21.246 23.6457 21.246 23.7305C21.1613 23.6457 21.0767 23.561 21.0767 23.4762C21.0767 23.3915 21.1613 23.222 21.1613 23.1372Z" fill="#969696"/>
<path d="M35.9757 20.1706C35.8064 20.2554 35.7217 20.2554 35.5524 20.3401C35.5524 20.2554 35.4678 20.1706 35.4678 20.1706C35.5524 20.0011 35.7217 20.0859 35.891 20.0859C35.891 20.0011 35.891 20.0859 35.9757 20.1706Z" fill="#969696"/>
<path d="M20.654 26.1881C20.5694 26.2728 20.4847 26.3576 20.4847 26.3576C20.4001 26.3576 20.3154 26.2728 20.3154 26.1881L20.4001 26.0186C20.4001 26.1033 20.4847 26.1881 20.654 26.1881Z" fill="#969696"/>
<path d="M28.018 15.6789C27.9333 15.7637 27.8487 15.8484 27.764 15.8484C27.764 15.8484 27.6794 15.7637 27.5947 15.7637C27.6794 15.6789 27.6794 15.5942 27.764 15.5942C27.764 15.5094 27.8487 15.5942 28.018 15.6789Z" fill="#969696"/>
<path d="M25.3098 15.5093C25.2251 15.5941 25.1405 15.6788 25.1405 15.6788C25.0558 15.6788 24.9712 15.5941 24.9712 15.5093L25.0558 15.3398C25.0558 15.4246 25.1405 15.4246 25.3098 15.5093Z" fill="#969696"/>
<path d="M34.621 18.8149C34.7056 18.8997 34.7903 18.9844 34.7903 18.9844C34.7903 19.0692 34.7056 19.1539 34.621 19.1539L34.4517 19.0692C34.5363 18.9844 34.621 18.9844 34.621 18.8149Z" fill="#969696"/>
<path d="M34.621 17.0347C34.4517 17.1195 34.4517 17.2042 34.367 17.1195C34.2824 17.1195 34.2824 17.0347 34.1978 16.95C34.2824 16.95 34.2824 16.8652 34.367 16.8652C34.4517 16.8652 34.4517 16.95 34.621 17.0347Z" fill="#969696"/>
<path d="M25.1403 21.8659C25.0557 21.6964 25.0557 21.6964 25.0557 21.6116L25.225 21.5269C25.3096 21.6116 25.3943 21.6116 25.3943 21.6964C25.3943 21.6964 25.225 21.7811 25.1403 21.8659Z" fill="#969696"/>
<path d="M28.1877 20.4249C28.103 20.2554 28.103 20.2554 28.103 20.1707L28.2723 20.0859C28.357 20.1707 28.4416 20.1707 28.4416 20.2554C28.4416 20.2554 28.357 20.3402 28.1877 20.4249Z" fill="#969696"/>
<path d="M25.0553 30.002C24.9706 30.0868 24.886 30.0868 24.8013 30.1715C24.7167 30.1715 24.632 30.1715 24.5474 30.0868C24.632 30.002 24.8013 29.9173 24.886 29.8325C24.9706 29.8325 24.9706 29.8325 25.0553 30.002Z" fill="#969696"/>
<path d="M28.7802 18.5603C28.6955 18.645 28.6109 18.7298 28.5262 18.7298C28.5262 18.7298 28.4416 18.645 28.3569 18.645C28.4416 18.5603 28.4416 18.4755 28.5262 18.4755C28.6109 18.3908 28.6955 18.4755 28.7802 18.5603Z" fill="#969696"/>
<path d="M26.2406 18.4757C26.0713 18.5604 26.0713 18.6452 25.9867 18.5604C25.902 18.5604 25.902 18.4757 25.8174 18.3909C25.902 18.3909 25.902 18.3062 25.9867 18.3062C26.0713 18.3062 26.156 18.3909 26.2406 18.4757Z" fill="#969696"/>
<path d="M24.2938 25.5102C24.2092 25.4254 24.1245 25.3407 24.1245 25.2559C24.1245 25.2559 24.2092 25.1712 24.2092 25.0864C24.2938 25.1712 24.3785 25.1712 24.3785 25.2559C24.3785 25.3407 24.2938 25.4254 24.2938 25.5102Z" fill="#969696"/>
<path d="M27.0871 20.0861C27.0024 19.9166 27.0024 19.9166 27.0024 19.8318L27.1717 19.7471C27.2564 19.8318 27.341 19.8318 27.341 19.9166C27.2564 19.9166 27.1717 20.0013 27.0871 20.0861Z" fill="#969696"/>
<path d="M29.9652 29.1545C29.8806 29.2393 29.7959 29.324 29.7113 29.324C29.7113 29.324 29.6266 29.2393 29.542 29.2393C29.6266 29.1545 29.6266 29.0698 29.7113 29.0698C29.7113 28.985 29.7959 29.0698 29.9652 29.1545Z" fill="#969696"/>
<path d="M22.0932 29.1545C22.0085 29.2393 21.9239 29.324 21.8392 29.324C21.8392 29.324 21.7546 29.2393 21.6699 29.2393C21.7546 29.1545 21.7546 29.0698 21.8392 29.0698C21.8392 28.985 21.9239 29.0698 22.0932 29.1545Z" fill="#969696"/>
<path d="M23.7859 18.3908C23.7859 18.4755 23.7012 18.5603 23.7012 18.5603C23.6166 18.4755 23.5319 18.3908 23.4473 18.2213C23.4473 18.2213 23.4473 18.1365 23.5319 18.0518C23.6166 18.2213 23.7012 18.306 23.7859 18.3908Z" fill="#969696"/>
<path d="M35.7217 20.8486C35.7217 20.9334 35.8063 20.9334 35.8063 21.0181C35.8063 21.1029 35.7217 21.1876 35.7217 21.2724C35.637 21.1876 35.5524 21.1029 35.5524 21.0181C35.4677 21.0181 35.637 20.9334 35.7217 20.8486Z" fill="#969696"/>
<path d="M32.2507 17.374C32.3353 17.4588 32.42 17.5435 32.42 17.6283C32.42 17.713 32.3353 17.713 32.2507 17.7978C32.2507 17.713 32.166 17.713 32.166 17.6283C32.166 17.5435 32.166 17.4588 32.2507 17.374Z" fill="#969696"/>
<path d="M24.8014 28.3917C24.7168 28.2222 24.7168 28.2222 24.7168 28.1375L24.8861 28.0527C24.9707 28.1375 25.0554 28.1375 25.0554 28.2222C25.0554 28.2222 24.9707 28.307 24.8014 28.3917Z" fill="#969696"/>
<path d="M21.8394 21.188C21.9241 21.2727 22.0087 21.3575 22.0087 21.4422C22.0087 21.527 21.9241 21.527 21.8394 21.6117C21.8394 21.527 21.7548 21.527 21.7548 21.4422C21.6701 21.3575 21.7548 21.3575 21.8394 21.188Z" fill="#969696"/>
<path d="M23.8701 26.6119C23.9548 26.5271 23.9548 26.5271 24.0394 26.4424C24.0394 26.4424 24.1241 26.4424 24.2087 26.5271C24.1241 26.6119 24.0394 26.6966 24.0394 26.7814C23.9548 26.6966 23.9548 26.6966 23.8701 26.6119Z" fill="#969696"/>
<path d="M24.0394 30.3407C23.9548 30.2559 23.8701 30.2559 23.8701 30.2559C23.9548 30.1712 24.0394 30.0864 24.1241 30.0864C24.1241 30.1712 24.2087 30.1712 24.2087 30.2559C24.2087 30.1712 24.1241 30.2559 24.0394 30.3407Z" fill="#969696"/>
<path d="M26.9177 24.1538C27.0023 24.2386 27.087 24.3233 27.1716 24.4081C27.087 24.4081 27.087 24.4928 27.0023 24.4928C26.9177 24.4081 26.9177 24.4081 26.833 24.3233C26.833 24.2386 26.833 24.2386 26.9177 24.1538Z" fill="#969696"/>
<path d="M23.1086 20.0862C23.1086 20.171 23.024 20.2557 23.024 20.2557C22.9393 20.171 22.8547 20.0862 22.77 20.0862L22.8547 20.0015C22.9393 20.0015 23.024 20.0862 23.1086 20.0862Z" fill="#969696"/>
<path d="M33.3516 20.5096C33.3516 20.5943 33.267 20.5943 33.267 20.5943C33.1823 20.5943 33.0977 20.5943 33.0977 20.5096C33.0977 20.5096 33.0977 20.4248 33.1823 20.4248C33.267 20.5096 33.267 20.5096 33.3516 20.5096Z" fill="#969696"/>
<path d="M24.2935 29.6629C24.2935 29.6629 24.2088 29.6629 24.1242 29.7477C24.1242 29.6629 24.0396 29.6629 24.0396 29.5782C24.0396 29.4934 24.1242 29.4934 24.1242 29.4087C24.2088 29.4934 24.2088 29.5782 24.2935 29.6629Z" fill="#969696"/>
<path d="M30.7267 21.5267C30.7267 21.5267 30.7267 21.442 30.6421 21.3572C30.7267 21.3572 30.7267 21.2725 30.8114 21.2725C30.896 21.2725 30.896 21.3572 30.9807 21.3572C30.896 21.442 30.896 21.442 30.7267 21.5267Z" fill="#969696"/>
<path d="M30.3885 18.0518C30.4732 18.1365 30.5578 18.1365 30.5578 18.1365C30.4732 18.1365 30.4732 18.2213 30.3885 18.2213C30.3885 18.2213 30.3039 18.2213 30.2192 18.1365C30.3885 18.1365 30.3885 18.0518 30.3885 18.0518Z" fill="#969696"/>
<path d="M29.1193 23.3911C29.204 23.3911 29.204 23.4759 29.1193 23.3911C29.1193 23.4759 29.1193 23.4759 29.1193 23.5606L29.0347 23.4759C29.1193 23.4759 29.1193 23.3911 29.1193 23.3911Z" fill="#969696"/>
<path d="M97.4532 24.8261H52.4619C51.8532 24.8261 51.2998 24.0634 51.2998 23.0464C51.2998 22.1141 51.7979 21.2666 52.4619 21.2666H97.4532C98.0619 21.2666 98.6153 22.0294 98.6153 23.0464C98.6153 24.0634 98.0619 24.8261 97.4532 24.8261Z" fill="#DCDDE2"/>
<path d="M112.782 16.8593H52.4619C51.8532 16.8593 51.2998 16.0966 51.2998 15.0796C51.2998 14.1473 51.7979 13.2998 52.4619 13.2998H112.838C113.446 13.2998 114 14.0626 114 15.0796C113.944 16.0966 113.446 16.8593 112.782 16.8593Z" fill="#DCDDE2"/>
</svg>
