<svg width="32" height="32" viewBox="0 0 32 32" fill="none" xmlns="http://www.w3.org/2000/svg">
<g clip-path="url(#clip0_7252_145656)">
<path d="M25.2903 0H6.70975C3.00406 0 0 3.00406 0 6.70975V25.2903C0 28.9959 3.00406 32 6.70975 32H25.2903C28.9959 32 32 28.9959 32 25.2903V6.70975C32 3.00406 28.9959 0 25.2903 0Z" fill="#F5F1ED"/>
<path d="M18.7293 13.1778C20.6193 12.8853 23.3523 10.8953 23.3523 9.344C23.3523 8.87575 22.9743 8.554 22.4218 8.554C21.375 8.554 19.6018 10.134 18.7293 13.1778ZM9.97775 20.875C7.5065 20.875 7.30275 23.3333 9.77425 23.3333C10.8793 23.3333 12.2168 22.8943 12.9143 22.1043C11.8968 21.2263 11.0535 20.875 9.97775 20.875ZM25.7073 19.8215C25.8525 23.948 23.7593 26.26 20.2123 26.26C18.1188 26.26 17.0723 25.4698 14.8333 24.0065C13.6703 25.2943 11.4608 26.26 9.62875 26.26C3.31975 26.26 3.58125 18.2118 10.0068 18.2118C11.3443 18.2118 12.4783 18.563 13.9318 19.4703L14.8915 16.1048C10.9373 15.0215 8.96 11.978 10.9083 7.61725H14.0483C12.3038 10.5148 13.4958 12.9145 15.7055 13.1778C16.8975 8.93425 19.4563 5.6275 22.858 5.6275C24.7768 5.6275 26.2888 6.886 26.2888 9.16875C26.2888 12.827 21.5205 15.812 17.9153 16.1048L16.4325 21.343C18.1188 23.3038 22.7998 25.206 22.7998 19.8213L25.7073 19.8215Z" fill="#12100F"/>
</g>
<defs>
<clipPath id="clip0_7252_145656">
<rect width="32" height="32" fill="white"/>
</clipPath>
</defs>
</svg>
